ISO-10303-21;
HEADER;
FILE_DESCRIPTION(('FreeCAD Model'),'2;1');
FILE_NAME('Open CASCADE Shape Model','2025-02-19T01:33:11',(''),(''),
  'Open CASCADE STEP processor 7.8','FreeCAD','Unknown');
FILE_SCHEMA(('AUTOMOTIVE_DESIGN { 1 0 10303 214 1 1 1 1 }'));
ENDSEC;
DATA;
#1 = APPLICATION_PROTOCOL_DEFINITION('international standard',
  'automotive_design',2000,#2);
#2 = APPLICATION_CONTEXT(
  'core data for automotive mechanical design processes');
#3 = SHAPE_DEFINITION_REPRESENTATION(#4,#10);
#4 = PRODUCT_DEFINITION_SHAPE('','',#5);
#5 = PRODUCT_DEFINITION('design','',#6,#9);
#6 = PRODUCT_DEFINITION_FORMATION('','',#7);
#7 = PRODUCT('dual_spout','dual_spout','',(#8));
#8 = PRODUCT_CONTEXT('',#2,'mechanical');
#9 = PRODUCT_DEFINITION_CONTEXT('part definition',#2,'design');
#10 = ADVANCED_BREP_SHAPE_REPRESENTATION('',(#11,#15),#598);
#11 = AXIS2_PLACEMENT_3D('',#12,#13,#14);
#12 = CARTESIAN_POINT('',(0.,0.,0.));
#13 = DIRECTION('',(0.,0.,1.));
#14 = DIRECTION('',(1.,0.,-0.));
#15 = MANIFOLD_SOLID_BREP('',#16);
#16 = CLOSED_SHELL('',(#17,#93,#135,#160,#185,#209,#233,#258,#283,#311,
    #338,#363,#388,#515,#535,#555,#564,#580));
#17 = ADVANCED_FACE('',(#18),#88,.F.);
#18 = FACE_BOUND('',#19,.F.);
#19 = EDGE_LOOP('',(#20,#30,#39,#47,#56,#64,#73,#81));
#20 = ORIENTED_EDGE('',*,*,#21,.F.);
#21 = EDGE_CURVE('',#22,#24,#26,.T.);
#22 = VERTEX_POINT('',#23);
#23 = CARTESIAN_POINT('',(-20.,-10.,-3.));
#24 = VERTEX_POINT('',#25);
#25 = CARTESIAN_POINT('',(-20.,10.,-3.));
#26 = LINE('',#27,#28);
#27 = CARTESIAN_POINT('',(-20.,-20.,-3.));
#28 = VECTOR('',#29,1.);
#29 = DIRECTION('',(0.,1.,0.));
#30 = ORIENTED_EDGE('',*,*,#31,.T.);
#31 = EDGE_CURVE('',#22,#32,#34,.T.);
#32 = VERTEX_POINT('',#33);
#33 = CARTESIAN_POINT('',(-10.,-20.,-3.));
#34 = CIRCLE('',#35,10.);
#35 = AXIS2_PLACEMENT_3D('',#36,#37,#38);
#36 = CARTESIAN_POINT('',(-10.,-10.,-3.));
#37 = DIRECTION('',(0.,-0.,1.));
#38 = DIRECTION('',(0.,1.,0.));
#39 = ORIENTED_EDGE('',*,*,#40,.F.);
#40 = EDGE_CURVE('',#41,#32,#43,.T.);
#41 = VERTEX_POINT('',#42);
#42 = CARTESIAN_POINT('',(10.,-20.,-3.));
#43 = LINE('',#44,#45);
#44 = CARTESIAN_POINT('',(20.,-20.,-3.));
#45 = VECTOR('',#46,1.);
#46 = DIRECTION('',(-1.,0.,0.));
#47 = ORIENTED_EDGE('',*,*,#48,.F.);
#48 = EDGE_CURVE('',#49,#41,#51,.T.);
#49 = VERTEX_POINT('',#50);
#50 = CARTESIAN_POINT('',(20.,-10.,-3.));
#51 = CIRCLE('',#52,10.);
#52 = AXIS2_PLACEMENT_3D('',#53,#54,#55);
#53 = CARTESIAN_POINT('',(10.,-10.,-3.));
#54 = DIRECTION('',(0.,0.,-1.));
#55 = DIRECTION('',(0.,1.,0.));
#56 = ORIENTED_EDGE('',*,*,#57,.F.);
#57 = EDGE_CURVE('',#58,#49,#60,.T.);
#58 = VERTEX_POINT('',#59);
#59 = CARTESIAN_POINT('',(20.,10.,-3.));
#60 = LINE('',#61,#62);
#61 = CARTESIAN_POINT('',(20.,20.,-3.));
#62 = VECTOR('',#63,1.);
#63 = DIRECTION('',(0.,-1.,0.));
#64 = ORIENTED_EDGE('',*,*,#65,.F.);
#65 = EDGE_CURVE('',#66,#58,#68,.T.);
#66 = VERTEX_POINT('',#67);
#67 = CARTESIAN_POINT('',(10.,20.,-3.));
#68 = CIRCLE('',#69,10.);
#69 = AXIS2_PLACEMENT_3D('',#70,#71,#72);
#70 = CARTESIAN_POINT('',(10.,10.,-3.));
#71 = DIRECTION('',(-0.,-0.,-1.));
#72 = DIRECTION('',(0.,-1.,0.));
#73 = ORIENTED_EDGE('',*,*,#74,.F.);
#74 = EDGE_CURVE('',#75,#66,#77,.T.);
#75 = VERTEX_POINT('',#76);
#76 = CARTESIAN_POINT('',(-10.,20.,-3.));
#77 = LINE('',#78,#79);
#78 = CARTESIAN_POINT('',(-20.,20.,-3.));
#79 = VECTOR('',#80,1.);
#80 = DIRECTION('',(1.,0.,0.));
#81 = ORIENTED_EDGE('',*,*,#82,.F.);
#82 = EDGE_CURVE('',#24,#75,#83,.T.);
#83 = CIRCLE('',#84,10.);
#84 = AXIS2_PLACEMENT_3D('',#85,#86,#87);
#85 = CARTESIAN_POINT('',(-10.,10.,-3.));
#86 = DIRECTION('',(-0.,-0.,-1.));
#87 = DIRECTION('',(0.,-1.,0.));
#88 = PLANE('',#89);
#89 = AXIS2_PLACEMENT_3D('',#90,#91,#92);
#90 = CARTESIAN_POINT('',(0.,0.,-3.));
#91 = DIRECTION('',(0.,0.,1.));
#92 = DIRECTION('',(1.,0.,0.));
#93 = ADVANCED_FACE('',(#94,#119),#130,.T.);
#94 = FACE_BOUND('',#95,.T.);
#95 = EDGE_LOOP('',(#96,#97,#105,#113));
#96 = ORIENTED_EDGE('',*,*,#21,.F.);
#97 = ORIENTED_EDGE('',*,*,#98,.F.);
#98 = EDGE_CURVE('',#99,#22,#101,.T.);
#99 = VERTEX_POINT('',#100);
#100 = CARTESIAN_POINT('',(-20.,-10.,36.));
#101 = LINE('',#102,#103);
#102 = CARTESIAN_POINT('',(-20.,-10.,36.));
#103 = VECTOR('',#104,1.);
#104 = DIRECTION('',(0.,0.,-1.));
#105 = ORIENTED_EDGE('',*,*,#106,.F.);
#106 = EDGE_CURVE('',#107,#99,#109,.T.);
#107 = VERTEX_POINT('',#108);
#108 = CARTESIAN_POINT('',(-20.,10.,36.));
#109 = LINE('',#110,#111);
#110 = CARTESIAN_POINT('',(-20.,20.,36.));
#111 = VECTOR('',#112,1.);
#112 = DIRECTION('',(0.,-1.,0.));
#113 = ORIENTED_EDGE('',*,*,#114,.F.);
#114 = EDGE_CURVE('',#24,#107,#115,.T.);
#115 = LINE('',#116,#117);
#116 = CARTESIAN_POINT('',(-20.,10.,-3.));
#117 = VECTOR('',#118,1.);
#118 = DIRECTION('',(0.,0.,1.));
#119 = FACE_BOUND('',#120,.T.);
#120 = EDGE_LOOP('',(#121));
#121 = ORIENTED_EDGE('',*,*,#122,.F.);
#122 = EDGE_CURVE('',#123,#123,#125,.T.);
#123 = VERTEX_POINT('',#124);
#124 = CARTESIAN_POINT('',(-20.,-0.395,0.5));
#125 = CIRCLE('',#126,0.395);
#126 = AXIS2_PLACEMENT_3D('',#127,#128,#129);
#127 = CARTESIAN_POINT('',(-20.,0.,0.5));
#128 = DIRECTION('',(-1.,0.,0.));
#129 = DIRECTION('',(0.,-1.,0.));
#130 = PLANE('',#131);
#131 = AXIS2_PLACEMENT_3D('',#132,#133,#134);
#132 = CARTESIAN_POINT('',(-20.,0.,16.5));
#133 = DIRECTION('',(-1.,-0.,-0.));
#134 = DIRECTION('',(0.,0.,-1.));
#135 = ADVANCED_FACE('',(#136),#155,.T.);
#136 = FACE_BOUND('',#137,.F.);
#137 = EDGE_LOOP('',(#138,#147,#153,#154));
#138 = ORIENTED_EDGE('',*,*,#139,.T.);
#139 = EDGE_CURVE('',#99,#140,#142,.T.);
#140 = VERTEX_POINT('',#141);
#141 = CARTESIAN_POINT('',(-10.,-20.,36.));
#142 = CIRCLE('',#143,10.);
#143 = AXIS2_PLACEMENT_3D('',#144,#145,#146);
#144 = CARTESIAN_POINT('',(-10.,-10.,36.));
#145 = DIRECTION('',(0.,-0.,1.));
#146 = DIRECTION('',(0.,1.,0.));
#147 = ORIENTED_EDGE('',*,*,#148,.T.);
#148 = EDGE_CURVE('',#140,#32,#149,.T.);
#149 = LINE('',#150,#151);
#150 = CARTESIAN_POINT('',(-10.,-20.,36.));
#151 = VECTOR('',#152,1.);
#152 = DIRECTION('',(0.,0.,-1.));
#153 = ORIENTED_EDGE('',*,*,#31,.F.);
#154 = ORIENTED_EDGE('',*,*,#98,.F.);
#155 = CYLINDRICAL_SURFACE('',#156,10.);
#156 = AXIS2_PLACEMENT_3D('',#157,#158,#159);
#157 = CARTESIAN_POINT('',(-10.,-10.,36.));
#158 = DIRECTION('',(0.,0.,-1.));
#159 = DIRECTION('',(-1.,-0.,-0.));
#160 = ADVANCED_FACE('',(#161),#180,.T.);
#161 = FACE_BOUND('',#162,.F.);
#162 = EDGE_LOOP('',(#163,#164,#172,#179));
#163 = ORIENTED_EDGE('',*,*,#82,.T.);
#164 = ORIENTED_EDGE('',*,*,#165,.T.);
#165 = EDGE_CURVE('',#75,#166,#168,.T.);
#166 = VERTEX_POINT('',#167);
#167 = CARTESIAN_POINT('',(-10.,20.,36.));
#168 = LINE('',#169,#170);
#169 = CARTESIAN_POINT('',(-10.,20.,-3.));
#170 = VECTOR('',#171,1.);
#171 = DIRECTION('',(0.,0.,1.));
#172 = ORIENTED_EDGE('',*,*,#173,.F.);
#173 = EDGE_CURVE('',#107,#166,#174,.T.);
#174 = CIRCLE('',#175,10.);
#175 = AXIS2_PLACEMENT_3D('',#176,#177,#178);
#176 = CARTESIAN_POINT('',(-10.,10.,36.));
#177 = DIRECTION('',(-0.,-0.,-1.));
#178 = DIRECTION('',(0.,-1.,0.));
#179 = ORIENTED_EDGE('',*,*,#114,.F.);
#180 = CYLINDRICAL_SURFACE('',#181,10.);
#181 = AXIS2_PLACEMENT_3D('',#182,#183,#184);
#182 = CARTESIAN_POINT('',(-10.,10.,-3.));
#183 = DIRECTION('',(0.,0.,1.));
#184 = DIRECTION('',(-1.,0.,0.));
#185 = ADVANCED_FACE('',(#186),#204,.T.);
#186 = FACE_BOUND('',#187,.T.);
#187 = EDGE_LOOP('',(#188,#189,#197,#203));
#188 = ORIENTED_EDGE('',*,*,#40,.F.);
#189 = ORIENTED_EDGE('',*,*,#190,.F.);
#190 = EDGE_CURVE('',#191,#41,#193,.T.);
#191 = VERTEX_POINT('',#192);
#192 = CARTESIAN_POINT('',(10.,-20.,36.));
#193 = LINE('',#194,#195);
#194 = CARTESIAN_POINT('',(10.,-20.,36.));
#195 = VECTOR('',#196,1.);
#196 = DIRECTION('',(0.,0.,-1.));
#197 = ORIENTED_EDGE('',*,*,#198,.F.);
#198 = EDGE_CURVE('',#140,#191,#199,.T.);
#199 = LINE('',#200,#201);
#200 = CARTESIAN_POINT('',(-20.,-20.,36.));
#201 = VECTOR('',#202,1.);
#202 = DIRECTION('',(1.,0.,0.));
#203 = ORIENTED_EDGE('',*,*,#148,.T.);
#204 = PLANE('',#205);
#205 = AXIS2_PLACEMENT_3D('',#206,#207,#208);
#206 = CARTESIAN_POINT('',(0.,-20.,16.5));
#207 = DIRECTION('',(-0.,-1.,-0.));
#208 = DIRECTION('',(0.,0.,-1.));
#209 = ADVANCED_FACE('',(#210),#228,.T.);
#210 = FACE_BOUND('',#211,.T.);
#211 = EDGE_LOOP('',(#212,#213,#214,#222));
#212 = ORIENTED_EDGE('',*,*,#74,.F.);
#213 = ORIENTED_EDGE('',*,*,#165,.T.);
#214 = ORIENTED_EDGE('',*,*,#215,.F.);
#215 = EDGE_CURVE('',#216,#166,#218,.T.);
#216 = VERTEX_POINT('',#217);
#217 = CARTESIAN_POINT('',(10.,20.,36.));
#218 = LINE('',#219,#220);
#219 = CARTESIAN_POINT('',(20.,20.,36.));
#220 = VECTOR('',#221,1.);
#221 = DIRECTION('',(-1.,0.,0.));
#222 = ORIENTED_EDGE('',*,*,#223,.F.);
#223 = EDGE_CURVE('',#66,#216,#224,.T.);
#224 = LINE('',#225,#226);
#225 = CARTESIAN_POINT('',(10.,20.,-3.));
#226 = VECTOR('',#227,1.);
#227 = DIRECTION('',(0.,0.,1.));
#228 = PLANE('',#229);
#229 = AXIS2_PLACEMENT_3D('',#230,#231,#232);
#230 = CARTESIAN_POINT('',(0.,20.,16.5));
#231 = DIRECTION('',(0.,1.,0.));
#232 = DIRECTION('',(0.,0.,1.));
#233 = ADVANCED_FACE('',(#234),#253,.T.);
#234 = FACE_BOUND('',#235,.T.);
#235 = EDGE_LOOP('',(#236,#245,#246,#247));
#236 = ORIENTED_EDGE('',*,*,#237,.T.);
#237 = EDGE_CURVE('',#238,#191,#240,.T.);
#238 = VERTEX_POINT('',#239);
#239 = CARTESIAN_POINT('',(20.,-10.,36.));
#240 = CIRCLE('',#241,10.);
#241 = AXIS2_PLACEMENT_3D('',#242,#243,#244);
#242 = CARTESIAN_POINT('',(10.,-10.,36.));
#243 = DIRECTION('',(0.,0.,-1.));
#244 = DIRECTION('',(0.,1.,0.));
#245 = ORIENTED_EDGE('',*,*,#190,.T.);
#246 = ORIENTED_EDGE('',*,*,#48,.F.);
#247 = ORIENTED_EDGE('',*,*,#248,.F.);
#248 = EDGE_CURVE('',#238,#49,#249,.T.);
#249 = LINE('',#250,#251);
#250 = CARTESIAN_POINT('',(20.,-10.,36.));
#251 = VECTOR('',#252,1.);
#252 = DIRECTION('',(0.,0.,-1.));
#253 = CYLINDRICAL_SURFACE('',#254,10.);
#254 = AXIS2_PLACEMENT_3D('',#255,#256,#257);
#255 = CARTESIAN_POINT('',(10.,-10.,36.));
#256 = DIRECTION('',(0.,0.,-1.));
#257 = DIRECTION('',(1.,0.,0.));
#258 = ADVANCED_FACE('',(#259),#278,.T.);
#259 = FACE_BOUND('',#260,.F.);
#260 = EDGE_LOOP('',(#261,#262,#270,#277));
#261 = ORIENTED_EDGE('',*,*,#65,.T.);
#262 = ORIENTED_EDGE('',*,*,#263,.T.);
#263 = EDGE_CURVE('',#58,#264,#266,.T.);
#264 = VERTEX_POINT('',#265);
#265 = CARTESIAN_POINT('',(20.,10.,36.));
#266 = LINE('',#267,#268);
#267 = CARTESIAN_POINT('',(20.,10.,-3.));
#268 = VECTOR('',#269,1.);
#269 = DIRECTION('',(0.,0.,1.));
#270 = ORIENTED_EDGE('',*,*,#271,.F.);
#271 = EDGE_CURVE('',#216,#264,#272,.T.);
#272 = CIRCLE('',#273,10.);
#273 = AXIS2_PLACEMENT_3D('',#274,#275,#276);
#274 = CARTESIAN_POINT('',(10.,10.,36.));
#275 = DIRECTION('',(-0.,-0.,-1.));
#276 = DIRECTION('',(0.,-1.,0.));
#277 = ORIENTED_EDGE('',*,*,#223,.F.);
#278 = CYLINDRICAL_SURFACE('',#279,10.);
#279 = AXIS2_PLACEMENT_3D('',#280,#281,#282);
#280 = CARTESIAN_POINT('',(10.,10.,-3.));
#281 = DIRECTION('',(0.,0.,1.));
#282 = DIRECTION('',(0.,1.,0.));
#283 = ADVANCED_FACE('',(#284,#295),#306,.T.);
#284 = FACE_BOUND('',#285,.T.);
#285 = EDGE_LOOP('',(#286,#287,#288,#294));
#286 = ORIENTED_EDGE('',*,*,#57,.F.);
#287 = ORIENTED_EDGE('',*,*,#263,.T.);
#288 = ORIENTED_EDGE('',*,*,#289,.F.);
#289 = EDGE_CURVE('',#238,#264,#290,.T.);
#290 = LINE('',#291,#292);
#291 = CARTESIAN_POINT('',(20.,-20.,36.));
#292 = VECTOR('',#293,1.);
#293 = DIRECTION('',(0.,1.,0.));
#294 = ORIENTED_EDGE('',*,*,#248,.T.);
#295 = FACE_BOUND('',#296,.T.);
#296 = EDGE_LOOP('',(#297));
#297 = ORIENTED_EDGE('',*,*,#298,.F.);
#298 = EDGE_CURVE('',#299,#299,#301,.T.);
#299 = VERTEX_POINT('',#300);
#300 = CARTESIAN_POINT('',(20.,1.75,27.));
#301 = CIRCLE('',#302,1.75);
#302 = AXIS2_PLACEMENT_3D('',#303,#304,#305);
#303 = CARTESIAN_POINT('',(20.,0.,27.));
#304 = DIRECTION('',(1.,0.,0.));
#305 = DIRECTION('',(0.,1.,0.));
#306 = PLANE('',#307);
#307 = AXIS2_PLACEMENT_3D('',#308,#309,#310);
#308 = CARTESIAN_POINT('',(20.,0.,16.5));
#309 = DIRECTION('',(1.,0.,0.));
#310 = DIRECTION('',(0.,0.,1.));
#311 = ADVANCED_FACE('',(#312,#322),#333,.T.);
#312 = FACE_BOUND('',#313,.T.);
#313 = EDGE_LOOP('',(#314,#315,#316,#317,#318,#319,#320,#321));
#314 = ORIENTED_EDGE('',*,*,#106,.T.);
#315 = ORIENTED_EDGE('',*,*,#139,.T.);
#316 = ORIENTED_EDGE('',*,*,#198,.T.);
#317 = ORIENTED_EDGE('',*,*,#237,.F.);
#318 = ORIENTED_EDGE('',*,*,#289,.T.);
#319 = ORIENTED_EDGE('',*,*,#271,.F.);
#320 = ORIENTED_EDGE('',*,*,#215,.T.);
#321 = ORIENTED_EDGE('',*,*,#173,.F.);
#322 = FACE_BOUND('',#323,.F.);
#323 = EDGE_LOOP('',(#324));
#324 = ORIENTED_EDGE('',*,*,#325,.T.);
#325 = EDGE_CURVE('',#326,#326,#328,.T.);
#326 = VERTEX_POINT('',#327);
#327 = CARTESIAN_POINT('',(17.,0.,36.));
#328 = CIRCLE('',#329,17.);
#329 = AXIS2_PLACEMENT_3D('',#330,#331,#332);
#330 = CARTESIAN_POINT('',(0.,0.,36.));
#331 = DIRECTION('',(0.,0.,1.));
#332 = DIRECTION('',(1.,0.,0.));
#333 = PLANE('',#334);
#334 = AXIS2_PLACEMENT_3D('',#335,#336,#337);
#335 = CARTESIAN_POINT('',(-5.722462846329E-16,-2.468494159655E-16,36.)
  );
#336 = DIRECTION('',(0.,0.,1.));
#337 = DIRECTION('',(1.,0.,0.));
#338 = ADVANCED_FACE('',(#339),#358,.T.);
#339 = FACE_BOUND('',#340,.F.);
#340 = EDGE_LOOP('',(#341,#349,#356,#357));
#341 = ORIENTED_EDGE('',*,*,#342,.T.);
#342 = EDGE_CURVE('',#123,#343,#345,.T.);
#343 = VERTEX_POINT('',#344);
#344 = CARTESIAN_POINT('',(-23.5,-0.395,0.5));
#345 = LINE('',#346,#347);
#346 = CARTESIAN_POINT('',(-20.,-0.395,0.5));
#347 = VECTOR('',#348,1.);
#348 = DIRECTION('',(-1.,0.,0.));
#349 = ORIENTED_EDGE('',*,*,#350,.T.);
#350 = EDGE_CURVE('',#343,#343,#351,.T.);
#351 = CIRCLE('',#352,0.395);
#352 = AXIS2_PLACEMENT_3D('',#353,#354,#355);
#353 = CARTESIAN_POINT('',(-23.5,0.,0.5));
#354 = DIRECTION('',(-1.,0.,0.));
#355 = DIRECTION('',(0.,-1.,0.));
#356 = ORIENTED_EDGE('',*,*,#342,.F.);
#357 = ORIENTED_EDGE('',*,*,#122,.F.);
#358 = CYLINDRICAL_SURFACE('',#359,0.395);
#359 = AXIS2_PLACEMENT_3D('',#360,#361,#362);
#360 = CARTESIAN_POINT('',(-20.,0.,0.5));
#361 = DIRECTION('',(1.,0.,0.));
#362 = DIRECTION('',(0.,-1.,0.));
#363 = ADVANCED_FACE('',(#364),#383,.T.);
#364 = FACE_BOUND('',#365,.F.);
#365 = EDGE_LOOP('',(#366,#374,#381,#382));
#366 = ORIENTED_EDGE('',*,*,#367,.T.);
#367 = EDGE_CURVE('',#299,#368,#370,.T.);
#368 = VERTEX_POINT('',#369);
#369 = CARTESIAN_POINT('',(23.5,1.75,27.));
#370 = LINE('',#371,#372);
#371 = CARTESIAN_POINT('',(20.,1.75,27.));
#372 = VECTOR('',#373,1.);
#373 = DIRECTION('',(1.,0.,0.));
#374 = ORIENTED_EDGE('',*,*,#375,.T.);
#375 = EDGE_CURVE('',#368,#368,#376,.T.);
#376 = CIRCLE('',#377,1.75);
#377 = AXIS2_PLACEMENT_3D('',#378,#379,#380);
#378 = CARTESIAN_POINT('',(23.5,0.,27.));
#379 = DIRECTION('',(1.,0.,0.));
#380 = DIRECTION('',(0.,1.,0.));
#381 = ORIENTED_EDGE('',*,*,#367,.F.);
#382 = ORIENTED_EDGE('',*,*,#298,.F.);
#383 = CYLINDRICAL_SURFACE('',#384,1.75);
#384 = AXIS2_PLACEMENT_3D('',#385,#386,#387);
#385 = CARTESIAN_POINT('',(20.,0.,27.));
#386 = DIRECTION('',(-1.,-0.,-0.));
#387 = DIRECTION('',(0.,1.,0.));
#388 = ADVANCED_FACE('',(#389,#473),#510,.F.);
#389 = FACE_BOUND('',#390,.T.);
#390 = EDGE_LOOP('',(#391,#401,#408,#409,#423,#440,#446,#447,#448));
#391 = ORIENTED_EDGE('',*,*,#392,.F.);
#392 = EDGE_CURVE('',#393,#395,#397,.T.);
#393 = VERTEX_POINT('',#394);
#394 = CARTESIAN_POINT('',(17.,0.,0.));
#395 = VERTEX_POINT('',#396);
#396 = CARTESIAN_POINT('',(17.,0.,26.35));
#397 = LINE('',#398,#399);
#398 = CARTESIAN_POINT('',(17.,0.,0.));
#399 = VECTOR('',#400,1.);
#400 = DIRECTION('',(0.,0.,1.));
#401 = ORIENTED_EDGE('',*,*,#402,.F.);
#402 = EDGE_CURVE('',#393,#393,#403,.T.);
#403 = CIRCLE('',#404,17.);
#404 = AXIS2_PLACEMENT_3D('',#405,#406,#407);
#405 = CARTESIAN_POINT('',(0.,0.,0.));
#406 = DIRECTION('',(0.,0.,1.));
#407 = DIRECTION('',(1.,0.,0.));
#408 = ORIENTED_EDGE('',*,*,#392,.T.);
#409 = ORIENTED_EDGE('',*,*,#410,.T.);
#410 = EDGE_CURVE('',#395,#411,#413,.T.);
#411 = VERTEX_POINT('',#412);
#412 = CARTESIAN_POINT('',(16.987568984407,0.65,27.));
#413 = B_SPLINE_CURVE_WITH_KNOTS('',8,(#414,#415,#416,#417,#418,#419,
    #420,#421,#422),.UNSPECIFIED.,.F.,.F.,(9,9),(0.,1.),
  .PIECEWISE_BEZIER_KNOTS.);
#414 = CARTESIAN_POINT('',(17.,1.094930414152E-15,26.35));
#415 = CARTESIAN_POINT('',(17.,0.140043708025,26.35));
#416 = CARTESIAN_POINT('',(16.998681387683,0.274405227623,26.384483578)
  );
#417 = CARTESIAN_POINT('',(16.996232537278,0.395161656237,
    26.448550254647));
#418 = CARTESIAN_POINT('',(16.993242783516,0.496615044809,
    26.536909112762));
#419 = CARTESIAN_POINT('',(16.990466420532,0.57425877231,26.643331987387
    ));
#420 = CARTESIAN_POINT('',(16.988503598875,0.625577711706,
    26.760878795641));
#421 = CARTESIAN_POINT('',(16.987568984407,0.65,26.882141810506));
#422 = CARTESIAN_POINT('',(16.987568984407,0.65,27.));
#423 = ORIENTED_EDGE('',*,*,#424,.T.);
#424 = EDGE_CURVE('',#411,#425,#427,.T.);
#425 = VERTEX_POINT('',#426);
#426 = CARTESIAN_POINT('',(17.,0.,27.65));
#427 = B_SPLINE_CURVE_WITH_KNOTS('',6,(#428,#429,#430,#431,#432,#433,
    #434,#435,#436,#437,#438,#439),.UNSPECIFIED.,.F.,.F.,(7,5,7),(0.,
    0.561689001761,1.),.UNSPECIFIED.);
#428 = CARTESIAN_POINT('',(16.987568984407,0.65,27.));
#429 = CARTESIAN_POINT('',(16.987568984407,0.65,27.089568236132));
#430 = CARTESIAN_POINT('',(16.988135752803,0.63518964804,27.179337106021
    ));
#431 = CARTESIAN_POINT('',(16.989273642371,0.605441833633,
    27.266778233861));
#432 = CARTESIAN_POINT('',(16.990881920467,0.560899051123,
    27.349258018231));
#433 = CARTESIAN_POINT('',(16.992739232635,0.502020861591,27.42394741321
    ));
#434 = CARTESIAN_POINT('',(16.995989052399,0.373536684574,
    27.537221452492));
#435 = CARTESIAN_POINT('',(16.997400245399,0.308879125296,
    27.580352474638));
#436 = CARTESIAN_POINT('',(16.998644575802,0.237074703962,
    27.614561827142));
#437 = CARTESIAN_POINT('',(16.999545586941,0.16008579903,27.638112553567
    ));
#438 = CARTESIAN_POINT('',(17.,8.024252988358E-02,27.65));
#439 = CARTESIAN_POINT('',(17.,6.768185252358E-16,27.65));
#440 = ORIENTED_EDGE('',*,*,#441,.T.);
#441 = EDGE_CURVE('',#425,#326,#442,.T.);
#442 = LINE('',#443,#444);
#443 = CARTESIAN_POINT('',(17.,0.,0.));
#444 = VECTOR('',#445,1.);
#445 = DIRECTION('',(0.,0.,1.));
#446 = ORIENTED_EDGE('',*,*,#325,.T.);
#447 = ORIENTED_EDGE('',*,*,#441,.F.);
#448 = ORIENTED_EDGE('',*,*,#449,.T.);
#449 = EDGE_CURVE('',#425,#395,#450,.T.);
#450 = B_SPLINE_CURVE_WITH_KNOTS('',6,(#451,#452,#453,#454,#455,#456,
    #457,#458,#459,#460,#461,#462,#463,#464,#465,#466,#467,#468,#469,
    #470,#471,#472),.UNSPECIFIED.,.F.,.F.,(7,5,5,5,7),(0.,0.219193197654
    ,0.500022415868,0.790717416047,1.),.UNSPECIFIED.);
#451 = CARTESIAN_POINT('',(17.,-1.443289932013E-15,27.65));
#452 = CARTESIAN_POINT('',(17.,-8.027086934305E-02,27.65));
#453 = CARTESIAN_POINT('',(16.999545276295,-0.16011274064,27.63810411302
    ));
#454 = CARTESIAN_POINT('',(16.998644240015,-0.237083080507,
    27.614553311546));
#455 = CARTESIAN_POINT('',(16.997400391587,-0.308869554084,
    27.580354264717));
#456 = CARTESIAN_POINT('',(16.995989393201,-0.373523210734,
    27.53723333128));
#457 = CARTESIAN_POINT('',(16.992739209261,-0.502021785686,
    27.423946598511));
#458 = CARTESIAN_POINT('',(16.990881898068,-0.560899533598,
    27.34925700689));
#459 = CARTESIAN_POINT('',(16.989273654698,-0.605441476783,
    27.26677810583));
#460 = CARTESIAN_POINT('',(16.988135780318,-0.63518892733,
    27.179338516339));
#461 = CARTESIAN_POINT('',(16.987568984407,-0.65,27.089570427382));
#462 = CARTESIAN_POINT('',(16.987568984407,-0.65,26.907282883279));
#463 = CARTESIAN_POINT('',(16.988176320508,-0.634130073994,
    26.81432062706));
#464 = CARTESIAN_POINT('',(16.989396469113,-0.60222943393,
    26.723941022075));
#465 = CARTESIAN_POINT('',(16.991113557742,-0.554474440342,
    26.639090728005));
#466 = CARTESIAN_POINT('',(16.993070888141,-0.491414272346,
    26.562939693692));
#467 = CARTESIAN_POINT('',(16.996303290674,-0.358826469077,
    26.45325352367));
#468 = CARTESIAN_POINT('',(16.997619743216,-0.295897547861,
    26.413624842153));
#469 = CARTESIAN_POINT('',(16.998763590986,-0.226668227951,
    26.382328312044));
#470 = CARTESIAN_POINT('',(16.999585708727,-0.15289050825,
    26.360837575579));
#471 = CARTESIAN_POINT('',(17.,-7.661730595349E-02,26.35));
#472 = CARTESIAN_POINT('',(17.,-9.992007221626E-16,26.35));
#473 = FACE_BOUND('',#474,.T.);
#474 = EDGE_LOOP('',(#475));
#475 = ORIENTED_EDGE('',*,*,#476,.T.);
#476 = EDGE_CURVE('',#477,#477,#479,.T.);
#477 = VERTEX_POINT('',#478);
#478 = CARTESIAN_POINT('',(-16.99933822241,-0.15,0.5));
#479 = B_SPLINE_CURVE_WITH_KNOTS('',8,(#480,#481,#482,#483,#484,#485,
    #486,#487,#488,#489,#490,#491,#492,#493,#494,#495,#496,#497,#498,
    #499,#500,#501,#502,#503,#504,#505,#506,#507,#508,#509),
  .UNSPECIFIED.,.T.,.F.,(9,7,7,7,9),(0.,0.250000831915,0.500060886114,
    0.75002082902,1.),.UNSPECIFIED.);
#480 = CARTESIAN_POINT('',(-16.99933822241,-0.15,0.5));
#481 = CARTESIAN_POINT('',(-16.99933822241,-0.15,0.529151510008));
#482 = CARTESIAN_POINT('',(-16.99939535411,-0.143525412844,
    0.558599268033));
#483 = CARTESIAN_POINT('',(-16.99951165639,-0.13034487351,0.586345158751
    ));
#484 = CARTESIAN_POINT('',(-16.99966722854,-0.111147270798,
    0.610589395577));
#485 = CARTESIAN_POINT('',(-16.99982280033,-8.698721793663E-02,
    0.629917820111));
#486 = CARTESIAN_POINT('',(-16.9999405152,-5.931629688208E-02,
    0.643258233135));
#487 = CARTESIAN_POINT('',(-17.,-2.97451236912E-02,0.65));
#488 = CARTESIAN_POINT('',(-17.,2.975216996444E-02,0.65));
#489 = CARTESIAN_POINT('',(-16.99994048674,5.932356101478E-02,
    0.643254996994));
#490 = CARTESIAN_POINT('',(-16.99982276507,8.698962096134E-02,
    0.629913844309));
#491 = CARTESIAN_POINT('',(-16.99966723339,0.111144485296,0.61058833871)
  );
#492 = CARTESIAN_POINT('',(-16.99951170816,0.13033899621,0.586349985908)
  );
#493 = CARTESIAN_POINT('',(-16.99939539649,0.143520599808,0.558609842141
    ));
#494 = CARTESIAN_POINT('',(-16.99933822241,0.15,0.529162287394));
#495 = CARTESIAN_POINT('',(-16.99933822241,0.15,0.470849387699));
#496 = CARTESIAN_POINT('',(-16.99939535075,0.143525803477,0.441401539169
    ));
#497 = CARTESIAN_POINT('',(-16.99951165167,0.130345354089,0.413654649944
    ));
#498 = CARTESIAN_POINT('',(-16.99966723708,0.111146670965,0.389409263193
    ));
#499 = CARTESIAN_POINT('',(-16.99982281013,8.698571411419E-02,
    0.370081108394));
#500 = CARTESIAN_POINT('',(-16.9999405217,5.931436770679E-02,
    0.356741013677));
#501 = CARTESIAN_POINT('',(-17.,2.974353390105E-02,0.35));
#502 = CARTESIAN_POINT('',(-17.,-2.974582191122E-02,0.35));
#503 = CARTESIAN_POINT('',(-16.99994051228,-5.931719443614E-02,
    0.356742084746));
#504 = CARTESIAN_POINT('',(-16.99982279598,-8.698754748238E-02,
    0.370082730292));
#505 = CARTESIAN_POINT('',(-16.99966722845,-0.111147247156,
    0.389410687071));
#506 = CARTESIAN_POINT('',(-16.99951165726,-0.130344680429,
    0.413654924509));
#507 = CARTESIAN_POINT('',(-16.99939536026,-0.143524732032,
    0.441400005884));
#508 = CARTESIAN_POINT('',(-16.99933822241,-0.15,0.470846982035));
#509 = CARTESIAN_POINT('',(-16.99933822241,-0.15,0.5));
#510 = CYLINDRICAL_SURFACE('',#511,17.);
#511 = AXIS2_PLACEMENT_3D('',#512,#513,#514);
#512 = CARTESIAN_POINT('',(0.,0.,0.));
#513 = DIRECTION('',(-0.,-0.,-1.));
#514 = DIRECTION('',(1.,0.,0.));
#515 = ADVANCED_FACE('',(#516,#519),#530,.F.);
#516 = FACE_BOUND('',#517,.T.);
#517 = EDGE_LOOP('',(#518));
#518 = ORIENTED_EDGE('',*,*,#350,.T.);
#519 = FACE_BOUND('',#520,.F.);
#520 = EDGE_LOOP('',(#521));
#521 = ORIENTED_EDGE('',*,*,#522,.T.);
#522 = EDGE_CURVE('',#523,#523,#525,.T.);
#523 = VERTEX_POINT('',#524);
#524 = CARTESIAN_POINT('',(-23.5,-0.15,0.5));
#525 = CIRCLE('',#526,0.15);
#526 = AXIS2_PLACEMENT_3D('',#527,#528,#529);
#527 = CARTESIAN_POINT('',(-23.5,0.,0.5));
#528 = DIRECTION('',(-1.,0.,0.));
#529 = DIRECTION('',(0.,-1.,0.));
#530 = PLANE('',#531);
#531 = AXIS2_PLACEMENT_3D('',#532,#533,#534);
#532 = CARTESIAN_POINT('',(-23.5,2.082719525263E-17,0.5));
#533 = DIRECTION('',(1.,0.,0.));
#534 = DIRECTION('',(0.,0.,1.));
#535 = ADVANCED_FACE('',(#536,#539),#550,.T.);
#536 = FACE_BOUND('',#537,.T.);
#537 = EDGE_LOOP('',(#538));
#538 = ORIENTED_EDGE('',*,*,#375,.T.);
#539 = FACE_BOUND('',#540,.F.);
#540 = EDGE_LOOP('',(#541));
#541 = ORIENTED_EDGE('',*,*,#542,.T.);
#542 = EDGE_CURVE('',#543,#543,#545,.T.);
#543 = VERTEX_POINT('',#544);
#544 = CARTESIAN_POINT('',(23.5,0.65,27.));
#545 = CIRCLE('',#546,0.65);
#546 = AXIS2_PLACEMENT_3D('',#547,#548,#549);
#547 = CARTESIAN_POINT('',(23.5,0.,27.));
#548 = DIRECTION('',(1.,0.,0.));
#549 = DIRECTION('',(0.,1.,0.));
#550 = PLANE('',#551);
#551 = AXIS2_PLACEMENT_3D('',#552,#553,#554);
#552 = CARTESIAN_POINT('',(23.5,4.451302514777E-18,27.));
#553 = DIRECTION('',(1.,0.,0.));
#554 = DIRECTION('',(0.,0.,1.));
#555 = ADVANCED_FACE('',(#556),#559,.T.);
#556 = FACE_BOUND('',#557,.T.);
#557 = EDGE_LOOP('',(#558));
#558 = ORIENTED_EDGE('',*,*,#402,.T.);
#559 = PLANE('',#560);
#560 = AXIS2_PLACEMENT_3D('',#561,#562,#563);
#561 = CARTESIAN_POINT('',(0.,0.,0.));
#562 = DIRECTION('',(0.,0.,1.));
#563 = DIRECTION('',(1.,0.,0.));
#564 = ADVANCED_FACE('',(#565),#575,.F.);
#565 = FACE_BOUND('',#566,.F.);
#566 = EDGE_LOOP('',(#567,#568,#573,#574));
#567 = ORIENTED_EDGE('',*,*,#476,.T.);
#568 = ORIENTED_EDGE('',*,*,#569,.T.);
#569 = EDGE_CURVE('',#477,#523,#570,.T.);
#570 = B_SPLINE_CURVE_WITH_KNOTS('',1,(#571,#572),.UNSPECIFIED.,.F.,.F.,
  (2,2),(-3.000661777587,3.5),.PIECEWISE_BEZIER_KNOTS.);
#571 = CARTESIAN_POINT('',(-16.99933822241,-0.15,0.5));
#572 = CARTESIAN_POINT('',(-23.5,-0.15,0.5));
#573 = ORIENTED_EDGE('',*,*,#522,.F.);
#574 = ORIENTED_EDGE('',*,*,#569,.F.);
#575 = CYLINDRICAL_SURFACE('',#576,0.15);
#576 = AXIS2_PLACEMENT_3D('',#577,#578,#579);
#577 = CARTESIAN_POINT('',(-20.,0.,0.5));
#578 = DIRECTION('',(-1.,0.,0.));
#579 = DIRECTION('',(0.,-1.,0.));
#580 = ADVANCED_FACE('',(#581),#593,.F.);
#581 = FACE_BOUND('',#582,.F.);
#582 = EDGE_LOOP('',(#583,#584,#585,#590,#591,#592));
#583 = ORIENTED_EDGE('',*,*,#449,.T.);
#584 = ORIENTED_EDGE('',*,*,#410,.T.);
#585 = ORIENTED_EDGE('',*,*,#586,.T.);
#586 = EDGE_CURVE('',#411,#543,#587,.T.);
#587 = B_SPLINE_CURVE_WITH_KNOTS('',1,(#588,#589),.UNSPECIFIED.,.F.,.F.,
  (2,2),(-3.012431015593,3.5),.PIECEWISE_BEZIER_KNOTS.);
#588 = CARTESIAN_POINT('',(16.987568984407,0.65,27.));
#589 = CARTESIAN_POINT('',(23.5,0.65,27.));
#590 = ORIENTED_EDGE('',*,*,#542,.F.);
#591 = ORIENTED_EDGE('',*,*,#586,.F.);
#592 = ORIENTED_EDGE('',*,*,#424,.T.);
#593 = CYLINDRICAL_SURFACE('',#594,0.65);
#594 = AXIS2_PLACEMENT_3D('',#595,#596,#597);
#595 = CARTESIAN_POINT('',(20.,0.,27.));
#596 = DIRECTION('',(1.,0.,0.));
#597 = DIRECTION('',(0.,1.,0.));
#598 = ( GEOMETRIC_REPRESENTATION_CONTEXT(3) 
GLOBAL_UNCERTAINTY_ASSIGNED_CONTEXT((#602)) GLOBAL_UNIT_ASSIGNED_CONTEXT
((#599,#600,#601)) REPRESENTATION_CONTEXT('Context #1',
  '3D Context with UNIT and UNCERTAINTY') );
#599 = ( LENGTH_UNIT() NAMED_UNIT(*) SI_UNIT(.MILLI.,.METRE.) );
#600 = ( NAMED_UNIT(*) PLANE_ANGLE_UNIT() SI_UNIT($,.RADIAN.) );
#601 = ( NAMED_UNIT(*) SI_UNIT($,.STERADIAN.) SOLID_ANGLE_UNIT() );
#602 = UNCERTAINTY_MEASURE_WITH_UNIT(LENGTH_MEASURE(1.E-06),#599,
  'distance_accuracy_value','confusion accuracy');
#603 = PRODUCT_RELATED_PRODUCT_CATEGORY('part',$,(#7));
#604 = MECHANICAL_DESIGN_GEOMETRIC_PRESENTATION_REPRESENTATION('',(#605)
  ,#598);
#605 = STYLED_ITEM('color',(#606),#15);
#606 = PRESENTATION_STYLE_ASSIGNMENT((#607,#613));
#607 = SURFACE_STYLE_USAGE(.BOTH.,#608);
#608 = SURFACE_SIDE_STYLE('',(#609));
#609 = SURFACE_STYLE_FILL_AREA(#610);
#610 = FILL_AREA_STYLE('',(#611));
#611 = FILL_AREA_STYLE_COLOUR('',#612);
#612 = COLOUR_RGB('',0.800000010877,0.800000010877,0.901960800373);
#613 = CURVE_STYLE('',#614,POSITIVE_LENGTH_MEASURE(0.1),#615);
#614 = DRAUGHTING_PRE_DEFINED_CURVE_FONT('continuous');
#615 = COLOUR_RGB('',9.803921802644E-02,9.803921802644E-02,
  9.803921802644E-02);
ENDSEC;
END-ISO-10303-21;
