ISO-10303-21;
HEADER;
FILE_DESCRIPTION(('FreeCAD Model'),'2;1');
FILE_NAME('Open CASCADE Shape Model','2025-04-18T17:25:49',(''),(''),
  'Open CASCADE STEP processor 7.8','FreeCAD','Unknown');
FILE_SCHEMA(('AUTOMOTIVE_DESIGN { 1 0 10303 214 1 1 1 1 }'));
ENDSEC;
DATA;
#1 = APPLICATION_PROTOCOL_DEFINITION('international standard',
  'automotive_design',2000,#2);
#2 = APPLICATION_CONTEXT(
  'core data for automotive mechanical design processes');
#3 = SHAPE_DEFINITION_REPRESENTATION(#4,#10);
#4 = PRODUCT_DEFINITION_SHAPE('','',#5);
#5 = PRODUCT_DEFINITION('design','',#6,#9);
#6 = PRODUCT_DEFINITION_FORMATION('','',#7);
#7 = PRODUCT('Mixing&Measuring','Mixing&Measuring','',(#8));
#8 = PRODUCT_CONTEXT('',#2,'mechanical');
#9 = PRODUCT_DEFINITION_CONTEXT('part definition',#2,'design');
#10 = ADVANCED_BREP_SHAPE_REPRESENTATION('',(#11,#15),#1961);
#11 = AXIS2_PLACEMENT_3D('',#12,#13,#14);
#12 = CARTESIAN_POINT('',(0.,0.,0.));
#13 = DIRECTION('',(0.,0.,1.));
#14 = DIRECTION('',(1.,0.,-0.));
#15 = MANIFOLD_SOLID_BREP('',#16);
#16 = CLOSED_SHELL('',(#17,#62,#109,#148,#169,#205,#233,#298,#338,#383,
    #430,#466,#513,#540,#579,#624,#671,#707,#754,#790,#837,#873,#920,
    #947,#975,#996,#1017,#1038,#1059,#1080,#1101,#1129,#1193,#1218,#1243
    ,#1268,#1292,#1316,#1365,#1464,#1500,#1536,#1572,#1599,#1634,#1651,
    #1668,#1680,#1703,#1798,#1822,#1846,#1870,#1894,#1948));
#17 = ADVANCED_FACE('',(#18),#54,.F.);
#18 = FACE_BOUND('',#19,.F.);
#19 = EDGE_LOOP('',(#20,#30,#39,#47));
#20 = ORIENTED_EDGE('',*,*,#21,.T.);
#21 = EDGE_CURVE('',#22,#24,#26,.T.);
#22 = VERTEX_POINT('',#23);
#23 = CARTESIAN_POINT('',(25.436522568855,0.5,0.));
#24 = VERTEX_POINT('',#25);
#25 = CARTESIAN_POINT('',(25.436522568855,0.5,0.45));
#26 = LINE('',#27,#28);
#27 = CARTESIAN_POINT('',(25.436522568855,0.5,0.));
#28 = VECTOR('',#29,1.);
#29 = DIRECTION('',(0.,0.,1.));
#30 = ORIENTED_EDGE('',*,*,#31,.T.);
#31 = EDGE_CURVE('',#24,#32,#34,.T.);
#32 = VERTEX_POINT('',#33);
#33 = CARTESIAN_POINT('',(42.291532138892,0.5,0.45));
#34 = ELLIPSE('',#35,8.5,3.836522825521);
#35 = AXIS2_PLACEMENT_3D('',#36,#37,#38);
#36 = CARTESIAN_POINT('',(33.864027353873,0.,0.45));
#37 = DIRECTION('',(0.,0.,-1.));
#38 = DIRECTION('',(-1.,1.1E-15,-0.));
#39 = ORIENTED_EDGE('',*,*,#40,.F.);
#40 = EDGE_CURVE('',#41,#32,#43,.T.);
#41 = VERTEX_POINT('',#42);
#42 = CARTESIAN_POINT('',(42.291532138892,0.5,0.));
#43 = LINE('',#44,#45);
#44 = CARTESIAN_POINT('',(42.291532138892,0.5,0.));
#45 = VECTOR('',#46,1.);
#46 = DIRECTION('',(0.,0.,1.));
#47 = ORIENTED_EDGE('',*,*,#48,.F.);
#48 = EDGE_CURVE('',#22,#41,#49,.T.);
#49 = ELLIPSE('',#50,8.5,3.836522825521);
#50 = AXIS2_PLACEMENT_3D('',#51,#52,#53);
#51 = CARTESIAN_POINT('',(33.864027353873,0.,0.));
#52 = DIRECTION('',(0.,0.,-1.));
#53 = DIRECTION('',(-1.,1.1E-15,-0.));
#54 = SURFACE_OF_LINEAR_EXTRUSION('',#55,#60);
#55 = ELLIPSE('',#56,8.5,3.836522825521);
#56 = AXIS2_PLACEMENT_3D('',#57,#58,#59);
#57 = CARTESIAN_POINT('',(33.864027353873,0.,0.));
#58 = DIRECTION('',(0.,0.,-1.));
#59 = DIRECTION('',(-1.,1.1E-15,0.));
#60 = VECTOR('',#61,1.);
#61 = DIRECTION('',(-0.,-0.,-1.));
#62 = ADVANCED_FACE('',(#63),#104,.T.);
#63 = FACE_BOUND('',#64,.T.);
#64 = EDGE_LOOP('',(#65,#75,#83,#91,#97,#98));
#65 = ORIENTED_EDGE('',*,*,#66,.F.);
#66 = EDGE_CURVE('',#67,#69,#71,.T.);
#67 = VERTEX_POINT('',#68);
#68 = CARTESIAN_POINT('',(20.364022646127,0.5,0.));
#69 = VERTEX_POINT('',#70);
#70 = CARTESIAN_POINT('',(20.364022646127,0.5,0.45));
#71 = LINE('',#72,#73);
#72 = CARTESIAN_POINT('',(20.364022646127,0.5,0.));
#73 = VECTOR('',#74,1.);
#74 = DIRECTION('',(0.,0.,1.));
#75 = ORIENTED_EDGE('',*,*,#76,.T.);
#76 = EDGE_CURVE('',#67,#77,#79,.T.);
#77 = VERTEX_POINT('',#78);
#78 = CARTESIAN_POINT('',(20.364022646127,0.5,-0.45));
#79 = LINE('',#80,#81);
#80 = CARTESIAN_POINT('',(20.364022646127,0.5,0.));
#81 = VECTOR('',#82,1.);
#82 = DIRECTION('',(-0.,-0.,-1.));
#83 = ORIENTED_EDGE('',*,*,#84,.T.);
#84 = EDGE_CURVE('',#77,#85,#87,.T.);
#85 = VERTEX_POINT('',#86);
#86 = CARTESIAN_POINT('',(25.436522568855,0.5,-0.45));
#87 = LINE('',#88,#89);
#88 = CARTESIAN_POINT('',(20.364022646127,0.5,-0.45));
#89 = VECTOR('',#90,1.);
#90 = DIRECTION('',(1.,0.,0.));
#91 = ORIENTED_EDGE('',*,*,#92,.F.);
#92 = EDGE_CURVE('',#22,#85,#93,.T.);
#93 = LINE('',#94,#95);
#94 = CARTESIAN_POINT('',(25.436522568855,0.5,0.));
#95 = VECTOR('',#96,1.);
#96 = DIRECTION('',(-0.,-0.,-1.));
#97 = ORIENTED_EDGE('',*,*,#21,.T.);
#98 = ORIENTED_EDGE('',*,*,#99,.F.);
#99 = EDGE_CURVE('',#69,#24,#100,.T.);
#100 = LINE('',#101,#102);
#101 = CARTESIAN_POINT('',(21.364027353873,0.5,0.45));
#102 = VECTOR('',#103,1.);
#103 = DIRECTION('',(1.,0.,0.));
#104 = PLANE('',#105);
#105 = AXIS2_PLACEMENT_3D('',#106,#107,#108);
#106 = CARTESIAN_POINT('',(22.900273212955,0.5,1.7735343801E-07));
#107 = DIRECTION('',(-0.,-1.,-0.));
#108 = DIRECTION('',(0.,0.,-1.));
#109 = ADVANCED_FACE('',(#110),#143,.T.);
#110 = FACE_BOUND('',#111,.T.);
#111 = EDGE_LOOP('',(#112,#122,#128,#129,#137));
#112 = ORIENTED_EDGE('',*,*,#113,.T.);
#113 = EDGE_CURVE('',#114,#116,#118,.T.);
#114 = VERTEX_POINT('',#115);
#115 = CARTESIAN_POINT('',(46.364027353873,0.5,-0.45));
#116 = VERTEX_POINT('',#117);
#117 = CARTESIAN_POINT('',(46.364027353873,0.5,0.45));
#118 = LINE('',#119,#120);
#119 = CARTESIAN_POINT('',(46.364027353873,0.5,0.));
#120 = VECTOR('',#121,1.);
#121 = DIRECTION('',(0.,0.,1.));
#122 = ORIENTED_EDGE('',*,*,#123,.T.);
#123 = EDGE_CURVE('',#116,#32,#124,.T.);
#124 = LINE('',#125,#126);
#125 = CARTESIAN_POINT('',(46.364027353873,0.5,0.45));
#126 = VECTOR('',#127,1.);
#127 = DIRECTION('',(-1.,0.,0.));
#128 = ORIENTED_EDGE('',*,*,#40,.F.);
#129 = ORIENTED_EDGE('',*,*,#130,.T.);
#130 = EDGE_CURVE('',#41,#131,#133,.T.);
#131 = VERTEX_POINT('',#132);
#132 = CARTESIAN_POINT('',(42.291532138892,0.5,-0.45));
#133 = LINE('',#134,#135);
#134 = CARTESIAN_POINT('',(42.291532138892,0.5,0.));
#135 = VECTOR('',#136,1.);
#136 = DIRECTION('',(-0.,-0.,-1.));
#137 = ORIENTED_EDGE('',*,*,#138,.F.);
#138 = EDGE_CURVE('',#114,#131,#139,.T.);
#139 = LINE('',#140,#141);
#140 = CARTESIAN_POINT('',(46.364027353873,0.5,-0.45));
#141 = VECTOR('',#142,1.);
#142 = DIRECTION('',(-1.,0.,0.));
#143 = PLANE('',#144);
#144 = AXIS2_PLACEMENT_3D('',#145,#146,#147);
#145 = CARTESIAN_POINT('',(44.327779746383,0.5,-1.E-17));
#146 = DIRECTION('',(-0.,-1.,-0.));
#147 = DIRECTION('',(0.,0.,-1.));
#148 = ADVANCED_FACE('',(#149),#161,.T.);
#149 = FACE_BOUND('',#150,.T.);
#150 = EDGE_LOOP('',(#151,#152,#159,#160));
#151 = ORIENTED_EDGE('',*,*,#92,.T.);
#152 = ORIENTED_EDGE('',*,*,#153,.T.);
#153 = EDGE_CURVE('',#85,#131,#154,.T.);
#154 = ELLIPSE('',#155,8.5,3.836522825521);
#155 = AXIS2_PLACEMENT_3D('',#156,#157,#158);
#156 = CARTESIAN_POINT('',(33.864027353873,0.,-0.45));
#157 = DIRECTION('',(0.,0.,-1.));
#158 = DIRECTION('',(-1.,1.1E-15,-0.));
#159 = ORIENTED_EDGE('',*,*,#130,.F.);
#160 = ORIENTED_EDGE('',*,*,#48,.F.);
#161 = SURFACE_OF_LINEAR_EXTRUSION('',#162,#167);
#162 = ELLIPSE('',#163,8.5,3.836522825521);
#163 = AXIS2_PLACEMENT_3D('',#164,#165,#166);
#164 = CARTESIAN_POINT('',(33.864027353873,0.,0.));
#165 = DIRECTION('',(0.,0.,-1.));
#166 = DIRECTION('',(-1.,1.1E-15,0.));
#167 = VECTOR('',#168,1.);
#168 = DIRECTION('',(0.,0.,1.));
#169 = ADVANCED_FACE('',(#170),#197,.F.);
#170 = FACE_BOUND('',#171,.F.);
#171 = EDGE_LOOP('',(#172,#182,#189,#190));
#172 = ORIENTED_EDGE('',*,*,#173,.T.);
#173 = EDGE_CURVE('',#174,#176,#178,.T.);
#174 = VERTEX_POINT('',#175);
#175 = CARTESIAN_POINT('',(16.282877353873,0.5,0.));
#176 = VERTEX_POINT('',#177);
#177 = CARTESIAN_POINT('',(16.282877353873,0.5,0.45));
#178 = LINE('',#179,#180);
#179 = CARTESIAN_POINT('',(16.282877353873,0.5,0.));
#180 = VECTOR('',#181,1.);
#181 = DIRECTION('',(0.,0.,1.));
#182 = ORIENTED_EDGE('',*,*,#183,.T.);
#183 = EDGE_CURVE('',#176,#69,#184,.T.);
#184 = B_SPLINE_CURVE_WITH_KNOTS('',3,(#185,#186,#187,#188),
  .UNSPECIFIED.,.F.,.F.,(4,4),(0.,50.078291514412),
  .PIECEWISE_BEZIER_KNOTS.);
#185 = CARTESIAN_POINT('',(16.282877353873,0.5,0.45));
#186 = CARTESIAN_POINT('',(17.355533894633,3.426855443591,0.45));
#187 = CARTESIAN_POINT('',(19.216822317395,3.289188796157,0.45));
#188 = CARTESIAN_POINT('',(20.364022646127,0.5,0.45));
#189 = ORIENTED_EDGE('',*,*,#66,.F.);
#190 = ORIENTED_EDGE('',*,*,#191,.F.);
#191 = EDGE_CURVE('',#174,#67,#192,.T.);
#192 = B_SPLINE_CURVE_WITH_KNOTS('',3,(#193,#194,#195,#196),
  .UNSPECIFIED.,.F.,.F.,(4,4),(0.,50.078291514412),
  .PIECEWISE_BEZIER_KNOTS.);
#193 = CARTESIAN_POINT('',(16.282877353873,0.5,0.));
#194 = CARTESIAN_POINT('',(17.355533894633,3.426855443591,0.));
#195 = CARTESIAN_POINT('',(19.216822317395,3.289188796157,0.));
#196 = CARTESIAN_POINT('',(20.364022646127,0.5,0.));
#197 = SURFACE_OF_LINEAR_EXTRUSION('',#198,#203);
#198 = B_SPLINE_CURVE_WITH_KNOTS('',3,(#199,#200,#201,#202),
  .UNSPECIFIED.,.F.,.F.,(4,4),(0.,50.078291514412),
  .PIECEWISE_BEZIER_KNOTS.);
#199 = CARTESIAN_POINT('',(16.282877353873,0.5,0.));
#200 = CARTESIAN_POINT('',(17.355533894633,3.426855443591,0.));
#201 = CARTESIAN_POINT('',(19.216822317395,3.289188796157,0.));
#202 = CARTESIAN_POINT('',(20.364022646127,0.5,0.));
#203 = VECTOR('',#204,1.);
#204 = DIRECTION('',(-0.,-0.,-1.));
#205 = ADVANCED_FACE('',(#206),#225,.T.);
#206 = FACE_BOUND('',#207,.T.);
#207 = EDGE_LOOP('',(#208,#216,#223,#224));
#208 = ORIENTED_EDGE('',*,*,#209,.T.);
#209 = EDGE_CURVE('',#174,#210,#212,.T.);
#210 = VERTEX_POINT('',#211);
#211 = CARTESIAN_POINT('',(16.282877353873,0.5,-0.45));
#212 = LINE('',#213,#214);
#213 = CARTESIAN_POINT('',(16.282877353873,0.5,0.));
#214 = VECTOR('',#215,1.);
#215 = DIRECTION('',(-0.,-0.,-1.));
#216 = ORIENTED_EDGE('',*,*,#217,.T.);
#217 = EDGE_CURVE('',#210,#77,#218,.T.);
#218 = B_SPLINE_CURVE_WITH_KNOTS('',3,(#219,#220,#221,#222),
  .UNSPECIFIED.,.F.,.F.,(4,4),(0.,50.078291514412),
  .PIECEWISE_BEZIER_KNOTS.);
#219 = CARTESIAN_POINT('',(16.282877353873,0.5,-0.45));
#220 = CARTESIAN_POINT('',(17.355533894633,3.426855443591,-0.45));
#221 = CARTESIAN_POINT('',(19.216822317395,3.289188796157,-0.45));
#222 = CARTESIAN_POINT('',(20.364022646127,0.5,-0.45));
#223 = ORIENTED_EDGE('',*,*,#76,.F.);
#224 = ORIENTED_EDGE('',*,*,#191,.F.);
#225 = SURFACE_OF_LINEAR_EXTRUSION('',#226,#231);
#226 = B_SPLINE_CURVE_WITH_KNOTS('',3,(#227,#228,#229,#230),
  .UNSPECIFIED.,.F.,.F.,(4,4),(0.,50.078291514412),
  .PIECEWISE_BEZIER_KNOTS.);
#227 = CARTESIAN_POINT('',(16.282877353873,0.5,0.));
#228 = CARTESIAN_POINT('',(17.355533894633,3.426855443591,0.));
#229 = CARTESIAN_POINT('',(19.216822317395,3.289188796157,0.));
#230 = CARTESIAN_POINT('',(20.364022646127,0.5,0.));
#231 = VECTOR('',#232,1.);
#232 = DIRECTION('',(0.,0.,1.));
#233 = ADVANCED_FACE('',(#234,#268),#293,.T.);
#234 = FACE_BOUND('',#235,.T.);
#235 = EDGE_LOOP('',(#236,#246,#254,#262));
#236 = ORIENTED_EDGE('',*,*,#237,.F.);
#237 = EDGE_CURVE('',#238,#240,#242,.T.);
#238 = VERTEX_POINT('',#239);
#239 = CARTESIAN_POINT('',(46.364027353873,-4.836522825521,7.));
#240 = VERTEX_POINT('',#241);
#241 = CARTESIAN_POINT('',(46.364027353873,5.163477174479,7.));
#242 = LINE('',#243,#244);
#243 = CARTESIAN_POINT('',(46.364027353873,-4.836522825521,7.));
#244 = VECTOR('',#245,1.);
#245 = DIRECTION('',(0.,1.,0.));
#246 = ORIENTED_EDGE('',*,*,#247,.F.);
#247 = EDGE_CURVE('',#248,#238,#250,.T.);
#248 = VERTEX_POINT('',#249);
#249 = CARTESIAN_POINT('',(46.364027353873,-4.836522825521,-1.5));
#250 = LINE('',#251,#252);
#251 = CARTESIAN_POINT('',(46.364027353873,-4.836522825521,0.));
#252 = VECTOR('',#253,1.);
#253 = DIRECTION('',(0.,0.,1.));
#254 = ORIENTED_EDGE('',*,*,#255,.T.);
#255 = EDGE_CURVE('',#248,#256,#258,.T.);
#256 = VERTEX_POINT('',#257);
#257 = CARTESIAN_POINT('',(46.364027353873,5.163477174479,-1.5));
#258 = LINE('',#259,#260);
#259 = CARTESIAN_POINT('',(46.364027353873,-4.836522825521,-1.5));
#260 = VECTOR('',#261,1.);
#261 = DIRECTION('',(0.,1.,0.));
#262 = ORIENTED_EDGE('',*,*,#263,.F.);
#263 = EDGE_CURVE('',#240,#256,#264,.T.);
#264 = LINE('',#265,#266);
#265 = CARTESIAN_POINT('',(46.364027353873,5.163477174479,0.));
#266 = VECTOR('',#267,1.);
#267 = DIRECTION('',(-0.,-0.,-1.));
#268 = FACE_BOUND('',#269,.T.);
#269 = EDGE_LOOP('',(#270,#280,#286,#287));
#270 = ORIENTED_EDGE('',*,*,#271,.F.);
#271 = EDGE_CURVE('',#272,#274,#276,.T.);
#272 = VERTEX_POINT('',#273);
#273 = CARTESIAN_POINT('',(46.364027353873,-0.5,0.45));
#274 = VERTEX_POINT('',#275);
#275 = CARTESIAN_POINT('',(46.364027353873,-0.5,-0.45));
#276 = LINE('',#277,#278);
#277 = CARTESIAN_POINT('',(46.364027353873,-0.5,0.));
#278 = VECTOR('',#279,1.);
#279 = DIRECTION('',(-0.,-0.,-1.));
#280 = ORIENTED_EDGE('',*,*,#281,.F.);
#281 = EDGE_CURVE('',#116,#272,#282,.T.);
#282 = LINE('',#283,#284);
#283 = CARTESIAN_POINT('',(46.364027353873,0.5,0.45));
#284 = VECTOR('',#285,1.);
#285 = DIRECTION('',(0.,-1.,0.));
#286 = ORIENTED_EDGE('',*,*,#113,.F.);
#287 = ORIENTED_EDGE('',*,*,#288,.T.);
#288 = EDGE_CURVE('',#114,#274,#289,.T.);
#289 = LINE('',#290,#291);
#290 = CARTESIAN_POINT('',(46.364027353873,0.5,-0.45));
#291 = VECTOR('',#292,1.);
#292 = DIRECTION('',(0.,-1.,0.));
#293 = PLANE('',#294);
#294 = AXIS2_PLACEMENT_3D('',#295,#296,#297);
#295 = CARTESIAN_POINT('',(46.364027353873,0.163477174479,2.75));
#296 = DIRECTION('',(1.,0.,0.));
#297 = DIRECTION('',(0.,0.,1.));
#298 = ADVANCED_FACE('',(#299),#333,.T.);
#299 = FACE_BOUND('',#300,.T.);
#300 = EDGE_LOOP('',(#301,#302,#310,#318,#326,#332));
#301 = ORIENTED_EDGE('',*,*,#173,.T.);
#302 = ORIENTED_EDGE('',*,*,#303,.F.);
#303 = EDGE_CURVE('',#304,#176,#306,.T.);
#304 = VERTEX_POINT('',#305);
#305 = CARTESIAN_POINT('',(14.282872646127,0.5,0.45));
#306 = LINE('',#307,#308);
#307 = CARTESIAN_POINT('',(15.282877353873,0.5,0.45));
#308 = VECTOR('',#309,1.);
#309 = DIRECTION('',(1.,0.,0.));
#310 = ORIENTED_EDGE('',*,*,#311,.F.);
#311 = EDGE_CURVE('',#312,#304,#314,.T.);
#312 = VERTEX_POINT('',#313);
#313 = CARTESIAN_POINT('',(14.282872646127,0.5,0.));
#314 = LINE('',#315,#316);
#315 = CARTESIAN_POINT('',(14.282872646127,0.5,0.));
#316 = VECTOR('',#317,1.);
#317 = DIRECTION('',(0.,0.,1.));
#318 = ORIENTED_EDGE('',*,*,#319,.T.);
#319 = EDGE_CURVE('',#312,#320,#322,.T.);
#320 = VERTEX_POINT('',#321);
#321 = CARTESIAN_POINT('',(14.282872646127,0.5,-0.45));
#322 = LINE('',#323,#324);
#323 = CARTESIAN_POINT('',(14.282872646127,0.5,0.));
#324 = VECTOR('',#325,1.);
#325 = DIRECTION('',(-0.,-0.,-1.));
#326 = ORIENTED_EDGE('',*,*,#327,.T.);
#327 = EDGE_CURVE('',#320,#210,#328,.T.);
#328 = LINE('',#329,#330);
#329 = CARTESIAN_POINT('',(14.282872646127,0.5,-0.45));
#330 = VECTOR('',#331,1.);
#331 = DIRECTION('',(1.,0.,0.));
#332 = ORIENTED_EDGE('',*,*,#209,.F.);
#333 = PLANE('',#334);
#334 = AXIS2_PLACEMENT_3D('',#335,#336,#337);
#335 = CARTESIAN_POINT('',(15.282875,0.5,0.));
#336 = DIRECTION('',(-0.,-1.,-0.));
#337 = DIRECTION('',(0.,0.,-1.));
#338 = ADVANCED_FACE('',(#339),#375,.F.);
#339 = FACE_BOUND('',#340,.F.);
#340 = EDGE_LOOP('',(#341,#351,#360,#368));
#341 = ORIENTED_EDGE('',*,*,#342,.T.);
#342 = EDGE_CURVE('',#343,#345,#347,.T.);
#343 = VERTEX_POINT('',#344);
#344 = CARTESIAN_POINT('',(-1.960572646127,0.5,0.));
#345 = VERTEX_POINT('',#346);
#346 = CARTESIAN_POINT('',(-1.960572646127,0.5,0.45));
#347 = LINE('',#348,#349);
#348 = CARTESIAN_POINT('',(-1.960572646127,0.5,0.));
#349 = VECTOR('',#350,1.);
#350 = DIRECTION('',(0.,0.,1.));
#351 = ORIENTED_EDGE('',*,*,#352,.T.);
#352 = EDGE_CURVE('',#345,#353,#355,.T.);
#353 = VERTEX_POINT('',#354);
#354 = CARTESIAN_POINT('',(2.120572646127,0.5,0.45));
#355 = B_SPLINE_CURVE_WITH_KNOTS('',3,(#356,#357,#358,#359),
  .UNSPECIFIED.,.F.,.F.,(4,4),(0.,50.078291514412),
  .PIECEWISE_BEZIER_KNOTS.);
#356 = CARTESIAN_POINT('',(-1.960572646127,0.5,0.45));
#357 = CARTESIAN_POINT('',(-0.887916105367,3.426855443591,0.45));
#358 = CARTESIAN_POINT('',(0.973372317395,3.289188796157,0.45));
#359 = CARTESIAN_POINT('',(2.120572646127,0.5,0.45));
#360 = ORIENTED_EDGE('',*,*,#361,.F.);
#361 = EDGE_CURVE('',#362,#353,#364,.T.);
#362 = VERTEX_POINT('',#363);
#363 = CARTESIAN_POINT('',(2.120572646127,0.5,0.));
#364 = LINE('',#365,#366);
#365 = CARTESIAN_POINT('',(2.120572646127,0.5,0.));
#366 = VECTOR('',#367,1.);
#367 = DIRECTION('',(0.,0.,1.));
#368 = ORIENTED_EDGE('',*,*,#369,.F.);
#369 = EDGE_CURVE('',#343,#362,#370,.T.);
#370 = B_SPLINE_CURVE_WITH_KNOTS('',3,(#371,#372,#373,#374),
  .UNSPECIFIED.,.F.,.F.,(4,4),(0.,50.078291514412),
  .PIECEWISE_BEZIER_KNOTS.);
#371 = CARTESIAN_POINT('',(-1.960572646127,0.5,0.));
#372 = CARTESIAN_POINT('',(-0.887916105367,3.426855443591,0.));
#373 = CARTESIAN_POINT('',(0.973372317395,3.289188796157,0.));
#374 = CARTESIAN_POINT('',(2.120572646127,0.5,0.));
#375 = SURFACE_OF_LINEAR_EXTRUSION('',#376,#381);
#376 = B_SPLINE_CURVE_WITH_KNOTS('',3,(#377,#378,#379,#380),
  .UNSPECIFIED.,.F.,.F.,(4,4),(0.,50.078291514412),
  .PIECEWISE_BEZIER_KNOTS.);
#377 = CARTESIAN_POINT('',(-1.960572646127,0.5,0.));
#378 = CARTESIAN_POINT('',(-0.887916105367,3.426855443591,0.));
#379 = CARTESIAN_POINT('',(0.973372317395,3.289188796157,0.));
#380 = CARTESIAN_POINT('',(2.120572646127,0.5,0.));
#381 = VECTOR('',#382,1.);
#382 = DIRECTION('',(-0.,-0.,-1.));
#383 = ADVANCED_FACE('',(#384),#425,.T.);
#384 = FACE_BOUND('',#385,.T.);
#385 = EDGE_LOOP('',(#386,#394,#402,#410,#418,#424));
#386 = ORIENTED_EDGE('',*,*,#387,.T.);
#387 = EDGE_CURVE('',#362,#388,#390,.T.);
#388 = VERTEX_POINT('',#389);
#389 = CARTESIAN_POINT('',(2.120572646127,0.5,-0.45));
#390 = LINE('',#391,#392);
#391 = CARTESIAN_POINT('',(2.120572646127,0.5,0.));
#392 = VECTOR('',#393,1.);
#393 = DIRECTION('',(-0.,-0.,-1.));
#394 = ORIENTED_EDGE('',*,*,#395,.T.);
#395 = EDGE_CURVE('',#388,#396,#398,.T.);
#396 = VERTEX_POINT('',#397);
#397 = CARTESIAN_POINT('',(4.120577353873,0.5,-0.45));
#398 = LINE('',#399,#400);
#399 = CARTESIAN_POINT('',(2.120572646127,0.5,-0.45));
#400 = VECTOR('',#401,1.);
#401 = DIRECTION('',(1.,0.,0.));
#402 = ORIENTED_EDGE('',*,*,#403,.F.);
#403 = EDGE_CURVE('',#404,#396,#406,.T.);
#404 = VERTEX_POINT('',#405);
#405 = CARTESIAN_POINT('',(4.120577353873,0.5,0.));
#406 = LINE('',#407,#408);
#407 = CARTESIAN_POINT('',(4.120577353873,0.5,0.));
#408 = VECTOR('',#409,1.);
#409 = DIRECTION('',(-0.,-0.,-1.));
#410 = ORIENTED_EDGE('',*,*,#411,.T.);
#411 = EDGE_CURVE('',#404,#412,#414,.T.);
#412 = VERTEX_POINT('',#413);
#413 = CARTESIAN_POINT('',(4.120577353873,0.5,0.45));
#414 = LINE('',#415,#416);
#415 = CARTESIAN_POINT('',(4.120577353873,0.5,0.));
#416 = VECTOR('',#417,1.);
#417 = DIRECTION('',(0.,0.,1.));
#418 = ORIENTED_EDGE('',*,*,#419,.F.);
#419 = EDGE_CURVE('',#353,#412,#420,.T.);
#420 = LINE('',#421,#422);
#421 = CARTESIAN_POINT('',(3.120577353873,0.5,0.45));
#422 = VECTOR('',#423,1.);
#423 = DIRECTION('',(1.,0.,0.));
#424 = ORIENTED_EDGE('',*,*,#361,.F.);
#425 = PLANE('',#426);
#426 = AXIS2_PLACEMENT_3D('',#427,#428,#429);
#427 = CARTESIAN_POINT('',(3.120575,0.5,0.));
#428 = DIRECTION('',(-0.,-1.,-0.));
#429 = DIRECTION('',(0.,0.,-1.));
#430 = ADVANCED_FACE('',(#431),#458,.F.);
#431 = FACE_BOUND('',#432,.F.);
#432 = EDGE_LOOP('',(#433,#434,#443,#451));
#433 = ORIENTED_EDGE('',*,*,#411,.T.);
#434 = ORIENTED_EDGE('',*,*,#435,.T.);
#435 = EDGE_CURVE('',#412,#436,#438,.T.);
#436 = VERTEX_POINT('',#437);
#437 = CARTESIAN_POINT('',(8.201722646127,0.5,0.45));
#438 = B_SPLINE_CURVE_WITH_KNOTS('',3,(#439,#440,#441,#442),
  .UNSPECIFIED.,.F.,.F.,(4,4),(0.,50.078291514412),
  .PIECEWISE_BEZIER_KNOTS.);
#439 = CARTESIAN_POINT('',(4.120577353873,0.5,0.45));
#440 = CARTESIAN_POINT('',(5.193233894633,3.426855443591,0.45));
#441 = CARTESIAN_POINT('',(7.054522317395,3.289188796157,0.45));
#442 = CARTESIAN_POINT('',(8.201722646127,0.5,0.45));
#443 = ORIENTED_EDGE('',*,*,#444,.F.);
#444 = EDGE_CURVE('',#445,#436,#447,.T.);
#445 = VERTEX_POINT('',#446);
#446 = CARTESIAN_POINT('',(8.201722646127,0.5,0.));
#447 = LINE('',#448,#449);
#448 = CARTESIAN_POINT('',(8.201722646127,0.5,0.));
#449 = VECTOR('',#450,1.);
#450 = DIRECTION('',(0.,0.,1.));
#451 = ORIENTED_EDGE('',*,*,#452,.F.);
#452 = EDGE_CURVE('',#404,#445,#453,.T.);
#453 = B_SPLINE_CURVE_WITH_KNOTS('',3,(#454,#455,#456,#457),
  .UNSPECIFIED.,.F.,.F.,(4,4),(0.,50.078291514412),
  .PIECEWISE_BEZIER_KNOTS.);
#454 = CARTESIAN_POINT('',(4.120577353873,0.5,0.));
#455 = CARTESIAN_POINT('',(5.193233894633,3.426855443591,0.));
#456 = CARTESIAN_POINT('',(7.054522317395,3.289188796157,0.));
#457 = CARTESIAN_POINT('',(8.201722646127,0.5,0.));
#458 = SURFACE_OF_LINEAR_EXTRUSION('',#459,#464);
#459 = B_SPLINE_CURVE_WITH_KNOTS('',3,(#460,#461,#462,#463),
  .UNSPECIFIED.,.F.,.F.,(4,4),(0.,50.078291514412),
  .PIECEWISE_BEZIER_KNOTS.);
#460 = CARTESIAN_POINT('',(4.120577353873,0.5,0.));
#461 = CARTESIAN_POINT('',(5.193233894633,3.426855443591,0.));
#462 = CARTESIAN_POINT('',(7.054522317395,3.289188796157,0.));
#463 = CARTESIAN_POINT('',(8.201722646127,0.5,0.));
#464 = VECTOR('',#465,1.);
#465 = DIRECTION('',(-0.,-0.,-1.));
#466 = ADVANCED_FACE('',(#467),#508,.T.);
#467 = FACE_BOUND('',#468,.T.);
#468 = EDGE_LOOP('',(#469,#477,#485,#493,#501,#507));
#469 = ORIENTED_EDGE('',*,*,#470,.T.);
#470 = EDGE_CURVE('',#445,#471,#473,.T.);
#471 = VERTEX_POINT('',#472);
#472 = CARTESIAN_POINT('',(8.201722646127,0.5,-0.45));
#473 = LINE('',#474,#475);
#474 = CARTESIAN_POINT('',(8.201722646127,0.5,0.));
#475 = VECTOR('',#476,1.);
#476 = DIRECTION('',(-0.,-0.,-1.));
#477 = ORIENTED_EDGE('',*,*,#478,.T.);
#478 = EDGE_CURVE('',#471,#479,#481,.T.);
#479 = VERTEX_POINT('',#480);
#480 = CARTESIAN_POINT('',(10.201727353873,0.5,-0.45));
#481 = LINE('',#482,#483);
#482 = CARTESIAN_POINT('',(8.201722646127,0.5,-0.45));
#483 = VECTOR('',#484,1.);
#484 = DIRECTION('',(1.,0.,0.));
#485 = ORIENTED_EDGE('',*,*,#486,.F.);
#486 = EDGE_CURVE('',#487,#479,#489,.T.);
#487 = VERTEX_POINT('',#488);
#488 = CARTESIAN_POINT('',(10.201727353873,0.5,0.));
#489 = LINE('',#490,#491);
#490 = CARTESIAN_POINT('',(10.201727353873,0.5,0.));
#491 = VECTOR('',#492,1.);
#492 = DIRECTION('',(-0.,-0.,-1.));
#493 = ORIENTED_EDGE('',*,*,#494,.T.);
#494 = EDGE_CURVE('',#487,#495,#497,.T.);
#495 = VERTEX_POINT('',#496);
#496 = CARTESIAN_POINT('',(10.201727353873,0.5,0.45));
#497 = LINE('',#498,#499);
#498 = CARTESIAN_POINT('',(10.201727353873,0.5,0.));
#499 = VECTOR('',#500,1.);
#500 = DIRECTION('',(0.,0.,1.));
#501 = ORIENTED_EDGE('',*,*,#502,.F.);
#502 = EDGE_CURVE('',#436,#495,#503,.T.);
#503 = LINE('',#504,#505);
#504 = CARTESIAN_POINT('',(9.201727353873,0.5,0.45));
#505 = VECTOR('',#506,1.);
#506 = DIRECTION('',(1.,0.,0.));
#507 = ORIENTED_EDGE('',*,*,#444,.F.);
#508 = PLANE('',#509);
#509 = AXIS2_PLACEMENT_3D('',#510,#511,#512);
#510 = CARTESIAN_POINT('',(9.201725,0.5,0.));
#511 = DIRECTION('',(-0.,-1.,-0.));
#512 = DIRECTION('',(0.,0.,-1.));
#513 = ADVANCED_FACE('',(#514),#532,.F.);
#514 = FACE_BOUND('',#515,.F.);
#515 = EDGE_LOOP('',(#516,#517,#524,#525));
#516 = ORIENTED_EDGE('',*,*,#494,.T.);
#517 = ORIENTED_EDGE('',*,*,#518,.T.);
#518 = EDGE_CURVE('',#495,#304,#519,.T.);
#519 = B_SPLINE_CURVE_WITH_KNOTS('',3,(#520,#521,#522,#523),
  .UNSPECIFIED.,.F.,.F.,(4,4),(0.,50.078291514412),
  .PIECEWISE_BEZIER_KNOTS.);
#520 = CARTESIAN_POINT('',(10.201727353873,0.5,0.45));
#521 = CARTESIAN_POINT('',(11.274383894633,3.426855443591,0.45));
#522 = CARTESIAN_POINT('',(13.135672317395,3.289188796157,0.45));
#523 = CARTESIAN_POINT('',(14.282872646127,0.5,0.45));
#524 = ORIENTED_EDGE('',*,*,#311,.F.);
#525 = ORIENTED_EDGE('',*,*,#526,.F.);
#526 = EDGE_CURVE('',#487,#312,#527,.T.);
#527 = B_SPLINE_CURVE_WITH_KNOTS('',3,(#528,#529,#530,#531),
  .UNSPECIFIED.,.F.,.F.,(4,4),(0.,50.078291514412),
  .PIECEWISE_BEZIER_KNOTS.);
#528 = CARTESIAN_POINT('',(10.201727353873,0.5,0.));
#529 = CARTESIAN_POINT('',(11.274383894633,3.426855443591,0.));
#530 = CARTESIAN_POINT('',(13.135672317395,3.289188796157,0.));
#531 = CARTESIAN_POINT('',(14.282872646127,0.5,0.));
#532 = SURFACE_OF_LINEAR_EXTRUSION('',#533,#538);
#533 = B_SPLINE_CURVE_WITH_KNOTS('',3,(#534,#535,#536,#537),
  .UNSPECIFIED.,.F.,.F.,(4,4),(0.,50.078291514412),
  .PIECEWISE_BEZIER_KNOTS.);
#534 = CARTESIAN_POINT('',(10.201727353873,0.5,0.));
#535 = CARTESIAN_POINT('',(11.274383894633,3.426855443591,0.));
#536 = CARTESIAN_POINT('',(13.135672317395,3.289188796157,0.));
#537 = CARTESIAN_POINT('',(14.282872646127,0.5,0.));
#538 = VECTOR('',#539,1.);
#539 = DIRECTION('',(-0.,-0.,-1.));
#540 = ADVANCED_FACE('',(#541),#574,.T.);
#541 = FACE_BOUND('',#542,.T.);
#542 = EDGE_LOOP('',(#543,#544,#552,#560,#568));
#543 = ORIENTED_EDGE('',*,*,#271,.T.);
#544 = ORIENTED_EDGE('',*,*,#545,.T.);
#545 = EDGE_CURVE('',#274,#546,#548,.T.);
#546 = VERTEX_POINT('',#547);
#547 = CARTESIAN_POINT('',(42.291532138892,-0.5,-0.45));
#548 = LINE('',#549,#550);
#549 = CARTESIAN_POINT('',(46.364027353873,-0.5,-0.45));
#550 = VECTOR('',#551,1.);
#551 = DIRECTION('',(-1.,0.,0.));
#552 = ORIENTED_EDGE('',*,*,#553,.F.);
#553 = EDGE_CURVE('',#554,#546,#556,.T.);
#554 = VERTEX_POINT('',#555);
#555 = CARTESIAN_POINT('',(42.291532138892,-0.5,0.));
#556 = LINE('',#557,#558);
#557 = CARTESIAN_POINT('',(42.291532138892,-0.5,0.));
#558 = VECTOR('',#559,1.);
#559 = DIRECTION('',(-0.,-0.,-1.));
#560 = ORIENTED_EDGE('',*,*,#561,.T.);
#561 = EDGE_CURVE('',#554,#562,#564,.T.);
#562 = VERTEX_POINT('',#563);
#563 = CARTESIAN_POINT('',(42.291532138892,-0.5,0.45));
#564 = LINE('',#565,#566);
#565 = CARTESIAN_POINT('',(42.291532138892,-0.5,0.));
#566 = VECTOR('',#567,1.);
#567 = DIRECTION('',(0.,0.,1.));
#568 = ORIENTED_EDGE('',*,*,#569,.F.);
#569 = EDGE_CURVE('',#272,#562,#570,.T.);
#570 = LINE('',#571,#572);
#571 = CARTESIAN_POINT('',(46.364027353873,-0.5,0.45));
#572 = VECTOR('',#573,1.);
#573 = DIRECTION('',(-1.,0.,0.));
#574 = PLANE('',#575);
#575 = AXIS2_PLACEMENT_3D('',#576,#577,#578);
#576 = CARTESIAN_POINT('',(44.327779746383,-0.5,0.));
#577 = DIRECTION('',(0.,1.,0.));
#578 = DIRECTION('',(0.,0.,1.));
#579 = ADVANCED_FACE('',(#580),#616,.T.);
#580 = FACE_BOUND('',#581,.T.);
#581 = EDGE_LOOP('',(#582,#592,#601,#609));
#582 = ORIENTED_EDGE('',*,*,#583,.T.);
#583 = EDGE_CURVE('',#584,#586,#588,.T.);
#584 = VERTEX_POINT('',#585);
#585 = CARTESIAN_POINT('',(-1.960572646127,-0.5,0.));
#586 = VERTEX_POINT('',#587);
#587 = CARTESIAN_POINT('',(-1.960572646127,-0.5,0.45));
#588 = LINE('',#589,#590);
#589 = CARTESIAN_POINT('',(-1.960572646127,-0.5,0.));
#590 = VECTOR('',#591,1.);
#591 = DIRECTION('',(0.,0.,1.));
#592 = ORIENTED_EDGE('',*,*,#593,.T.);
#593 = EDGE_CURVE('',#586,#594,#596,.T.);
#594 = VERTEX_POINT('',#595);
#595 = CARTESIAN_POINT('',(2.120572646127,-0.5,0.45));
#596 = B_SPLINE_CURVE_WITH_KNOTS('',3,(#597,#598,#599,#600),
  .UNSPECIFIED.,.F.,.F.,(4,4),(0.,1.),.PIECEWISE_BEZIER_KNOTS.);
#597 = CARTESIAN_POINT('',(-1.960572646127,-0.5,0.45));
#598 = CARTESIAN_POINT('',(-0.887916105367,-2.980764226408,0.45));
#599 = CARTESIAN_POINT('',(0.973372317395,-2.863399903426,0.45));
#600 = CARTESIAN_POINT('',(2.120572646127,-0.5,0.45));
#601 = ORIENTED_EDGE('',*,*,#602,.F.);
#602 = EDGE_CURVE('',#603,#594,#605,.T.);
#603 = VERTEX_POINT('',#604);
#604 = CARTESIAN_POINT('',(2.120572646127,-0.5,0.));
#605 = LINE('',#606,#607);
#606 = CARTESIAN_POINT('',(2.120572646127,-0.5,0.));
#607 = VECTOR('',#608,1.);
#608 = DIRECTION('',(0.,0.,1.));
#609 = ORIENTED_EDGE('',*,*,#610,.F.);
#610 = EDGE_CURVE('',#584,#603,#611,.T.);
#611 = B_SPLINE_CURVE_WITH_KNOTS('',3,(#612,#613,#614,#615),
  .UNSPECIFIED.,.F.,.F.,(4,4),(0.,1.),.PIECEWISE_BEZIER_KNOTS.);
#612 = CARTESIAN_POINT('',(-1.960572646127,-0.5,0.));
#613 = CARTESIAN_POINT('',(-0.887916105367,-2.980764226408,0.));
#614 = CARTESIAN_POINT('',(0.973372317395,-2.863399903426,0.));
#615 = CARTESIAN_POINT('',(2.120572646127,-0.5,0.));
#616 = SURFACE_OF_LINEAR_EXTRUSION('',#617,#622);
#617 = B_SPLINE_CURVE_WITH_KNOTS('',3,(#618,#619,#620,#621),
  .UNSPECIFIED.,.F.,.F.,(4,4),(0.,1.),.PIECEWISE_BEZIER_KNOTS.);
#618 = CARTESIAN_POINT('',(-1.960572646127,-0.5,0.));
#619 = CARTESIAN_POINT('',(-0.887916105367,-2.980764226408,0.));
#620 = CARTESIAN_POINT('',(0.973372317395,-2.863399903426,0.));
#621 = CARTESIAN_POINT('',(2.120572646127,-0.5,0.));
#622 = VECTOR('',#623,1.);
#623 = DIRECTION('',(-0.,-0.,-1.));
#624 = ADVANCED_FACE('',(#625),#666,.T.);
#625 = FACE_BOUND('',#626,.T.);
#626 = EDGE_LOOP('',(#627,#635,#636,#644,#652,#660));
#627 = ORIENTED_EDGE('',*,*,#628,.F.);
#628 = EDGE_CURVE('',#603,#629,#631,.T.);
#629 = VERTEX_POINT('',#630);
#630 = CARTESIAN_POINT('',(2.120572646127,-0.5,-0.45));
#631 = LINE('',#632,#633);
#632 = CARTESIAN_POINT('',(2.120572646127,-0.5,0.));
#633 = VECTOR('',#634,1.);
#634 = DIRECTION('',(-0.,-0.,-1.));
#635 = ORIENTED_EDGE('',*,*,#602,.T.);
#636 = ORIENTED_EDGE('',*,*,#637,.T.);
#637 = EDGE_CURVE('',#594,#638,#640,.T.);
#638 = VERTEX_POINT('',#639);
#639 = CARTESIAN_POINT('',(4.120577353873,-0.5,0.45));
#640 = LINE('',#641,#642);
#641 = CARTESIAN_POINT('',(2.120572646127,-0.5,0.45));
#642 = VECTOR('',#643,1.);
#643 = DIRECTION('',(1.,0.,0.));
#644 = ORIENTED_EDGE('',*,*,#645,.F.);
#645 = EDGE_CURVE('',#646,#638,#648,.T.);
#646 = VERTEX_POINT('',#647);
#647 = CARTESIAN_POINT('',(4.120577353873,-0.5,0.));
#648 = LINE('',#649,#650);
#649 = CARTESIAN_POINT('',(4.120577353873,-0.5,0.));
#650 = VECTOR('',#651,1.);
#651 = DIRECTION('',(0.,0.,1.));
#652 = ORIENTED_EDGE('',*,*,#653,.T.);
#653 = EDGE_CURVE('',#646,#654,#656,.T.);
#654 = VERTEX_POINT('',#655);
#655 = CARTESIAN_POINT('',(4.120577353873,-0.5,-0.45));
#656 = LINE('',#657,#658);
#657 = CARTESIAN_POINT('',(4.120577353873,-0.5,0.));
#658 = VECTOR('',#659,1.);
#659 = DIRECTION('',(-0.,-0.,-1.));
#660 = ORIENTED_EDGE('',*,*,#661,.F.);
#661 = EDGE_CURVE('',#629,#654,#662,.T.);
#662 = LINE('',#663,#664);
#663 = CARTESIAN_POINT('',(2.120572646127,-0.5,-0.45));
#664 = VECTOR('',#665,1.);
#665 = DIRECTION('',(1.,0.,0.));
#666 = PLANE('',#667);
#667 = AXIS2_PLACEMENT_3D('',#668,#669,#670);
#668 = CARTESIAN_POINT('',(3.120575,-0.5,-1.E-17));
#669 = DIRECTION('',(0.,1.,0.));
#670 = DIRECTION('',(0.,0.,1.));
#671 = ADVANCED_FACE('',(#672),#699,.T.);
#672 = FACE_BOUND('',#673,.T.);
#673 = EDGE_LOOP('',(#674,#675,#684,#692));
#674 = ORIENTED_EDGE('',*,*,#645,.T.);
#675 = ORIENTED_EDGE('',*,*,#676,.T.);
#676 = EDGE_CURVE('',#638,#677,#679,.T.);
#677 = VERTEX_POINT('',#678);
#678 = CARTESIAN_POINT('',(8.201722646127,-0.5,0.45));
#679 = B_SPLINE_CURVE_WITH_KNOTS('',3,(#680,#681,#682,#683),
  .UNSPECIFIED.,.F.,.F.,(4,4),(0.,1.),.PIECEWISE_BEZIER_KNOTS.);
#680 = CARTESIAN_POINT('',(4.120577353873,-0.5,0.45));
#681 = CARTESIAN_POINT('',(5.193233894633,-2.980764226408,0.45));
#682 = CARTESIAN_POINT('',(7.054522317395,-2.863399903426,0.45));
#683 = CARTESIAN_POINT('',(8.201722646127,-0.5,0.45));
#684 = ORIENTED_EDGE('',*,*,#685,.F.);
#685 = EDGE_CURVE('',#686,#677,#688,.T.);
#686 = VERTEX_POINT('',#687);
#687 = CARTESIAN_POINT('',(8.201722646127,-0.5,0.));
#688 = LINE('',#689,#690);
#689 = CARTESIAN_POINT('',(8.201722646127,-0.5,0.));
#690 = VECTOR('',#691,1.);
#691 = DIRECTION('',(0.,0.,1.));
#692 = ORIENTED_EDGE('',*,*,#693,.F.);
#693 = EDGE_CURVE('',#646,#686,#694,.T.);
#694 = B_SPLINE_CURVE_WITH_KNOTS('',3,(#695,#696,#697,#698),
  .UNSPECIFIED.,.F.,.F.,(4,4),(0.,1.),.PIECEWISE_BEZIER_KNOTS.);
#695 = CARTESIAN_POINT('',(4.120577353873,-0.5,0.));
#696 = CARTESIAN_POINT('',(5.193233894633,-2.980764226408,0.));
#697 = CARTESIAN_POINT('',(7.054522317395,-2.863399903426,0.));
#698 = CARTESIAN_POINT('',(8.201722646127,-0.5,0.));
#699 = SURFACE_OF_LINEAR_EXTRUSION('',#700,#705);
#700 = B_SPLINE_CURVE_WITH_KNOTS('',3,(#701,#702,#703,#704),
  .UNSPECIFIED.,.F.,.F.,(4,4),(0.,1.),.PIECEWISE_BEZIER_KNOTS.);
#701 = CARTESIAN_POINT('',(4.120577353873,-0.5,0.));
#702 = CARTESIAN_POINT('',(5.193233894633,-2.980764226408,0.));
#703 = CARTESIAN_POINT('',(7.054522317395,-2.863399903426,0.));
#704 = CARTESIAN_POINT('',(8.201722646127,-0.5,0.));
#705 = VECTOR('',#706,1.);
#706 = DIRECTION('',(-0.,-0.,-1.));
#707 = ADVANCED_FACE('',(#708),#749,.T.);
#708 = FACE_BOUND('',#709,.T.);
#709 = EDGE_LOOP('',(#710,#718,#719,#727,#735,#743));
#710 = ORIENTED_EDGE('',*,*,#711,.F.);
#711 = EDGE_CURVE('',#686,#712,#714,.T.);
#712 = VERTEX_POINT('',#713);
#713 = CARTESIAN_POINT('',(8.201722646127,-0.5,-0.45));
#714 = LINE('',#715,#716);
#715 = CARTESIAN_POINT('',(8.201722646127,-0.5,0.));
#716 = VECTOR('',#717,1.);
#717 = DIRECTION('',(-0.,-0.,-1.));
#718 = ORIENTED_EDGE('',*,*,#685,.T.);
#719 = ORIENTED_EDGE('',*,*,#720,.T.);
#720 = EDGE_CURVE('',#677,#721,#723,.T.);
#721 = VERTEX_POINT('',#722);
#722 = CARTESIAN_POINT('',(10.201727353873,-0.5,0.45));
#723 = LINE('',#724,#725);
#724 = CARTESIAN_POINT('',(8.201722646127,-0.5,0.45));
#725 = VECTOR('',#726,1.);
#726 = DIRECTION('',(1.,0.,0.));
#727 = ORIENTED_EDGE('',*,*,#728,.F.);
#728 = EDGE_CURVE('',#729,#721,#731,.T.);
#729 = VERTEX_POINT('',#730);
#730 = CARTESIAN_POINT('',(10.201727353873,-0.5,0.));
#731 = LINE('',#732,#733);
#732 = CARTESIAN_POINT('',(10.201727353873,-0.5,0.));
#733 = VECTOR('',#734,1.);
#734 = DIRECTION('',(0.,0.,1.));
#735 = ORIENTED_EDGE('',*,*,#736,.T.);
#736 = EDGE_CURVE('',#729,#737,#739,.T.);
#737 = VERTEX_POINT('',#738);
#738 = CARTESIAN_POINT('',(10.201727353873,-0.5,-0.45));
#739 = LINE('',#740,#741);
#740 = CARTESIAN_POINT('',(10.201727353873,-0.5,0.));
#741 = VECTOR('',#742,1.);
#742 = DIRECTION('',(-0.,-0.,-1.));
#743 = ORIENTED_EDGE('',*,*,#744,.F.);
#744 = EDGE_CURVE('',#712,#737,#745,.T.);
#745 = LINE('',#746,#747);
#746 = CARTESIAN_POINT('',(8.201722646127,-0.5,-0.45));
#747 = VECTOR('',#748,1.);
#748 = DIRECTION('',(1.,0.,0.));
#749 = PLANE('',#750);
#750 = AXIS2_PLACEMENT_3D('',#751,#752,#753);
#751 = CARTESIAN_POINT('',(9.201725,-0.5,-1.E-17));
#752 = DIRECTION('',(0.,1.,0.));
#753 = DIRECTION('',(0.,0.,1.));
#754 = ADVANCED_FACE('',(#755),#782,.T.);
#755 = FACE_BOUND('',#756,.T.);
#756 = EDGE_LOOP('',(#757,#758,#767,#775));
#757 = ORIENTED_EDGE('',*,*,#728,.T.);
#758 = ORIENTED_EDGE('',*,*,#759,.T.);
#759 = EDGE_CURVE('',#721,#760,#762,.T.);
#760 = VERTEX_POINT('',#761);
#761 = CARTESIAN_POINT('',(14.282872646127,-0.5,0.45));
#762 = B_SPLINE_CURVE_WITH_KNOTS('',3,(#763,#764,#765,#766),
  .UNSPECIFIED.,.F.,.F.,(4,4),(0.,1.),.PIECEWISE_BEZIER_KNOTS.);
#763 = CARTESIAN_POINT('',(10.201727353873,-0.5,0.45));
#764 = CARTESIAN_POINT('',(11.274383894633,-2.980764226408,0.45));
#765 = CARTESIAN_POINT('',(13.135672317395,-2.863399903426,0.45));
#766 = CARTESIAN_POINT('',(14.282872646127,-0.5,0.45));
#767 = ORIENTED_EDGE('',*,*,#768,.F.);
#768 = EDGE_CURVE('',#769,#760,#771,.T.);
#769 = VERTEX_POINT('',#770);
#770 = CARTESIAN_POINT('',(14.282872646127,-0.5,0.));
#771 = LINE('',#772,#773);
#772 = CARTESIAN_POINT('',(14.282872646127,-0.5,0.));
#773 = VECTOR('',#774,1.);
#774 = DIRECTION('',(0.,0.,1.));
#775 = ORIENTED_EDGE('',*,*,#776,.F.);
#776 = EDGE_CURVE('',#729,#769,#777,.T.);
#777 = B_SPLINE_CURVE_WITH_KNOTS('',3,(#778,#779,#780,#781),
  .UNSPECIFIED.,.F.,.F.,(4,4),(0.,1.),.PIECEWISE_BEZIER_KNOTS.);
#778 = CARTESIAN_POINT('',(10.201727353873,-0.5,0.));
#779 = CARTESIAN_POINT('',(11.274383894633,-2.980764226408,0.));
#780 = CARTESIAN_POINT('',(13.135672317395,-2.863399903426,0.));
#781 = CARTESIAN_POINT('',(14.282872646127,-0.5,0.));
#782 = SURFACE_OF_LINEAR_EXTRUSION('',#783,#788);
#783 = B_SPLINE_CURVE_WITH_KNOTS('',3,(#784,#785,#786,#787),
  .UNSPECIFIED.,.F.,.F.,(4,4),(0.,1.),.PIECEWISE_BEZIER_KNOTS.);
#784 = CARTESIAN_POINT('',(10.201727353873,-0.5,0.));
#785 = CARTESIAN_POINT('',(11.274383894633,-2.980764226408,0.));
#786 = CARTESIAN_POINT('',(13.135672317395,-2.863399903426,0.));
#787 = CARTESIAN_POINT('',(14.282872646127,-0.5,0.));
#788 = VECTOR('',#789,1.);
#789 = DIRECTION('',(-0.,-0.,-1.));
#790 = ADVANCED_FACE('',(#791),#832,.T.);
#791 = FACE_BOUND('',#792,.T.);
#792 = EDGE_LOOP('',(#793,#803,#811,#819,#825,#826));
#793 = ORIENTED_EDGE('',*,*,#794,.F.);
#794 = EDGE_CURVE('',#795,#797,#799,.T.);
#795 = VERTEX_POINT('',#796);
#796 = CARTESIAN_POINT('',(16.282877353873,-0.5,0.));
#797 = VERTEX_POINT('',#798);
#798 = CARTESIAN_POINT('',(16.282877353873,-0.5,0.45));
#799 = LINE('',#800,#801);
#800 = CARTESIAN_POINT('',(16.282877353873,-0.5,0.));
#801 = VECTOR('',#802,1.);
#802 = DIRECTION('',(0.,0.,1.));
#803 = ORIENTED_EDGE('',*,*,#804,.T.);
#804 = EDGE_CURVE('',#795,#805,#807,.T.);
#805 = VERTEX_POINT('',#806);
#806 = CARTESIAN_POINT('',(16.282877353873,-0.5,-0.45));
#807 = LINE('',#808,#809);
#808 = CARTESIAN_POINT('',(16.282877353873,-0.5,0.));
#809 = VECTOR('',#810,1.);
#810 = DIRECTION('',(-0.,-0.,-1.));
#811 = ORIENTED_EDGE('',*,*,#812,.F.);
#812 = EDGE_CURVE('',#813,#805,#815,.T.);
#813 = VERTEX_POINT('',#814);
#814 = CARTESIAN_POINT('',(14.282872646127,-0.5,-0.45));
#815 = LINE('',#816,#817);
#816 = CARTESIAN_POINT('',(14.282872646127,-0.5,-0.45));
#817 = VECTOR('',#818,1.);
#818 = DIRECTION('',(1.,0.,0.));
#819 = ORIENTED_EDGE('',*,*,#820,.F.);
#820 = EDGE_CURVE('',#769,#813,#821,.T.);
#821 = LINE('',#822,#823);
#822 = CARTESIAN_POINT('',(14.282872646127,-0.5,0.));
#823 = VECTOR('',#824,1.);
#824 = DIRECTION('',(-0.,-0.,-1.));
#825 = ORIENTED_EDGE('',*,*,#768,.T.);
#826 = ORIENTED_EDGE('',*,*,#827,.T.);
#827 = EDGE_CURVE('',#760,#797,#828,.T.);
#828 = LINE('',#829,#830);
#829 = CARTESIAN_POINT('',(14.282872646127,-0.5,0.45));
#830 = VECTOR('',#831,1.);
#831 = DIRECTION('',(1.,0.,0.));
#832 = PLANE('',#833);
#833 = AXIS2_PLACEMENT_3D('',#834,#835,#836);
#834 = CARTESIAN_POINT('',(15.282875,-0.5,1.E-17));
#835 = DIRECTION('',(0.,1.,0.));
#836 = DIRECTION('',(0.,0.,1.));
#837 = ADVANCED_FACE('',(#838),#865,.T.);
#838 = FACE_BOUND('',#839,.T.);
#839 = EDGE_LOOP('',(#840,#841,#850,#858));
#840 = ORIENTED_EDGE('',*,*,#794,.T.);
#841 = ORIENTED_EDGE('',*,*,#842,.T.);
#842 = EDGE_CURVE('',#797,#843,#845,.T.);
#843 = VERTEX_POINT('',#844);
#844 = CARTESIAN_POINT('',(20.364022646127,-0.5,0.45));
#845 = B_SPLINE_CURVE_WITH_KNOTS('',3,(#846,#847,#848,#849),
  .UNSPECIFIED.,.F.,.F.,(4,4),(0.,1.),.PIECEWISE_BEZIER_KNOTS.);
#846 = CARTESIAN_POINT('',(16.282877353873,-0.5,0.45));
#847 = CARTESIAN_POINT('',(17.355533894633,-2.980764226408,0.45));
#848 = CARTESIAN_POINT('',(19.216822317395,-2.863399903426,0.45));
#849 = CARTESIAN_POINT('',(20.364022646127,-0.5,0.45));
#850 = ORIENTED_EDGE('',*,*,#851,.F.);
#851 = EDGE_CURVE('',#852,#843,#854,.T.);
#852 = VERTEX_POINT('',#853);
#853 = CARTESIAN_POINT('',(20.364022646127,-0.5,0.));
#854 = LINE('',#855,#856);
#855 = CARTESIAN_POINT('',(20.364022646127,-0.5,0.));
#856 = VECTOR('',#857,1.);
#857 = DIRECTION('',(0.,0.,1.));
#858 = ORIENTED_EDGE('',*,*,#859,.F.);
#859 = EDGE_CURVE('',#795,#852,#860,.T.);
#860 = B_SPLINE_CURVE_WITH_KNOTS('',3,(#861,#862,#863,#864),
  .UNSPECIFIED.,.F.,.F.,(4,4),(0.,1.),.PIECEWISE_BEZIER_KNOTS.);
#861 = CARTESIAN_POINT('',(16.282877353873,-0.5,0.));
#862 = CARTESIAN_POINT('',(17.355533894633,-2.980764226408,0.));
#863 = CARTESIAN_POINT('',(19.216822317395,-2.863399903426,0.));
#864 = CARTESIAN_POINT('',(20.364022646127,-0.5,0.));
#865 = SURFACE_OF_LINEAR_EXTRUSION('',#866,#871);
#866 = B_SPLINE_CURVE_WITH_KNOTS('',3,(#867,#868,#869,#870),
  .UNSPECIFIED.,.F.,.F.,(4,4),(0.,1.),.PIECEWISE_BEZIER_KNOTS.);
#867 = CARTESIAN_POINT('',(16.282877353873,-0.5,0.));
#868 = CARTESIAN_POINT('',(17.355533894633,-2.980764226408,0.));
#869 = CARTESIAN_POINT('',(19.216822317395,-2.863399903426,0.));
#870 = CARTESIAN_POINT('',(20.364022646127,-0.5,0.));
#871 = VECTOR('',#872,1.);
#872 = DIRECTION('',(-0.,-0.,-1.));
#873 = ADVANCED_FACE('',(#874),#915,.T.);
#874 = FACE_BOUND('',#875,.T.);
#875 = EDGE_LOOP('',(#876,#877,#885,#893,#901,#909));
#876 = ORIENTED_EDGE('',*,*,#851,.T.);
#877 = ORIENTED_EDGE('',*,*,#878,.T.);
#878 = EDGE_CURVE('',#843,#879,#881,.T.);
#879 = VERTEX_POINT('',#880);
#880 = CARTESIAN_POINT('',(25.436522568855,-0.5,0.45));
#881 = LINE('',#882,#883);
#882 = CARTESIAN_POINT('',(21.364027353873,-0.5,0.45));
#883 = VECTOR('',#884,1.);
#884 = DIRECTION('',(1.,0.,0.));
#885 = ORIENTED_EDGE('',*,*,#886,.F.);
#886 = EDGE_CURVE('',#887,#879,#889,.T.);
#887 = VERTEX_POINT('',#888);
#888 = CARTESIAN_POINT('',(25.436522568855,-0.5,0.));
#889 = LINE('',#890,#891);
#890 = CARTESIAN_POINT('',(25.436522568855,-0.5,0.));
#891 = VECTOR('',#892,1.);
#892 = DIRECTION('',(0.,0.,1.));
#893 = ORIENTED_EDGE('',*,*,#894,.T.);
#894 = EDGE_CURVE('',#887,#895,#897,.T.);
#895 = VERTEX_POINT('',#896);
#896 = CARTESIAN_POINT('',(25.436522568855,-0.5,-0.45));
#897 = LINE('',#898,#899);
#898 = CARTESIAN_POINT('',(25.436522568855,-0.5,0.));
#899 = VECTOR('',#900,1.);
#900 = DIRECTION('',(-0.,-0.,-1.));
#901 = ORIENTED_EDGE('',*,*,#902,.F.);
#902 = EDGE_CURVE('',#903,#895,#905,.T.);
#903 = VERTEX_POINT('',#904);
#904 = CARTESIAN_POINT('',(20.364022646127,-0.5,-0.45));
#905 = LINE('',#906,#907);
#906 = CARTESIAN_POINT('',(20.364022646127,-0.5,-0.45));
#907 = VECTOR('',#908,1.);
#908 = DIRECTION('',(1.,0.,0.));
#909 = ORIENTED_EDGE('',*,*,#910,.F.);
#910 = EDGE_CURVE('',#852,#903,#911,.T.);
#911 = LINE('',#912,#913);
#912 = CARTESIAN_POINT('',(20.364022646127,-0.5,0.));
#913 = VECTOR('',#914,1.);
#914 = DIRECTION('',(-0.,-0.,-1.));
#915 = PLANE('',#916);
#916 = AXIS2_PLACEMENT_3D('',#917,#918,#919);
#917 = CARTESIAN_POINT('',(22.900273212955,-0.5,1.7735343805E-07));
#918 = DIRECTION('',(0.,1.,0.));
#919 = DIRECTION('',(0.,0.,1.));
#920 = ADVANCED_FACE('',(#921),#939,.F.);
#921 = FACE_BOUND('',#922,.F.);
#922 = EDGE_LOOP('',(#923,#924,#931,#932));
#923 = ORIENTED_EDGE('',*,*,#561,.T.);
#924 = ORIENTED_EDGE('',*,*,#925,.T.);
#925 = EDGE_CURVE('',#562,#879,#926,.T.);
#926 = ELLIPSE('',#927,8.5,3.836522825521);
#927 = AXIS2_PLACEMENT_3D('',#928,#929,#930);
#928 = CARTESIAN_POINT('',(33.864027353873,0.,0.45));
#929 = DIRECTION('',(0.,0.,-1.));
#930 = DIRECTION('',(-1.,4.1E-16,-0.));
#931 = ORIENTED_EDGE('',*,*,#886,.F.);
#932 = ORIENTED_EDGE('',*,*,#933,.F.);
#933 = EDGE_CURVE('',#554,#887,#934,.T.);
#934 = ELLIPSE('',#935,8.5,3.836522825521);
#935 = AXIS2_PLACEMENT_3D('',#936,#937,#938);
#936 = CARTESIAN_POINT('',(33.864027353873,0.,0.));
#937 = DIRECTION('',(0.,0.,-1.));
#938 = DIRECTION('',(-1.,4.1E-16,-0.));
#939 = SURFACE_OF_LINEAR_EXTRUSION('',#940,#945);
#940 = ELLIPSE('',#941,8.5,3.836522825521);
#941 = AXIS2_PLACEMENT_3D('',#942,#943,#944);
#942 = CARTESIAN_POINT('',(33.864027353873,0.,0.));
#943 = DIRECTION('',(0.,0.,-1.));
#944 = DIRECTION('',(-1.,4.1E-16,0.));
#945 = VECTOR('',#946,1.);
#946 = DIRECTION('',(-0.,-0.,-1.));
#947 = ADVANCED_FACE('',(#948),#967,.F.);
#948 = FACE_BOUND('',#949,.F.);
#949 = EDGE_LOOP('',(#950,#958,#965,#966));
#950 = ORIENTED_EDGE('',*,*,#951,.T.);
#951 = EDGE_CURVE('',#584,#952,#954,.T.);
#952 = VERTEX_POINT('',#953);
#953 = CARTESIAN_POINT('',(-1.960572646127,-0.5,-0.45));
#954 = LINE('',#955,#956);
#955 = CARTESIAN_POINT('',(-1.960572646127,-0.5,0.));
#956 = VECTOR('',#957,1.);
#957 = DIRECTION('',(-0.,-0.,-1.));
#958 = ORIENTED_EDGE('',*,*,#959,.T.);
#959 = EDGE_CURVE('',#952,#629,#960,.T.);
#960 = B_SPLINE_CURVE_WITH_KNOTS('',3,(#961,#962,#963,#964),
  .UNSPECIFIED.,.F.,.F.,(4,4),(0.,1.),.PIECEWISE_BEZIER_KNOTS.);
#961 = CARTESIAN_POINT('',(-1.960572646127,-0.5,-0.45));
#962 = CARTESIAN_POINT('',(-0.887916105367,-2.980764226408,-0.45));
#963 = CARTESIAN_POINT('',(0.973372317395,-2.863399903426,-0.45));
#964 = CARTESIAN_POINT('',(2.120572646127,-0.5,-0.45));
#965 = ORIENTED_EDGE('',*,*,#628,.F.);
#966 = ORIENTED_EDGE('',*,*,#610,.F.);
#967 = SURFACE_OF_LINEAR_EXTRUSION('',#968,#973);
#968 = B_SPLINE_CURVE_WITH_KNOTS('',3,(#969,#970,#971,#972),
  .UNSPECIFIED.,.F.,.F.,(4,4),(0.,1.),.PIECEWISE_BEZIER_KNOTS.);
#969 = CARTESIAN_POINT('',(-1.960572646127,-0.5,0.));
#970 = CARTESIAN_POINT('',(-0.887916105367,-2.980764226408,0.));
#971 = CARTESIAN_POINT('',(0.973372317395,-2.863399903426,0.));
#972 = CARTESIAN_POINT('',(2.120572646127,-0.5,0.));
#973 = VECTOR('',#974,1.);
#974 = DIRECTION('',(0.,0.,1.));
#975 = ADVANCED_FACE('',(#976),#988,.F.);
#976 = FACE_BOUND('',#977,.F.);
#977 = EDGE_LOOP('',(#978,#979,#986,#987));
#978 = ORIENTED_EDGE('',*,*,#653,.T.);
#979 = ORIENTED_EDGE('',*,*,#980,.T.);
#980 = EDGE_CURVE('',#654,#712,#981,.T.);
#981 = B_SPLINE_CURVE_WITH_KNOTS('',3,(#982,#983,#984,#985),
  .UNSPECIFIED.,.F.,.F.,(4,4),(0.,1.),.PIECEWISE_BEZIER_KNOTS.);
#982 = CARTESIAN_POINT('',(4.120577353873,-0.5,-0.45));
#983 = CARTESIAN_POINT('',(5.193233894633,-2.980764226408,-0.45));
#984 = CARTESIAN_POINT('',(7.054522317395,-2.863399903426,-0.45));
#985 = CARTESIAN_POINT('',(8.201722646127,-0.5,-0.45));
#986 = ORIENTED_EDGE('',*,*,#711,.F.);
#987 = ORIENTED_EDGE('',*,*,#693,.F.);
#988 = SURFACE_OF_LINEAR_EXTRUSION('',#989,#994);
#989 = B_SPLINE_CURVE_WITH_KNOTS('',3,(#990,#991,#992,#993),
  .UNSPECIFIED.,.F.,.F.,(4,4),(0.,1.),.PIECEWISE_BEZIER_KNOTS.);
#990 = CARTESIAN_POINT('',(4.120577353873,-0.5,0.));
#991 = CARTESIAN_POINT('',(5.193233894633,-2.980764226408,0.));
#992 = CARTESIAN_POINT('',(7.054522317395,-2.863399903426,0.));
#993 = CARTESIAN_POINT('',(8.201722646127,-0.5,0.));
#994 = VECTOR('',#995,1.);
#995 = DIRECTION('',(0.,0.,1.));
#996 = ADVANCED_FACE('',(#997),#1009,.F.);
#997 = FACE_BOUND('',#998,.F.);
#998 = EDGE_LOOP('',(#999,#1000,#1007,#1008));
#999 = ORIENTED_EDGE('',*,*,#736,.T.);
#1000 = ORIENTED_EDGE('',*,*,#1001,.T.);
#1001 = EDGE_CURVE('',#737,#813,#1002,.T.);
#1002 = B_SPLINE_CURVE_WITH_KNOTS('',3,(#1003,#1004,#1005,#1006),
  .UNSPECIFIED.,.F.,.F.,(4,4),(0.,1.),.PIECEWISE_BEZIER_KNOTS.);
#1003 = CARTESIAN_POINT('',(10.201727353873,-0.5,-0.45));
#1004 = CARTESIAN_POINT('',(11.274383894633,-2.980764226408,-0.45));
#1005 = CARTESIAN_POINT('',(13.135672317395,-2.863399903426,-0.45));
#1006 = CARTESIAN_POINT('',(14.282872646127,-0.5,-0.45));
#1007 = ORIENTED_EDGE('',*,*,#820,.F.);
#1008 = ORIENTED_EDGE('',*,*,#776,.F.);
#1009 = SURFACE_OF_LINEAR_EXTRUSION('',#1010,#1015);
#1010 = B_SPLINE_CURVE_WITH_KNOTS('',3,(#1011,#1012,#1013,#1014),
  .UNSPECIFIED.,.F.,.F.,(4,4),(0.,1.),.PIECEWISE_BEZIER_KNOTS.);
#1011 = CARTESIAN_POINT('',(10.201727353873,-0.5,0.));
#1012 = CARTESIAN_POINT('',(11.274383894633,-2.980764226408,0.));
#1013 = CARTESIAN_POINT('',(13.135672317395,-2.863399903426,0.));
#1014 = CARTESIAN_POINT('',(14.282872646127,-0.5,0.));
#1015 = VECTOR('',#1016,1.);
#1016 = DIRECTION('',(0.,0.,1.));
#1017 = ADVANCED_FACE('',(#1018),#1030,.F.);
#1018 = FACE_BOUND('',#1019,.F.);
#1019 = EDGE_LOOP('',(#1020,#1021,#1028,#1029));
#1020 = ORIENTED_EDGE('',*,*,#804,.T.);
#1021 = ORIENTED_EDGE('',*,*,#1022,.T.);
#1022 = EDGE_CURVE('',#805,#903,#1023,.T.);
#1023 = B_SPLINE_CURVE_WITH_KNOTS('',3,(#1024,#1025,#1026,#1027),
  .UNSPECIFIED.,.F.,.F.,(4,4),(0.,1.),.PIECEWISE_BEZIER_KNOTS.);
#1024 = CARTESIAN_POINT('',(16.282877353873,-0.5,-0.45));
#1025 = CARTESIAN_POINT('',(17.355533894633,-2.980764226408,-0.45));
#1026 = CARTESIAN_POINT('',(19.216822317395,-2.863399903426,-0.45));
#1027 = CARTESIAN_POINT('',(20.364022646127,-0.5,-0.45));
#1028 = ORIENTED_EDGE('',*,*,#910,.F.);
#1029 = ORIENTED_EDGE('',*,*,#859,.F.);
#1030 = SURFACE_OF_LINEAR_EXTRUSION('',#1031,#1036);
#1031 = B_SPLINE_CURVE_WITH_KNOTS('',3,(#1032,#1033,#1034,#1035),
  .UNSPECIFIED.,.F.,.F.,(4,4),(0.,1.),.PIECEWISE_BEZIER_KNOTS.);
#1032 = CARTESIAN_POINT('',(16.282877353873,-0.5,0.));
#1033 = CARTESIAN_POINT('',(17.355533894633,-2.980764226408,0.));
#1034 = CARTESIAN_POINT('',(19.216822317395,-2.863399903426,0.));
#1035 = CARTESIAN_POINT('',(20.364022646127,-0.5,0.));
#1036 = VECTOR('',#1037,1.);
#1037 = DIRECTION('',(0.,0.,1.));
#1038 = ADVANCED_FACE('',(#1039),#1051,.T.);
#1039 = FACE_BOUND('',#1040,.T.);
#1040 = EDGE_LOOP('',(#1041,#1042,#1049,#1050));
#1041 = ORIENTED_EDGE('',*,*,#553,.T.);
#1042 = ORIENTED_EDGE('',*,*,#1043,.T.);
#1043 = EDGE_CURVE('',#546,#895,#1044,.T.);
#1044 = ELLIPSE('',#1045,8.5,3.836522825521);
#1045 = AXIS2_PLACEMENT_3D('',#1046,#1047,#1048);
#1046 = CARTESIAN_POINT('',(33.864027353873,0.,-0.45));
#1047 = DIRECTION('',(0.,0.,-1.));
#1048 = DIRECTION('',(-1.,4.1E-16,-0.));
#1049 = ORIENTED_EDGE('',*,*,#894,.F.);
#1050 = ORIENTED_EDGE('',*,*,#933,.F.);
#1051 = SURFACE_OF_LINEAR_EXTRUSION('',#1052,#1057);
#1052 = ELLIPSE('',#1053,8.5,3.836522825521);
#1053 = AXIS2_PLACEMENT_3D('',#1054,#1055,#1056);
#1054 = CARTESIAN_POINT('',(33.864027353873,0.,0.));
#1055 = DIRECTION('',(0.,0.,-1.));
#1056 = DIRECTION('',(-1.,4.1E-16,0.));
#1057 = VECTOR('',#1058,1.);
#1058 = DIRECTION('',(0.,0.,1.));
#1059 = ADVANCED_FACE('',(#1060),#1072,.T.);
#1060 = FACE_BOUND('',#1061,.T.);
#1061 = EDGE_LOOP('',(#1062,#1063,#1070,#1071));
#1062 = ORIENTED_EDGE('',*,*,#486,.T.);
#1063 = ORIENTED_EDGE('',*,*,#1064,.T.);
#1064 = EDGE_CURVE('',#479,#320,#1065,.T.);
#1065 = B_SPLINE_CURVE_WITH_KNOTS('',3,(#1066,#1067,#1068,#1069),
  .UNSPECIFIED.,.F.,.F.,(4,4),(0.,50.078291514412),
  .PIECEWISE_BEZIER_KNOTS.);
#1066 = CARTESIAN_POINT('',(10.201727353873,0.5,-0.45));
#1067 = CARTESIAN_POINT('',(11.274383894633,3.426855443591,-0.45));
#1068 = CARTESIAN_POINT('',(13.135672317395,3.289188796157,-0.45));
#1069 = CARTESIAN_POINT('',(14.282872646127,0.5,-0.45));
#1070 = ORIENTED_EDGE('',*,*,#319,.F.);
#1071 = ORIENTED_EDGE('',*,*,#526,.F.);
#1072 = SURFACE_OF_LINEAR_EXTRUSION('',#1073,#1078);
#1073 = B_SPLINE_CURVE_WITH_KNOTS('',3,(#1074,#1075,#1076,#1077),
  .UNSPECIFIED.,.F.,.F.,(4,4),(0.,50.078291514412),
  .PIECEWISE_BEZIER_KNOTS.);
#1074 = CARTESIAN_POINT('',(10.201727353873,0.5,0.));
#1075 = CARTESIAN_POINT('',(11.274383894633,3.426855443591,0.));
#1076 = CARTESIAN_POINT('',(13.135672317395,3.289188796157,0.));
#1077 = CARTESIAN_POINT('',(14.282872646127,0.5,0.));
#1078 = VECTOR('',#1079,1.);
#1079 = DIRECTION('',(0.,0.,1.));
#1080 = ADVANCED_FACE('',(#1081),#1093,.T.);
#1081 = FACE_BOUND('',#1082,.T.);
#1082 = EDGE_LOOP('',(#1083,#1084,#1091,#1092));
#1083 = ORIENTED_EDGE('',*,*,#403,.T.);
#1084 = ORIENTED_EDGE('',*,*,#1085,.T.);
#1085 = EDGE_CURVE('',#396,#471,#1086,.T.);
#1086 = B_SPLINE_CURVE_WITH_KNOTS('',3,(#1087,#1088,#1089,#1090),
  .UNSPECIFIED.,.F.,.F.,(4,4),(0.,50.078291514412),
  .PIECEWISE_BEZIER_KNOTS.);
#1087 = CARTESIAN_POINT('',(4.120577353873,0.5,-0.45));
#1088 = CARTESIAN_POINT('',(5.193233894633,3.426855443591,-0.45));
#1089 = CARTESIAN_POINT('',(7.054522317395,3.289188796157,-0.45));
#1090 = CARTESIAN_POINT('',(8.201722646127,0.5,-0.45));
#1091 = ORIENTED_EDGE('',*,*,#470,.F.);
#1092 = ORIENTED_EDGE('',*,*,#452,.F.);
#1093 = SURFACE_OF_LINEAR_EXTRUSION('',#1094,#1099);
#1094 = B_SPLINE_CURVE_WITH_KNOTS('',3,(#1095,#1096,#1097,#1098),
  .UNSPECIFIED.,.F.,.F.,(4,4),(0.,50.078291514412),
  .PIECEWISE_BEZIER_KNOTS.);
#1095 = CARTESIAN_POINT('',(4.120577353873,0.5,0.));
#1096 = CARTESIAN_POINT('',(5.193233894633,3.426855443591,0.));
#1097 = CARTESIAN_POINT('',(7.054522317395,3.289188796157,0.));
#1098 = CARTESIAN_POINT('',(8.201722646127,0.5,0.));
#1099 = VECTOR('',#1100,1.);
#1100 = DIRECTION('',(0.,0.,1.));
#1101 = ADVANCED_FACE('',(#1102),#1121,.T.);
#1102 = FACE_BOUND('',#1103,.T.);
#1103 = EDGE_LOOP('',(#1104,#1112,#1119,#1120));
#1104 = ORIENTED_EDGE('',*,*,#1105,.T.);
#1105 = EDGE_CURVE('',#343,#1106,#1108,.T.);
#1106 = VERTEX_POINT('',#1107);
#1107 = CARTESIAN_POINT('',(-1.960572646127,0.5,-0.45));
#1108 = LINE('',#1109,#1110);
#1109 = CARTESIAN_POINT('',(-1.960572646127,0.5,0.));
#1110 = VECTOR('',#1111,1.);
#1111 = DIRECTION('',(-0.,-0.,-1.));
#1112 = ORIENTED_EDGE('',*,*,#1113,.T.);
#1113 = EDGE_CURVE('',#1106,#388,#1114,.T.);
#1114 = B_SPLINE_CURVE_WITH_KNOTS('',3,(#1115,#1116,#1117,#1118),
  .UNSPECIFIED.,.F.,.F.,(4,4),(0.,50.078291514412),
  .PIECEWISE_BEZIER_KNOTS.);
#1115 = CARTESIAN_POINT('',(-1.960572646127,0.5,-0.45));
#1116 = CARTESIAN_POINT('',(-0.887916105367,3.426855443591,-0.45));
#1117 = CARTESIAN_POINT('',(0.973372317395,3.289188796157,-0.45));
#1118 = CARTESIAN_POINT('',(2.120572646127,0.5,-0.45));
#1119 = ORIENTED_EDGE('',*,*,#387,.F.);
#1120 = ORIENTED_EDGE('',*,*,#369,.F.);
#1121 = SURFACE_OF_LINEAR_EXTRUSION('',#1122,#1127);
#1122 = B_SPLINE_CURVE_WITH_KNOTS('',3,(#1123,#1124,#1125,#1126),
  .UNSPECIFIED.,.F.,.F.,(4,4),(0.,50.078291514412),
  .PIECEWISE_BEZIER_KNOTS.);
#1123 = CARTESIAN_POINT('',(-1.960572646127,0.5,0.));
#1124 = CARTESIAN_POINT('',(-0.887916105367,3.426855443591,0.));
#1125 = CARTESIAN_POINT('',(0.973372317395,3.289188796157,0.));
#1126 = CARTESIAN_POINT('',(2.120572646127,0.5,0.));
#1127 = VECTOR('',#1128,1.);
#1128 = DIRECTION('',(0.,0.,1.));
#1129 = ADVANCED_FACE('',(#1130,#1155,#1166,#1177),#1188,.T.);
#1130 = FACE_BOUND('',#1131,.T.);
#1131 = EDGE_LOOP('',(#1132,#1142,#1148,#1149));
#1132 = ORIENTED_EDGE('',*,*,#1133,.T.);
#1133 = EDGE_CURVE('',#1134,#1136,#1138,.T.);
#1134 = VERTEX_POINT('',#1135);
#1135 = CARTESIAN_POINT('',(21.364027353873,5.163477174479,7.));
#1136 = VERTEX_POINT('',#1137);
#1137 = CARTESIAN_POINT('',(21.364027353873,-4.836522825521,7.));
#1138 = LINE('',#1139,#1140);
#1139 = CARTESIAN_POINT('',(21.364027353873,5.163477174479,7.));
#1140 = VECTOR('',#1141,1.);
#1141 = DIRECTION('',(0.,-1.,0.));
#1142 = ORIENTED_EDGE('',*,*,#1143,.T.);
#1143 = EDGE_CURVE('',#1136,#238,#1144,.T.);
#1144 = LINE('',#1145,#1146);
#1145 = CARTESIAN_POINT('',(21.364027353873,-4.836522825521,7.));
#1146 = VECTOR('',#1147,1.);
#1147 = DIRECTION('',(1.,0.,0.));
#1148 = ORIENTED_EDGE('',*,*,#237,.T.);
#1149 = ORIENTED_EDGE('',*,*,#1150,.T.);
#1150 = EDGE_CURVE('',#240,#1134,#1151,.T.);
#1151 = LINE('',#1152,#1153);
#1152 = CARTESIAN_POINT('',(46.364027353873,5.163477174479,7.));
#1153 = VECTOR('',#1154,1.);
#1154 = DIRECTION('',(-1.,0.,0.));
#1155 = FACE_BOUND('',#1156,.T.);
#1156 = EDGE_LOOP('',(#1157));
#1157 = ORIENTED_EDGE('',*,*,#1158,.F.);
#1158 = EDGE_CURVE('',#1159,#1159,#1161,.T.);
#1159 = VERTEX_POINT('',#1160);
#1160 = CARTESIAN_POINT('',(32.364027353873,0.,7.));
#1161 = CIRCLE('',#1162,2.25);
#1162 = AXIS2_PLACEMENT_3D('',#1163,#1164,#1165);
#1163 = CARTESIAN_POINT('',(30.114027353873,0.,7.));
#1164 = DIRECTION('',(0.,0.,1.));
#1165 = DIRECTION('',(1.,0.,0.));
#1166 = FACE_BOUND('',#1167,.T.);
#1167 = EDGE_LOOP('',(#1168));
#1168 = ORIENTED_EDGE('',*,*,#1169,.F.);
#1169 = EDGE_CURVE('',#1170,#1170,#1172,.T.);
#1170 = VERTEX_POINT('',#1171);
#1171 = CARTESIAN_POINT('',(34.364027353873,0.,7.));
#1172 = CIRCLE('',#1173,0.5);
#1173 = AXIS2_PLACEMENT_3D('',#1174,#1175,#1176);
#1174 = CARTESIAN_POINT('',(33.864027353873,0.,7.));
#1175 = DIRECTION('',(0.,0.,1.));
#1176 = DIRECTION('',(1.,0.,0.));
#1177 = FACE_BOUND('',#1178,.T.);
#1178 = EDGE_LOOP('',(#1179));
#1179 = ORIENTED_EDGE('',*,*,#1180,.F.);
#1180 = EDGE_CURVE('',#1181,#1181,#1183,.T.);
#1181 = VERTEX_POINT('',#1182);
#1182 = CARTESIAN_POINT('',(36.364027353873,0.,7.));
#1183 = CIRCLE('',#1184,0.5);
#1184 = AXIS2_PLACEMENT_3D('',#1185,#1186,#1187);
#1185 = CARTESIAN_POINT('',(35.864027353873,0.,7.));
#1186 = DIRECTION('',(0.,0.,1.));
#1187 = DIRECTION('',(1.,0.,0.));
#1188 = PLANE('',#1189);
#1189 = AXIS2_PLACEMENT_3D('',#1190,#1191,#1192);
#1190 = CARTESIAN_POINT('',(33.864027353873,0.163477174479,7.));
#1191 = DIRECTION('',(0.,0.,1.));
#1192 = DIRECTION('',(1.,0.,0.));
#1193 = ADVANCED_FACE('',(#1194),#1213,.F.);
#1194 = FACE_BOUND('',#1195,.F.);
#1195 = EDGE_LOOP('',(#1196,#1197,#1205,#1212));
#1196 = ORIENTED_EDGE('',*,*,#1158,.F.);
#1197 = ORIENTED_EDGE('',*,*,#1198,.T.);
#1198 = EDGE_CURVE('',#1159,#1199,#1201,.T.);
#1199 = VERTEX_POINT('',#1200);
#1200 = CARTESIAN_POINT('',(32.364027353873,0.,0.45));
#1201 = LINE('',#1202,#1203);
#1202 = CARTESIAN_POINT('',(32.364027353873,0.,7.));
#1203 = VECTOR('',#1204,1.);
#1204 = DIRECTION('',(-0.,-0.,-1.));
#1205 = ORIENTED_EDGE('',*,*,#1206,.T.);
#1206 = EDGE_CURVE('',#1199,#1199,#1207,.T.);
#1207 = CIRCLE('',#1208,2.25);
#1208 = AXIS2_PLACEMENT_3D('',#1209,#1210,#1211);
#1209 = CARTESIAN_POINT('',(30.114027353873,0.,0.45));
#1210 = DIRECTION('',(0.,0.,1.));
#1211 = DIRECTION('',(1.,0.,0.));
#1212 = ORIENTED_EDGE('',*,*,#1198,.F.);
#1213 = CYLINDRICAL_SURFACE('',#1214,2.25);
#1214 = AXIS2_PLACEMENT_3D('',#1215,#1216,#1217);
#1215 = CARTESIAN_POINT('',(30.114027353873,0.,7.));
#1216 = DIRECTION('',(0.,0.,1.));
#1217 = DIRECTION('',(1.,0.,0.));
#1218 = ADVANCED_FACE('',(#1219),#1238,.F.);
#1219 = FACE_BOUND('',#1220,.F.);
#1220 = EDGE_LOOP('',(#1221,#1222,#1230,#1237));
#1221 = ORIENTED_EDGE('',*,*,#1169,.F.);
#1222 = ORIENTED_EDGE('',*,*,#1223,.T.);
#1223 = EDGE_CURVE('',#1170,#1224,#1226,.T.);
#1224 = VERTEX_POINT('',#1225);
#1225 = CARTESIAN_POINT('',(34.364027353873,0.,0.45));
#1226 = LINE('',#1227,#1228);
#1227 = CARTESIAN_POINT('',(34.364027353873,0.,7.));
#1228 = VECTOR('',#1229,1.);
#1229 = DIRECTION('',(-0.,-0.,-1.));
#1230 = ORIENTED_EDGE('',*,*,#1231,.T.);
#1231 = EDGE_CURVE('',#1224,#1224,#1232,.T.);
#1232 = CIRCLE('',#1233,0.5);
#1233 = AXIS2_PLACEMENT_3D('',#1234,#1235,#1236);
#1234 = CARTESIAN_POINT('',(33.864027353873,0.,0.45));
#1235 = DIRECTION('',(0.,0.,1.));
#1236 = DIRECTION('',(1.,0.,0.));
#1237 = ORIENTED_EDGE('',*,*,#1223,.F.);
#1238 = CYLINDRICAL_SURFACE('',#1239,0.5);
#1239 = AXIS2_PLACEMENT_3D('',#1240,#1241,#1242);
#1240 = CARTESIAN_POINT('',(33.864027353873,0.,7.));
#1241 = DIRECTION('',(0.,0.,1.));
#1242 = DIRECTION('',(1.,0.,0.));
#1243 = ADVANCED_FACE('',(#1244),#1263,.F.);
#1244 = FACE_BOUND('',#1245,.F.);
#1245 = EDGE_LOOP('',(#1246,#1247,#1255,#1262));
#1246 = ORIENTED_EDGE('',*,*,#1180,.F.);
#1247 = ORIENTED_EDGE('',*,*,#1248,.T.);
#1248 = EDGE_CURVE('',#1181,#1249,#1251,.T.);
#1249 = VERTEX_POINT('',#1250);
#1250 = CARTESIAN_POINT('',(36.364027353873,0.,0.45));
#1251 = LINE('',#1252,#1253);
#1252 = CARTESIAN_POINT('',(36.364027353873,0.,7.));
#1253 = VECTOR('',#1254,1.);
#1254 = DIRECTION('',(-0.,-0.,-1.));
#1255 = ORIENTED_EDGE('',*,*,#1256,.T.);
#1256 = EDGE_CURVE('',#1249,#1249,#1257,.T.);
#1257 = CIRCLE('',#1258,0.5);
#1258 = AXIS2_PLACEMENT_3D('',#1259,#1260,#1261);
#1259 = CARTESIAN_POINT('',(35.864027353873,0.,0.45));
#1260 = DIRECTION('',(0.,0.,1.));
#1261 = DIRECTION('',(1.,0.,0.));
#1262 = ORIENTED_EDGE('',*,*,#1248,.F.);
#1263 = CYLINDRICAL_SURFACE('',#1264,0.5);
#1264 = AXIS2_PLACEMENT_3D('',#1265,#1266,#1267);
#1265 = CARTESIAN_POINT('',(35.864027353873,0.,7.));
#1266 = DIRECTION('',(0.,0.,1.));
#1267 = DIRECTION('',(1.,0.,0.));
#1268 = ADVANCED_FACE('',(#1269),#1287,.T.);
#1269 = FACE_BOUND('',#1270,.T.);
#1270 = EDGE_LOOP('',(#1271,#1279,#1285,#1286));
#1271 = ORIENTED_EDGE('',*,*,#1272,.T.);
#1272 = EDGE_CURVE('',#1136,#1273,#1275,.T.);
#1273 = VERTEX_POINT('',#1274);
#1274 = CARTESIAN_POINT('',(21.364027353873,-4.836522825521,-1.5));
#1275 = LINE('',#1276,#1277);
#1276 = CARTESIAN_POINT('',(21.364027353873,-4.836522825521,0.));
#1277 = VECTOR('',#1278,1.);
#1278 = DIRECTION('',(-0.,-0.,-1.));
#1279 = ORIENTED_EDGE('',*,*,#1280,.T.);
#1280 = EDGE_CURVE('',#1273,#248,#1281,.T.);
#1281 = LINE('',#1282,#1283);
#1282 = CARTESIAN_POINT('',(21.364027353873,-4.836522825521,-1.5));
#1283 = VECTOR('',#1284,1.);
#1284 = DIRECTION('',(1.,0.,0.));
#1285 = ORIENTED_EDGE('',*,*,#247,.T.);
#1286 = ORIENTED_EDGE('',*,*,#1143,.F.);
#1287 = PLANE('',#1288);
#1288 = AXIS2_PLACEMENT_3D('',#1289,#1290,#1291);
#1289 = CARTESIAN_POINT('',(33.864027353873,-4.836522825521,2.75));
#1290 = DIRECTION('',(-0.,-1.,-0.));
#1291 = DIRECTION('',(0.,0.,-1.));
#1292 = ADVANCED_FACE('',(#1293),#1311,.T.);
#1293 = FACE_BOUND('',#1294,.T.);
#1294 = EDGE_LOOP('',(#1295,#1296,#1304,#1310));
#1295 = ORIENTED_EDGE('',*,*,#263,.T.);
#1296 = ORIENTED_EDGE('',*,*,#1297,.T.);
#1297 = EDGE_CURVE('',#256,#1298,#1300,.T.);
#1298 = VERTEX_POINT('',#1299);
#1299 = CARTESIAN_POINT('',(21.364027353873,5.163477174479,-1.5));
#1300 = LINE('',#1301,#1302);
#1301 = CARTESIAN_POINT('',(46.364027353873,5.163477174479,-1.5));
#1302 = VECTOR('',#1303,1.);
#1303 = DIRECTION('',(-1.,0.,0.));
#1304 = ORIENTED_EDGE('',*,*,#1305,.T.);
#1305 = EDGE_CURVE('',#1298,#1134,#1306,.T.);
#1306 = LINE('',#1307,#1308);
#1307 = CARTESIAN_POINT('',(21.364027353873,5.163477174479,0.));
#1308 = VECTOR('',#1309,1.);
#1309 = DIRECTION('',(0.,0.,1.));
#1310 = ORIENTED_EDGE('',*,*,#1150,.F.);
#1311 = PLANE('',#1312);
#1312 = AXIS2_PLACEMENT_3D('',#1313,#1314,#1315);
#1313 = CARTESIAN_POINT('',(33.864027353873,5.163477174479,2.75));
#1314 = DIRECTION('',(0.,1.,0.));
#1315 = DIRECTION('',(0.,0.,1.));
#1316 = ADVANCED_FACE('',(#1317),#1360,.T.);
#1317 = FACE_BOUND('',#1318,.T.);
#1318 = EDGE_LOOP('',(#1319,#1327,#1328,#1329,#1330,#1338,#1346,#1354));
#1319 = ORIENTED_EDGE('',*,*,#1320,.F.);
#1320 = EDGE_CURVE('',#1298,#1321,#1323,.T.);
#1321 = VERTEX_POINT('',#1322);
#1322 = CARTESIAN_POINT('',(21.364027353873,3.14355202211,-1.5));
#1323 = LINE('',#1324,#1325);
#1324 = CARTESIAN_POINT('',(21.364027353873,5.163477174479,-1.5));
#1325 = VECTOR('',#1326,1.);
#1326 = DIRECTION('',(0.,-1.,0.));
#1327 = ORIENTED_EDGE('',*,*,#1297,.F.);
#1328 = ORIENTED_EDGE('',*,*,#255,.F.);
#1329 = ORIENTED_EDGE('',*,*,#1280,.F.);
#1330 = ORIENTED_EDGE('',*,*,#1331,.F.);
#1331 = EDGE_CURVE('',#1332,#1273,#1334,.T.);
#1332 = VERTEX_POINT('',#1333);
#1333 = CARTESIAN_POINT('',(21.364027353873,-2.816597673152,-1.5));
#1334 = LINE('',#1335,#1336);
#1335 = CARTESIAN_POINT('',(21.364027353873,5.163477174479,-1.5));
#1336 = VECTOR('',#1337,1.);
#1337 = DIRECTION('',(0.,-1.,0.));
#1338 = ORIENTED_EDGE('',*,*,#1339,.F.);
#1339 = EDGE_CURVE('',#1340,#1332,#1342,.T.);
#1340 = VERTEX_POINT('',#1341);
#1341 = CARTESIAN_POINT('',(-12.96057264612,-2.816597673152,-1.5));
#1342 = LINE('',#1343,#1344);
#1343 = CARTESIAN_POINT('',(-2.960572646127,-2.816597673152,-1.5));
#1344 = VECTOR('',#1345,1.);
#1345 = DIRECTION('',(1.,0.,0.));
#1346 = ORIENTED_EDGE('',*,*,#1347,.F.);
#1347 = EDGE_CURVE('',#1348,#1340,#1350,.T.);
#1348 = VERTEX_POINT('',#1349);
#1349 = CARTESIAN_POINT('',(-12.96057264612,3.14355202211,-1.5));
#1350 = LINE('',#1351,#1352);
#1351 = CARTESIAN_POINT('',(-12.96057264612,3.14355202211,-1.5));
#1352 = VECTOR('',#1353,1.);
#1353 = DIRECTION('',(0.,-1.,0.));
#1354 = ORIENTED_EDGE('',*,*,#1355,.F.);
#1355 = EDGE_CURVE('',#1321,#1348,#1356,.T.);
#1356 = LINE('',#1357,#1358);
#1357 = CARTESIAN_POINT('',(-2.960572646127,3.14355202211,-1.5));
#1358 = VECTOR('',#1359,1.);
#1359 = DIRECTION('',(-1.,0.,0.));
#1360 = PLANE('',#1361);
#1361 = AXIS2_PLACEMENT_3D('',#1362,#1363,#1364);
#1362 = CARTESIAN_POINT('',(17.701850295585,0.163477174479,-1.5));
#1363 = DIRECTION('',(-0.,-0.,-1.));
#1364 = DIRECTION('',(-1.,0.,0.));
#1365 = ADVANCED_FACE('',(#1366,#1391,#1425),#1459,.T.);
#1366 = FACE_BOUND('',#1367,.T.);
#1367 = EDGE_LOOP('',(#1368,#1369,#1377,#1385));
#1368 = ORIENTED_EDGE('',*,*,#1347,.T.);
#1369 = ORIENTED_EDGE('',*,*,#1370,.T.);
#1370 = EDGE_CURVE('',#1340,#1371,#1373,.T.);
#1371 = VERTEX_POINT('',#1372);
#1372 = CARTESIAN_POINT('',(-12.96057264612,-2.816597673152,1.5));
#1373 = LINE('',#1374,#1375);
#1374 = CARTESIAN_POINT('',(-12.96057264612,-2.816597673152,0.));
#1375 = VECTOR('',#1376,1.);
#1376 = DIRECTION('',(0.,0.,1.));
#1377 = ORIENTED_EDGE('',*,*,#1378,.F.);
#1378 = EDGE_CURVE('',#1379,#1371,#1381,.T.);
#1379 = VERTEX_POINT('',#1380);
#1380 = CARTESIAN_POINT('',(-12.96057264612,3.14355202211,1.5));
#1381 = LINE('',#1382,#1383);
#1382 = CARTESIAN_POINT('',(-12.96057264612,3.14355202211,1.5));
#1383 = VECTOR('',#1384,1.);
#1384 = DIRECTION('',(0.,-1.,0.));
#1385 = ORIENTED_EDGE('',*,*,#1386,.F.);
#1386 = EDGE_CURVE('',#1348,#1379,#1387,.T.);
#1387 = LINE('',#1388,#1389);
#1388 = CARTESIAN_POINT('',(-12.96057264612,3.14355202211,0.));
#1389 = VECTOR('',#1390,1.);
#1390 = DIRECTION('',(0.,0.,1.));
#1391 = FACE_BOUND('',#1392,.T.);
#1392 = EDGE_LOOP('',(#1393,#1403,#1411,#1419));
#1393 = ORIENTED_EDGE('',*,*,#1394,.F.);
#1394 = EDGE_CURVE('',#1395,#1397,#1399,.T.);
#1395 = VERTEX_POINT('',#1396);
#1396 = CARTESIAN_POINT('',(-12.96057264612,1.994084710814,0.45));
#1397 = VERTEX_POINT('',#1398);
#1398 = CARTESIAN_POINT('',(-12.96057264612,1.994084710814,-0.45));
#1399 = LINE('',#1400,#1401);
#1400 = CARTESIAN_POINT('',(-12.96057264612,1.994084710814,0.45));
#1401 = VECTOR('',#1402,1.);
#1402 = DIRECTION('',(-0.,-0.,-1.));
#1403 = ORIENTED_EDGE('',*,*,#1404,.T.);
#1404 = EDGE_CURVE('',#1395,#1405,#1407,.T.);
#1405 = VERTEX_POINT('',#1406);
#1406 = CARTESIAN_POINT('',(-12.96057264612,0.994084710814,0.45));
#1407 = LINE('',#1408,#1409);
#1408 = CARTESIAN_POINT('',(-12.96057264612,1.994084710814,0.45));
#1409 = VECTOR('',#1410,1.);
#1410 = DIRECTION('',(0.,-1.,0.));
#1411 = ORIENTED_EDGE('',*,*,#1412,.T.);
#1412 = EDGE_CURVE('',#1405,#1413,#1415,.T.);
#1413 = VERTEX_POINT('',#1414);
#1414 = CARTESIAN_POINT('',(-12.96057264612,0.994084710814,-0.45));
#1415 = LINE('',#1416,#1417);
#1416 = CARTESIAN_POINT('',(-12.96057264612,0.994084710814,0.45));
#1417 = VECTOR('',#1418,1.);
#1418 = DIRECTION('',(-0.,-0.,-1.));
#1419 = ORIENTED_EDGE('',*,*,#1420,.F.);
#1420 = EDGE_CURVE('',#1397,#1413,#1421,.T.);
#1421 = LINE('',#1422,#1423);
#1422 = CARTESIAN_POINT('',(-12.96057264612,1.994084710814,-0.45));
#1423 = VECTOR('',#1424,1.);
#1424 = DIRECTION('',(0.,-1.,0.));
#1425 = FACE_BOUND('',#1426,.T.);
#1426 = EDGE_LOOP('',(#1427,#1437,#1445,#1453));
#1427 = ORIENTED_EDGE('',*,*,#1428,.F.);
#1428 = EDGE_CURVE('',#1429,#1431,#1433,.T.);
#1429 = VERTEX_POINT('',#1430);
#1430 = CARTESIAN_POINT('',(-12.96057264612,-0.59293937995,0.45));
#1431 = VERTEX_POINT('',#1432);
#1432 = CARTESIAN_POINT('',(-12.96057264612,-0.59293937995,-0.45));
#1433 = LINE('',#1434,#1435);
#1434 = CARTESIAN_POINT('',(-12.96057264612,-0.59293937995,0.45));
#1435 = VECTOR('',#1436,1.);
#1436 = DIRECTION('',(-0.,-0.,-1.));
#1437 = ORIENTED_EDGE('',*,*,#1438,.T.);
#1438 = EDGE_CURVE('',#1429,#1439,#1441,.T.);
#1439 = VERTEX_POINT('',#1440);
#1440 = CARTESIAN_POINT('',(-12.96057264612,-1.59293937995,0.45));
#1441 = LINE('',#1442,#1443);
#1442 = CARTESIAN_POINT('',(-12.96057264612,-0.59293937995,0.45));
#1443 = VECTOR('',#1444,1.);
#1444 = DIRECTION('',(0.,-1.,0.));
#1445 = ORIENTED_EDGE('',*,*,#1446,.T.);
#1446 = EDGE_CURVE('',#1439,#1447,#1449,.T.);
#1447 = VERTEX_POINT('',#1448);
#1448 = CARTESIAN_POINT('',(-12.96057264612,-1.59293937995,-0.45));
#1449 = LINE('',#1450,#1451);
#1450 = CARTESIAN_POINT('',(-12.96057264612,-1.59293937995,0.45));
#1451 = VECTOR('',#1452,1.);
#1452 = DIRECTION('',(-0.,-0.,-1.));
#1453 = ORIENTED_EDGE('',*,*,#1454,.F.);
#1454 = EDGE_CURVE('',#1431,#1447,#1455,.T.);
#1455 = LINE('',#1456,#1457);
#1456 = CARTESIAN_POINT('',(-12.96057264612,-0.59293937995,-0.45));
#1457 = VECTOR('',#1458,1.);
#1458 = DIRECTION('',(0.,-1.,0.));
#1459 = PLANE('',#1460);
#1460 = AXIS2_PLACEMENT_3D('',#1461,#1462,#1463);
#1461 = CARTESIAN_POINT('',(-12.96057264612,0.163477174479,0.));
#1462 = DIRECTION('',(-1.,-0.,-0.));
#1463 = DIRECTION('',(0.,0.,-1.));
#1464 = ADVANCED_FACE('',(#1465),#1492,.F.);
#1465 = FACE_BOUND('',#1466,.F.);
#1466 = EDGE_LOOP('',(#1467,#1468,#1477,#1485));
#1467 = ORIENTED_EDGE('',*,*,#1446,.T.);
#1468 = ORIENTED_EDGE('',*,*,#1469,.T.);
#1469 = EDGE_CURVE('',#1447,#1470,#1472,.T.);
#1470 = VERTEX_POINT('',#1471);
#1471 = CARTESIAN_POINT('',(-4.460572646127,-0.5,-0.45));
#1472 = B_SPLINE_CURVE_WITH_KNOTS('',3,(#1473,#1474,#1475,#1476),
  .UNSPECIFIED.,.F.,.F.,(4,4),(0.,7.713092362711),
  .PIECEWISE_BEZIER_KNOTS.);
#1473 = CARTESIAN_POINT('',(-12.96057264612,-1.59293937995,-0.45));
#1474 = CARTESIAN_POINT('',(-9.614575158425,-1.861946831472,-0.45));
#1475 = CARTESIAN_POINT('',(-7.772919879362,-1.511847713182,-0.45));
#1476 = CARTESIAN_POINT('',(-4.460572646127,-0.5,-0.45));
#1477 = ORIENTED_EDGE('',*,*,#1478,.F.);
#1478 = EDGE_CURVE('',#1479,#1470,#1481,.T.);
#1479 = VERTEX_POINT('',#1480);
#1480 = CARTESIAN_POINT('',(-4.460572646127,-0.5,0.45));
#1481 = LINE('',#1482,#1483);
#1482 = CARTESIAN_POINT('',(-4.460572646127,-0.5,0.45));
#1483 = VECTOR('',#1484,1.);
#1484 = DIRECTION('',(-0.,-0.,-1.));
#1485 = ORIENTED_EDGE('',*,*,#1486,.F.);
#1486 = EDGE_CURVE('',#1439,#1479,#1487,.T.);
#1487 = B_SPLINE_CURVE_WITH_KNOTS('',3,(#1488,#1489,#1490,#1491),
  .UNSPECIFIED.,.F.,.F.,(4,4),(0.,7.713092362711),
  .PIECEWISE_BEZIER_KNOTS.);
#1488 = CARTESIAN_POINT('',(-12.96057264612,-1.59293937995,0.45));
#1489 = CARTESIAN_POINT('',(-9.614575158425,-1.861946831472,0.45));
#1490 = CARTESIAN_POINT('',(-7.772919879362,-1.511847713182,0.45));
#1491 = CARTESIAN_POINT('',(-4.460572646127,-0.5,0.45));
#1492 = SURFACE_OF_LINEAR_EXTRUSION('',#1493,#1498);
#1493 = B_SPLINE_CURVE_WITH_KNOTS('',3,(#1494,#1495,#1496,#1497),
  .UNSPECIFIED.,.F.,.F.,(4,4),(0.,7.713092362711),
  .PIECEWISE_BEZIER_KNOTS.);
#1494 = CARTESIAN_POINT('',(-12.96057264612,-1.59293937995,0.45));
#1495 = CARTESIAN_POINT('',(-9.614575158425,-1.861946831472,0.45));
#1496 = CARTESIAN_POINT('',(-7.772919879362,-1.511847713182,0.45));
#1497 = CARTESIAN_POINT('',(-4.460572646127,-0.5,0.45));
#1498 = VECTOR('',#1499,1.);
#1499 = DIRECTION('',(0.,0.,1.));
#1500 = ADVANCED_FACE('',(#1501),#1528,.T.);
#1501 = FACE_BOUND('',#1502,.T.);
#1502 = EDGE_LOOP('',(#1503,#1504,#1513,#1521));
#1503 = ORIENTED_EDGE('',*,*,#1394,.T.);
#1504 = ORIENTED_EDGE('',*,*,#1505,.T.);
#1505 = EDGE_CURVE('',#1397,#1506,#1508,.T.);
#1506 = VERTEX_POINT('',#1507);
#1507 = CARTESIAN_POINT('',(-4.460572646127,0.5,-0.45));
#1508 = B_SPLINE_CURVE_WITH_KNOTS('',3,(#1509,#1510,#1511,#1512),
  .UNSPECIFIED.,.F.,.F.,(4,4),(0.,8.004126643707),
  .PIECEWISE_BEZIER_KNOTS.);
#1509 = CARTESIAN_POINT('',(-12.96057264612,1.994084710814,-0.45));
#1510 = CARTESIAN_POINT('',(-9.743120171793,1.968159410153,-0.45));
#1511 = CARTESIAN_POINT('',(-7.895882254224,1.800014898285,-0.45));
#1512 = CARTESIAN_POINT('',(-4.460572646127,0.5,-0.45));
#1513 = ORIENTED_EDGE('',*,*,#1514,.F.);
#1514 = EDGE_CURVE('',#1515,#1506,#1517,.T.);
#1515 = VERTEX_POINT('',#1516);
#1516 = CARTESIAN_POINT('',(-4.460572646127,0.5,0.45));
#1517 = LINE('',#1518,#1519);
#1518 = CARTESIAN_POINT('',(-4.460572646127,0.5,0.45));
#1519 = VECTOR('',#1520,1.);
#1520 = DIRECTION('',(-0.,-0.,-1.));
#1521 = ORIENTED_EDGE('',*,*,#1522,.F.);
#1522 = EDGE_CURVE('',#1395,#1515,#1523,.T.);
#1523 = B_SPLINE_CURVE_WITH_KNOTS('',3,(#1524,#1525,#1526,#1527),
  .UNSPECIFIED.,.F.,.F.,(4,4),(0.,8.004126643707),
  .PIECEWISE_BEZIER_KNOTS.);
#1524 = CARTESIAN_POINT('',(-12.96057264612,1.994084710814,0.45));
#1525 = CARTESIAN_POINT('',(-9.743120171793,1.968159410153,0.45));
#1526 = CARTESIAN_POINT('',(-7.895882254224,1.800014898285,0.45));
#1527 = CARTESIAN_POINT('',(-4.460572646127,0.5,0.45));
#1528 = SURFACE_OF_LINEAR_EXTRUSION('',#1529,#1534);
#1529 = B_SPLINE_CURVE_WITH_KNOTS('',3,(#1530,#1531,#1532,#1533),
  .UNSPECIFIED.,.F.,.F.,(4,4),(0.,8.004126643707),
  .PIECEWISE_BEZIER_KNOTS.);
#1530 = CARTESIAN_POINT('',(-12.96057264612,1.994084710814,0.45));
#1531 = CARTESIAN_POINT('',(-9.743120171793,1.968159410153,0.45));
#1532 = CARTESIAN_POINT('',(-7.895882254224,1.800014898285,0.45));
#1533 = CARTESIAN_POINT('',(-4.460572646127,0.5,0.45));
#1534 = VECTOR('',#1535,1.);
#1535 = DIRECTION('',(0.,0.,1.));
#1536 = ADVANCED_FACE('',(#1537),#1564,.F.);
#1537 = FACE_BOUND('',#1538,.F.);
#1538 = EDGE_LOOP('',(#1539,#1540,#1549,#1557));
#1539 = ORIENTED_EDGE('',*,*,#1412,.T.);
#1540 = ORIENTED_EDGE('',*,*,#1541,.T.);
#1541 = EDGE_CURVE('',#1413,#1542,#1544,.T.);
#1542 = VERTEX_POINT('',#1543);
#1543 = CARTESIAN_POINT('',(-6.289902491804,-5.345402958865E-02,-0.45));
#1544 = B_SPLINE_CURVE_WITH_KNOTS('',3,(#1545,#1546,#1547,#1548),
  .UNSPECIFIED.,.F.,.F.,(4,4),(0.,8.333393575818),
  .PIECEWISE_BEZIER_KNOTS.);
#1545 = CARTESIAN_POINT('',(-12.96057264612,0.994084710814,-0.45));
#1546 = CARTESIAN_POINT('',(-10.67433920356,1.129979830426,-0.45));
#1547 = CARTESIAN_POINT('',(-8.221196731705,0.988003210964,-0.45));
#1548 = CARTESIAN_POINT('',(-6.289902491804,-5.345402958866E-02,-0.45));
#1549 = ORIENTED_EDGE('',*,*,#1550,.F.);
#1550 = EDGE_CURVE('',#1551,#1542,#1553,.T.);
#1551 = VERTEX_POINT('',#1552);
#1552 = CARTESIAN_POINT('',(-6.289902491804,-5.345402958865E-02,0.45));
#1553 = LINE('',#1554,#1555);
#1554 = CARTESIAN_POINT('',(-6.289902491804,-5.345402958866E-02,0.45));
#1555 = VECTOR('',#1556,1.);
#1556 = DIRECTION('',(-0.,-0.,-1.));
#1557 = ORIENTED_EDGE('',*,*,#1558,.F.);
#1558 = EDGE_CURVE('',#1405,#1551,#1559,.T.);
#1559 = B_SPLINE_CURVE_WITH_KNOTS('',3,(#1560,#1561,#1562,#1563),
  .UNSPECIFIED.,.F.,.F.,(4,4),(0.,8.333393575818),
  .PIECEWISE_BEZIER_KNOTS.);
#1560 = CARTESIAN_POINT('',(-12.96057264612,0.994084710814,0.45));
#1561 = CARTESIAN_POINT('',(-10.67433920356,1.129979830426,0.45));
#1562 = CARTESIAN_POINT('',(-8.221196731705,0.988003210964,0.45));
#1563 = CARTESIAN_POINT('',(-6.289902491804,-5.345402958866E-02,0.45));
#1564 = SURFACE_OF_LINEAR_EXTRUSION('',#1565,#1570);
#1565 = B_SPLINE_CURVE_WITH_KNOTS('',3,(#1566,#1567,#1568,#1569),
  .UNSPECIFIED.,.F.,.F.,(4,4),(0.,8.333393575818),
  .PIECEWISE_BEZIER_KNOTS.);
#1566 = CARTESIAN_POINT('',(-12.96057264612,0.994084710814,0.45));
#1567 = CARTESIAN_POINT('',(-10.67433920356,1.129979830426,0.45));
#1568 = CARTESIAN_POINT('',(-8.221196731705,0.988003210964,0.45));
#1569 = CARTESIAN_POINT('',(-6.289902491804,-5.345402958866E-02,0.45));
#1570 = VECTOR('',#1571,1.);
#1571 = DIRECTION('',(0.,0.,1.));
#1572 = ADVANCED_FACE('',(#1573),#1591,.T.);
#1573 = FACE_BOUND('',#1574,.T.);
#1574 = EDGE_LOOP('',(#1575,#1576,#1583,#1584));
#1575 = ORIENTED_EDGE('',*,*,#1428,.T.);
#1576 = ORIENTED_EDGE('',*,*,#1577,.T.);
#1577 = EDGE_CURVE('',#1431,#1542,#1578,.T.);
#1578 = B_SPLINE_CURVE_WITH_KNOTS('',3,(#1579,#1580,#1581,#1582),
  .UNSPECIFIED.,.F.,.F.,(4,4),(0.,7.465390103588),
  .PIECEWISE_BEZIER_KNOTS.);
#1579 = CARTESIAN_POINT('',(-12.96057264612,-0.59293937995,-0.45));
#1580 = CARTESIAN_POINT('',(-10.90519980543,-0.784299387684,-0.45));
#1581 = CARTESIAN_POINT('',(-8.436535706001,-0.551221208266,-0.45));
#1582 = CARTESIAN_POINT('',(-6.289902491804,-5.345402958866E-02,-0.45));
#1583 = ORIENTED_EDGE('',*,*,#1550,.F.);
#1584 = ORIENTED_EDGE('',*,*,#1585,.F.);
#1585 = EDGE_CURVE('',#1429,#1551,#1586,.T.);
#1586 = B_SPLINE_CURVE_WITH_KNOTS('',3,(#1587,#1588,#1589,#1590),
  .UNSPECIFIED.,.F.,.F.,(4,4),(0.,7.465390103588),
  .PIECEWISE_BEZIER_KNOTS.);
#1587 = CARTESIAN_POINT('',(-12.96057264612,-0.59293937995,0.45));
#1588 = CARTESIAN_POINT('',(-10.90519980543,-0.784299387684,0.45));
#1589 = CARTESIAN_POINT('',(-8.436535706001,-0.551221208266,0.45));
#1590 = CARTESIAN_POINT('',(-6.289902491804,-5.345402958866E-02,0.45));
#1591 = SURFACE_OF_LINEAR_EXTRUSION('',#1592,#1597);
#1592 = B_SPLINE_CURVE_WITH_KNOTS('',3,(#1593,#1594,#1595,#1596),
  .UNSPECIFIED.,.F.,.F.,(4,4),(0.,7.465390103588),
  .PIECEWISE_BEZIER_KNOTS.);
#1593 = CARTESIAN_POINT('',(-12.96057264612,-0.59293937995,0.45));
#1594 = CARTESIAN_POINT('',(-10.90519980543,-0.784299387684,0.45));
#1595 = CARTESIAN_POINT('',(-8.436535706001,-0.551221208266,0.45));
#1596 = CARTESIAN_POINT('',(-6.289902491804,-5.345402958866E-02,0.45));
#1597 = VECTOR('',#1598,1.);
#1598 = DIRECTION('',(0.,0.,1.));
#1599 = ADVANCED_FACE('',(#1600),#1629,.T.);
#1600 = FACE_BOUND('',#1601,.T.);
#1601 = EDGE_LOOP('',(#1602,#1610,#1618,#1624,#1625,#1626,#1627,#1628));
#1602 = ORIENTED_EDGE('',*,*,#1603,.T.);
#1603 = EDGE_CURVE('',#1321,#1604,#1606,.T.);
#1604 = VERTEX_POINT('',#1605);
#1605 = CARTESIAN_POINT('',(21.364027353873,3.14355202211,1.5));
#1606 = LINE('',#1607,#1608);
#1607 = CARTESIAN_POINT('',(21.364027353873,3.14355202211,0.));
#1608 = VECTOR('',#1609,1.);
#1609 = DIRECTION('',(0.,0.,1.));
#1610 = ORIENTED_EDGE('',*,*,#1611,.F.);
#1611 = EDGE_CURVE('',#1612,#1604,#1614,.T.);
#1612 = VERTEX_POINT('',#1613);
#1613 = CARTESIAN_POINT('',(21.364027353873,-2.816597673152,1.5));
#1614 = LINE('',#1615,#1616);
#1615 = CARTESIAN_POINT('',(21.364027353873,-2.816597673152,1.5));
#1616 = VECTOR('',#1617,1.);
#1617 = DIRECTION('',(0.,1.,0.));
#1618 = ORIENTED_EDGE('',*,*,#1619,.T.);
#1619 = EDGE_CURVE('',#1612,#1332,#1620,.T.);
#1620 = LINE('',#1621,#1622);
#1621 = CARTESIAN_POINT('',(21.364027353873,-2.816597673152,0.));
#1622 = VECTOR('',#1623,1.);
#1623 = DIRECTION('',(-0.,-0.,-1.));
#1624 = ORIENTED_EDGE('',*,*,#1331,.T.);
#1625 = ORIENTED_EDGE('',*,*,#1272,.F.);
#1626 = ORIENTED_EDGE('',*,*,#1133,.F.);
#1627 = ORIENTED_EDGE('',*,*,#1305,.F.);
#1628 = ORIENTED_EDGE('',*,*,#1320,.T.);
#1629 = PLANE('',#1630);
#1630 = AXIS2_PLACEMENT_3D('',#1631,#1632,#1633);
#1631 = CARTESIAN_POINT('',(21.364027353873,0.163477174479,
    2.782103467111));
#1632 = DIRECTION('',(-1.,-0.,-0.));
#1633 = DIRECTION('',(0.,0.,-1.));
#1634 = ADVANCED_FACE('',(#1635),#1646,.T.);
#1635 = FACE_BOUND('',#1636,.T.);
#1636 = EDGE_LOOP('',(#1637,#1638,#1639,#1645));
#1637 = ORIENTED_EDGE('',*,*,#1339,.T.);
#1638 = ORIENTED_EDGE('',*,*,#1619,.F.);
#1639 = ORIENTED_EDGE('',*,*,#1640,.F.);
#1640 = EDGE_CURVE('',#1371,#1612,#1641,.T.);
#1641 = LINE('',#1642,#1643);
#1642 = CARTESIAN_POINT('',(-2.960572646127,-2.816597673152,1.5));
#1643 = VECTOR('',#1644,1.);
#1644 = DIRECTION('',(1.,0.,0.));
#1645 = ORIENTED_EDGE('',*,*,#1370,.F.);
#1646 = PLANE('',#1647);
#1647 = AXIS2_PLACEMENT_3D('',#1648,#1649,#1650);
#1648 = CARTESIAN_POINT('',(4.201727353873,-2.816597673152,-5.E-17));
#1649 = DIRECTION('',(-0.,-1.,-0.));
#1650 = DIRECTION('',(0.,0.,-1.));
#1651 = ADVANCED_FACE('',(#1652),#1663,.T.);
#1652 = FACE_BOUND('',#1653,.T.);
#1653 = EDGE_LOOP('',(#1654,#1655,#1656,#1657));
#1654 = ORIENTED_EDGE('',*,*,#1603,.F.);
#1655 = ORIENTED_EDGE('',*,*,#1355,.T.);
#1656 = ORIENTED_EDGE('',*,*,#1386,.T.);
#1657 = ORIENTED_EDGE('',*,*,#1658,.F.);
#1658 = EDGE_CURVE('',#1604,#1379,#1659,.T.);
#1659 = LINE('',#1660,#1661);
#1660 = CARTESIAN_POINT('',(-2.960572646127,3.14355202211,1.5));
#1661 = VECTOR('',#1662,1.);
#1662 = DIRECTION('',(-1.,0.,0.));
#1663 = PLANE('',#1664);
#1664 = AXIS2_PLACEMENT_3D('',#1665,#1666,#1667);
#1665 = CARTESIAN_POINT('',(4.201727353873,3.14355202211,-1.E-16));
#1666 = DIRECTION('',(0.,1.,0.));
#1667 = DIRECTION('',(0.,0.,1.));
#1668 = ADVANCED_FACE('',(#1669),#1675,.T.);
#1669 = FACE_BOUND('',#1670,.T.);
#1670 = EDGE_LOOP('',(#1671,#1672,#1673,#1674));
#1671 = ORIENTED_EDGE('',*,*,#1640,.T.);
#1672 = ORIENTED_EDGE('',*,*,#1611,.T.);
#1673 = ORIENTED_EDGE('',*,*,#1658,.T.);
#1674 = ORIENTED_EDGE('',*,*,#1378,.T.);
#1675 = PLANE('',#1676);
#1676 = AXIS2_PLACEMENT_3D('',#1677,#1678,#1679);
#1677 = CARTESIAN_POINT('',(4.201727353873,0.163477174479,1.5));
#1678 = DIRECTION('',(0.,0.,1.));
#1679 = DIRECTION('',(1.,0.,0.));
#1680 = ADVANCED_FACE('',(#1681),#1698,.T.);
#1681 = FACE_BOUND('',#1682,.T.);
#1682 = EDGE_LOOP('',(#1683,#1684,#1685,#1691,#1692));
#1683 = ORIENTED_EDGE('',*,*,#1105,.F.);
#1684 = ORIENTED_EDGE('',*,*,#342,.T.);
#1685 = ORIENTED_EDGE('',*,*,#1686,.F.);
#1686 = EDGE_CURVE('',#1515,#345,#1687,.T.);
#1687 = LINE('',#1688,#1689);
#1688 = CARTESIAN_POINT('',(-2.960572646127,0.5,0.45));
#1689 = VECTOR('',#1690,1.);
#1690 = DIRECTION('',(1.,0.,0.));
#1691 = ORIENTED_EDGE('',*,*,#1514,.T.);
#1692 = ORIENTED_EDGE('',*,*,#1693,.F.);
#1693 = EDGE_CURVE('',#1106,#1506,#1694,.T.);
#1694 = LINE('',#1695,#1696);
#1695 = CARTESIAN_POINT('',(-2.960572646127,0.5,-0.45));
#1696 = VECTOR('',#1697,1.);
#1697 = DIRECTION('',(-1.,0.,0.));
#1698 = PLANE('',#1699);
#1699 = AXIS2_PLACEMENT_3D('',#1700,#1701,#1702);
#1700 = CARTESIAN_POINT('',(-3.210572646127,0.5,0.));
#1701 = DIRECTION('',(-0.,-1.,-0.));
#1702 = DIRECTION('',(0.,0.,-1.));
#1703 = ADVANCED_FACE('',(#1704,#1740,#1743,#1754,#1765,#1776,#1787,
    #1790),#1793,.T.);
#1704 = FACE_BOUND('',#1705,.T.);
#1705 = EDGE_LOOP('',(#1706,#1712,#1713,#1714,#1715,#1716,#1717,#1718,
    #1719,#1720,#1721,#1722,#1723,#1724,#1725,#1726,#1727,#1728,#1729,
    #1730,#1731,#1732,#1733,#1734,#1735,#1736,#1737,#1738,#1739));
#1706 = ORIENTED_EDGE('',*,*,#1707,.F.);
#1707 = EDGE_CURVE('',#1479,#586,#1708,.T.);
#1708 = LINE('',#1709,#1710);
#1709 = CARTESIAN_POINT('',(-2.960572646127,-0.5,0.45));
#1710 = VECTOR('',#1711,1.);
#1711 = DIRECTION('',(1.,0.,0.));
#1712 = ORIENTED_EDGE('',*,*,#1486,.F.);
#1713 = ORIENTED_EDGE('',*,*,#1438,.F.);
#1714 = ORIENTED_EDGE('',*,*,#1585,.T.);
#1715 = ORIENTED_EDGE('',*,*,#1558,.F.);
#1716 = ORIENTED_EDGE('',*,*,#1404,.F.);
#1717 = ORIENTED_EDGE('',*,*,#1522,.T.);
#1718 = ORIENTED_EDGE('',*,*,#1686,.T.);
#1719 = ORIENTED_EDGE('',*,*,#352,.T.);
#1720 = ORIENTED_EDGE('',*,*,#419,.T.);
#1721 = ORIENTED_EDGE('',*,*,#435,.T.);
#1722 = ORIENTED_EDGE('',*,*,#502,.T.);
#1723 = ORIENTED_EDGE('',*,*,#518,.T.);
#1724 = ORIENTED_EDGE('',*,*,#303,.T.);
#1725 = ORIENTED_EDGE('',*,*,#183,.T.);
#1726 = ORIENTED_EDGE('',*,*,#99,.T.);
#1727 = ORIENTED_EDGE('',*,*,#31,.T.);
#1728 = ORIENTED_EDGE('',*,*,#123,.F.);
#1729 = ORIENTED_EDGE('',*,*,#281,.T.);
#1730 = ORIENTED_EDGE('',*,*,#569,.T.);
#1731 = ORIENTED_EDGE('',*,*,#925,.T.);
#1732 = ORIENTED_EDGE('',*,*,#878,.F.);
#1733 = ORIENTED_EDGE('',*,*,#842,.F.);
#1734 = ORIENTED_EDGE('',*,*,#827,.F.);
#1735 = ORIENTED_EDGE('',*,*,#759,.F.);
#1736 = ORIENTED_EDGE('',*,*,#720,.F.);
#1737 = ORIENTED_EDGE('',*,*,#676,.F.);
#1738 = ORIENTED_EDGE('',*,*,#637,.F.);
#1739 = ORIENTED_EDGE('',*,*,#593,.F.);
#1740 = FACE_BOUND('',#1741,.T.);
#1741 = EDGE_LOOP('',(#1742));
#1742 = ORIENTED_EDGE('',*,*,#1206,.T.);
#1743 = FACE_BOUND('',#1744,.T.);
#1744 = EDGE_LOOP('',(#1745));
#1745 = ORIENTED_EDGE('',*,*,#1746,.T.);
#1746 = EDGE_CURVE('',#1747,#1747,#1749,.T.);
#1747 = VERTEX_POINT('',#1748);
#1748 = CARTESIAN_POINT('',(19.326362650442,0.,0.45));
#1749 = CIRCLE('',#1750,1.082912650442);
#1750 = AXIS2_PLACEMENT_3D('',#1751,#1752,#1753);
#1751 = CARTESIAN_POINT('',(18.24345,0.,0.45));
#1752 = DIRECTION('',(0.,0.,1.));
#1753 = DIRECTION('',(1.,0.,0.));
#1754 = FACE_BOUND('',#1755,.T.);
#1755 = EDGE_LOOP('',(#1756));
#1756 = ORIENTED_EDGE('',*,*,#1757,.T.);
#1757 = EDGE_CURVE('',#1758,#1758,#1760,.T.);
#1758 = VERTEX_POINT('',#1759);
#1759 = CARTESIAN_POINT('',(7.164062650442,0.,0.45));
#1760 = CIRCLE('',#1761,1.082912650442);
#1761 = AXIS2_PLACEMENT_3D('',#1762,#1763,#1764);
#1762 = CARTESIAN_POINT('',(6.08115,0.,0.45));
#1763 = DIRECTION('',(0.,0.,1.));
#1764 = DIRECTION('',(1.,0.,0.));
#1765 = FACE_BOUND('',#1766,.T.);
#1766 = EDGE_LOOP('',(#1767));
#1767 = ORIENTED_EDGE('',*,*,#1768,.T.);
#1768 = EDGE_CURVE('',#1769,#1769,#1771,.T.);
#1769 = VERTEX_POINT('',#1770);
#1770 = CARTESIAN_POINT('',(1.082912650442,0.,0.45));
#1771 = CIRCLE('',#1772,1.082912650442);
#1772 = AXIS2_PLACEMENT_3D('',#1773,#1774,#1775);
#1773 = CARTESIAN_POINT('',(0.,0.,0.45));
#1774 = DIRECTION('',(0.,0.,1.));
#1775 = DIRECTION('',(1.,0.,0.));
#1776 = FACE_BOUND('',#1777,.T.);
#1777 = EDGE_LOOP('',(#1778));
#1778 = ORIENTED_EDGE('',*,*,#1779,.T.);
#1779 = EDGE_CURVE('',#1780,#1780,#1782,.T.);
#1780 = VERTEX_POINT('',#1781);
#1781 = CARTESIAN_POINT('',(13.245212650442,0.,0.45));
#1782 = CIRCLE('',#1783,1.082912650442);
#1783 = AXIS2_PLACEMENT_3D('',#1784,#1785,#1786);
#1784 = CARTESIAN_POINT('',(12.1623,0.,0.45));
#1785 = DIRECTION('',(0.,0.,1.));
#1786 = DIRECTION('',(1.,0.,0.));
#1787 = FACE_BOUND('',#1788,.T.);
#1788 = EDGE_LOOP('',(#1789));
#1789 = ORIENTED_EDGE('',*,*,#1256,.T.);
#1790 = FACE_BOUND('',#1791,.T.);
#1791 = EDGE_LOOP('',(#1792));
#1792 = ORIENTED_EDGE('',*,*,#1231,.T.);
#1793 = PLANE('',#1794);
#1794 = AXIS2_PLACEMENT_3D('',#1795,#1796,#1797);
#1795 = CARTESIAN_POINT('',(13.817358710502,7.036775523316E-02,0.45));
#1796 = DIRECTION('',(-0.,-0.,-1.));
#1797 = DIRECTION('',(-1.,0.,0.));
#1798 = ADVANCED_FACE('',(#1799),#1817,.T.);
#1799 = FACE_BOUND('',#1800,.F.);
#1800 = EDGE_LOOP('',(#1801,#1810,#1815,#1816));
#1801 = ORIENTED_EDGE('',*,*,#1802,.F.);
#1802 = EDGE_CURVE('',#1803,#1803,#1805,.T.);
#1803 = VERTEX_POINT('',#1804);
#1804 = CARTESIAN_POINT('',(19.326362650442,0.,-0.45));
#1805 = CIRCLE('',#1806,1.082912650442);
#1806 = AXIS2_PLACEMENT_3D('',#1807,#1808,#1809);
#1807 = CARTESIAN_POINT('',(18.24345,0.,-0.45));
#1808 = DIRECTION('',(0.,0.,1.));
#1809 = DIRECTION('',(1.,0.,0.));
#1810 = ORIENTED_EDGE('',*,*,#1811,.F.);
#1811 = EDGE_CURVE('',#1747,#1803,#1812,.T.);
#1812 = B_SPLINE_CURVE_WITH_KNOTS('',1,(#1813,#1814),.UNSPECIFIED.,.F.,
  .F.,(2,2),(-0.45,0.45),.PIECEWISE_BEZIER_KNOTS.);
#1813 = CARTESIAN_POINT('',(19.326362650442,-2.7E-16,0.45));
#1814 = CARTESIAN_POINT('',(19.326362650442,-2.7E-16,-0.45));
#1815 = ORIENTED_EDGE('',*,*,#1746,.T.);
#1816 = ORIENTED_EDGE('',*,*,#1811,.T.);
#1817 = CYLINDRICAL_SURFACE('',#1818,1.082912650442);
#1818 = AXIS2_PLACEMENT_3D('',#1819,#1820,#1821);
#1819 = CARTESIAN_POINT('',(18.24345,0.,0.));
#1820 = DIRECTION('',(-0.,-0.,-1.));
#1821 = DIRECTION('',(1.,0.,0.));
#1822 = ADVANCED_FACE('',(#1823),#1841,.T.);
#1823 = FACE_BOUND('',#1824,.T.);
#1824 = EDGE_LOOP('',(#1825,#1826,#1833,#1840));
#1825 = ORIENTED_EDGE('',*,*,#1757,.F.);
#1826 = ORIENTED_EDGE('',*,*,#1827,.F.);
#1827 = EDGE_CURVE('',#1828,#1758,#1830,.T.);
#1828 = VERTEX_POINT('',#1829);
#1829 = CARTESIAN_POINT('',(7.164062650442,0.,-0.45));
#1830 = B_SPLINE_CURVE_WITH_KNOTS('',1,(#1831,#1832),.UNSPECIFIED.,.F.,
  .F.,(2,2),(-0.45,0.45),.PIECEWISE_BEZIER_KNOTS.);
#1831 = CARTESIAN_POINT('',(7.164062650442,-2.7E-16,-0.45));
#1832 = CARTESIAN_POINT('',(7.164062650442,-2.7E-16,0.45));
#1833 = ORIENTED_EDGE('',*,*,#1834,.T.);
#1834 = EDGE_CURVE('',#1828,#1828,#1835,.T.);
#1835 = CIRCLE('',#1836,1.082912650442);
#1836 = AXIS2_PLACEMENT_3D('',#1837,#1838,#1839);
#1837 = CARTESIAN_POINT('',(6.08115,0.,-0.45));
#1838 = DIRECTION('',(0.,0.,1.));
#1839 = DIRECTION('',(1.,0.,0.));
#1840 = ORIENTED_EDGE('',*,*,#1827,.T.);
#1841 = CYLINDRICAL_SURFACE('',#1842,1.082912650442);
#1842 = AXIS2_PLACEMENT_3D('',#1843,#1844,#1845);
#1843 = CARTESIAN_POINT('',(6.08115,0.,0.));
#1844 = DIRECTION('',(0.,0.,1.));
#1845 = DIRECTION('',(1.,0.,0.));
#1846 = ADVANCED_FACE('',(#1847),#1865,.T.);
#1847 = FACE_BOUND('',#1848,.T.);
#1848 = EDGE_LOOP('',(#1849,#1850,#1857,#1864));
#1849 = ORIENTED_EDGE('',*,*,#1768,.F.);
#1850 = ORIENTED_EDGE('',*,*,#1851,.F.);
#1851 = EDGE_CURVE('',#1852,#1769,#1854,.T.);
#1852 = VERTEX_POINT('',#1853);
#1853 = CARTESIAN_POINT('',(1.082912650442,0.,-0.45));
#1854 = B_SPLINE_CURVE_WITH_KNOTS('',1,(#1855,#1856),.UNSPECIFIED.,.F.,
  .F.,(2,2),(-0.45,0.45),.PIECEWISE_BEZIER_KNOTS.);
#1855 = CARTESIAN_POINT('',(1.082912650442,-2.7E-16,-0.45));
#1856 = CARTESIAN_POINT('',(1.082912650442,-2.7E-16,0.45));
#1857 = ORIENTED_EDGE('',*,*,#1858,.T.);
#1858 = EDGE_CURVE('',#1852,#1852,#1859,.T.);
#1859 = CIRCLE('',#1860,1.082912650442);
#1860 = AXIS2_PLACEMENT_3D('',#1861,#1862,#1863);
#1861 = CARTESIAN_POINT('',(0.,0.,-0.45));
#1862 = DIRECTION('',(0.,0.,1.));
#1863 = DIRECTION('',(1.,0.,0.));
#1864 = ORIENTED_EDGE('',*,*,#1851,.T.);
#1865 = CYLINDRICAL_SURFACE('',#1866,1.082912650442);
#1866 = AXIS2_PLACEMENT_3D('',#1867,#1868,#1869);
#1867 = CARTESIAN_POINT('',(0.,0.,0.));
#1868 = DIRECTION('',(0.,0.,1.));
#1869 = DIRECTION('',(1.,0.,0.));
#1870 = ADVANCED_FACE('',(#1871),#1889,.T.);
#1871 = FACE_BOUND('',#1872,.F.);
#1872 = EDGE_LOOP('',(#1873,#1882,#1887,#1888));
#1873 = ORIENTED_EDGE('',*,*,#1874,.F.);
#1874 = EDGE_CURVE('',#1875,#1875,#1877,.T.);
#1875 = VERTEX_POINT('',#1876);
#1876 = CARTESIAN_POINT('',(13.245212650442,0.,-0.45));
#1877 = CIRCLE('',#1878,1.082912650442);
#1878 = AXIS2_PLACEMENT_3D('',#1879,#1880,#1881);
#1879 = CARTESIAN_POINT('',(12.1623,0.,-0.45));
#1880 = DIRECTION('',(0.,0.,1.));
#1881 = DIRECTION('',(1.,0.,0.));
#1882 = ORIENTED_EDGE('',*,*,#1883,.F.);
#1883 = EDGE_CURVE('',#1780,#1875,#1884,.T.);
#1884 = B_SPLINE_CURVE_WITH_KNOTS('',1,(#1885,#1886),.UNSPECIFIED.,.F.,
  .F.,(2,2),(-0.45,0.45),.PIECEWISE_BEZIER_KNOTS.);
#1885 = CARTESIAN_POINT('',(13.245212650442,-2.7E-16,0.45));
#1886 = CARTESIAN_POINT('',(13.245212650442,-2.7E-16,-0.45));
#1887 = ORIENTED_EDGE('',*,*,#1779,.T.);
#1888 = ORIENTED_EDGE('',*,*,#1883,.T.);
#1889 = CYLINDRICAL_SURFACE('',#1890,1.082912650442);
#1890 = AXIS2_PLACEMENT_3D('',#1891,#1892,#1893);
#1891 = CARTESIAN_POINT('',(12.1623,0.,0.));
#1892 = DIRECTION('',(-0.,-0.,-1.));
#1893 = DIRECTION('',(1.,0.,0.));
#1894 = ADVANCED_FACE('',(#1895,#1931,#1934,#1937,#1940),#1943,.T.);
#1895 = FACE_BOUND('',#1896,.T.);
#1896 = EDGE_LOOP('',(#1897,#1898,#1899,#1900,#1901,#1902,#1903,#1904,
    #1910,#1911,#1912,#1913,#1914,#1915,#1916,#1917,#1918,#1919,#1920,
    #1921,#1922,#1923,#1924,#1925,#1926,#1927,#1928,#1929,#1930));
#1897 = ORIENTED_EDGE('',*,*,#1693,.T.);
#1898 = ORIENTED_EDGE('',*,*,#1505,.F.);
#1899 = ORIENTED_EDGE('',*,*,#1420,.T.);
#1900 = ORIENTED_EDGE('',*,*,#1541,.T.);
#1901 = ORIENTED_EDGE('',*,*,#1577,.F.);
#1902 = ORIENTED_EDGE('',*,*,#1454,.T.);
#1903 = ORIENTED_EDGE('',*,*,#1469,.T.);
#1904 = ORIENTED_EDGE('',*,*,#1905,.T.);
#1905 = EDGE_CURVE('',#1470,#952,#1906,.T.);
#1906 = LINE('',#1907,#1908);
#1907 = CARTESIAN_POINT('',(-4.460572646127,-0.5,-0.45));
#1908 = VECTOR('',#1909,1.);
#1909 = DIRECTION('',(1.,0.,0.));
#1910 = ORIENTED_EDGE('',*,*,#959,.T.);
#1911 = ORIENTED_EDGE('',*,*,#661,.T.);
#1912 = ORIENTED_EDGE('',*,*,#980,.T.);
#1913 = ORIENTED_EDGE('',*,*,#744,.T.);
#1914 = ORIENTED_EDGE('',*,*,#1001,.T.);
#1915 = ORIENTED_EDGE('',*,*,#812,.T.);
#1916 = ORIENTED_EDGE('',*,*,#1022,.T.);
#1917 = ORIENTED_EDGE('',*,*,#902,.T.);
#1918 = ORIENTED_EDGE('',*,*,#1043,.F.);
#1919 = ORIENTED_EDGE('',*,*,#545,.F.);
#1920 = ORIENTED_EDGE('',*,*,#288,.F.);
#1921 = ORIENTED_EDGE('',*,*,#138,.T.);
#1922 = ORIENTED_EDGE('',*,*,#153,.F.);
#1923 = ORIENTED_EDGE('',*,*,#84,.F.);
#1924 = ORIENTED_EDGE('',*,*,#217,.F.);
#1925 = ORIENTED_EDGE('',*,*,#327,.F.);
#1926 = ORIENTED_EDGE('',*,*,#1064,.F.);
#1927 = ORIENTED_EDGE('',*,*,#478,.F.);
#1928 = ORIENTED_EDGE('',*,*,#1085,.F.);
#1929 = ORIENTED_EDGE('',*,*,#395,.F.);
#1930 = ORIENTED_EDGE('',*,*,#1113,.F.);
#1931 = FACE_BOUND('',#1932,.T.);
#1932 = EDGE_LOOP('',(#1933));
#1933 = ORIENTED_EDGE('',*,*,#1802,.F.);
#1934 = FACE_BOUND('',#1935,.T.);
#1935 = EDGE_LOOP('',(#1936));
#1936 = ORIENTED_EDGE('',*,*,#1834,.F.);
#1937 = FACE_BOUND('',#1938,.T.);
#1938 = EDGE_LOOP('',(#1939));
#1939 = ORIENTED_EDGE('',*,*,#1874,.F.);
#1940 = FACE_BOUND('',#1941,.T.);
#1941 = EDGE_LOOP('',(#1942));
#1942 = ORIENTED_EDGE('',*,*,#1858,.F.);
#1943 = PLANE('',#1944);
#1944 = AXIS2_PLACEMENT_3D('',#1945,#1946,#1947);
#1945 = CARTESIAN_POINT('',(13.817358710502,7.036775523316E-02,-0.45));
#1946 = DIRECTION('',(0.,0.,1.));
#1947 = DIRECTION('',(1.,0.,-0.));
#1948 = ADVANCED_FACE('',(#1949),#1956,.T.);
#1949 = FACE_BOUND('',#1950,.T.);
#1950 = EDGE_LOOP('',(#1951,#1952,#1953,#1954,#1955));
#1951 = ORIENTED_EDGE('',*,*,#1707,.T.);
#1952 = ORIENTED_EDGE('',*,*,#583,.F.);
#1953 = ORIENTED_EDGE('',*,*,#951,.T.);
#1954 = ORIENTED_EDGE('',*,*,#1905,.F.);
#1955 = ORIENTED_EDGE('',*,*,#1478,.F.);
#1956 = PLANE('',#1957);
#1957 = AXIS2_PLACEMENT_3D('',#1958,#1959,#1960);
#1958 = CARTESIAN_POINT('',(-3.210572646127,-0.5,0.));
#1959 = DIRECTION('',(0.,1.,0.));
#1960 = DIRECTION('',(0.,-0.,1.));
#1961 = ( GEOMETRIC_REPRESENTATION_CONTEXT(3) 
GLOBAL_UNCERTAINTY_ASSIGNED_CONTEXT((#1965)) 
GLOBAL_UNIT_ASSIGNED_CONTEXT((#1962,#1963,#1964)) REPRESENTATION_CONTEXT
('Context #1','3D Context with UNIT and UNCERTAINTY') );
#1962 = ( LENGTH_UNIT() NAMED_UNIT(*) SI_UNIT(.MILLI.,.METRE.) );
#1963 = ( NAMED_UNIT(*) PLANE_ANGLE_UNIT() SI_UNIT($,.RADIAN.) );
#1964 = ( NAMED_UNIT(*) SI_UNIT($,.STERADIAN.) SOLID_ANGLE_UNIT() );
#1965 = UNCERTAINTY_MEASURE_WITH_UNIT(LENGTH_MEASURE(5.E-05),#1962,
  'distance_accuracy_value','confusion accuracy');
#1966 = PRODUCT_RELATED_PRODUCT_CATEGORY('part',$,(#7));
#1967 = MECHANICAL_DESIGN_GEOMETRIC_PRESENTATION_REPRESENTATION('',(
    #1968),#1961);
#1968 = STYLED_ITEM('color',(#1969),#15);
#1969 = PRESENTATION_STYLE_ASSIGNMENT((#1970,#1978));
#1970 = SURFACE_STYLE_USAGE(.BOTH.,#1971);
#1971 = SURFACE_SIDE_STYLE('',(#1972,#1976));
#1972 = SURFACE_STYLE_FILL_AREA(#1973);
#1973 = FILL_AREA_STYLE('',(#1974));
#1974 = FILL_AREA_STYLE_COLOUR('',#1975);
#1975 = COLOUR_RGB('',0.447058818107,0.474509808674,0.501960817233);
#1976 = SURFACE_STYLE_RENDERING_WITH_PROPERTIES(.NORMAL_SHADING.,#1975,(
    #1977));
#1977 = SURFACE_STYLE_TRANSPARENT(0.699999988079);
#1978 = CURVE_STYLE('',#1979,POSITIVE_LENGTH_MEASURE(0.1),#1980);
#1979 = DRAUGHTING_PRE_DEFINED_CURVE_FONT('continuous');
#1980 = COLOUR_RGB('',9.803921802644E-02,9.803921802644E-02,
  9.803921802644E-02);
ENDSEC;
END-ISO-10303-21;
