ISO-10303-21;
HEADER;
FILE_DESCRIPTION(('FreeCAD Model'),'2;1');
FILE_NAME('Open CASCADE Shape Model','2025-04-18T17:25:23',(''),(''),
  'Open CASCADE STEP processor 7.8','FreeCAD','Unknown');
FILE_SCHEMA(('AUTOMOTIVE_DESIGN { 1 0 10303 214 1 1 1 1 }'));
ENDSEC;
DATA;
#1 = APPLICATION_PROTOCOL_DEFINITION('international standard',
  'automotive_design',2000,#2);
#2 = APPLICATION_CONTEXT(
  'core data for automotive mechanical design processes');
#3 = SHAPE_DEFINITION_REPRESENTATION(#4,#10);
#4 = PRODUCT_DEFINITION_SHAPE('','',#5);
#5 = PRODUCT_DEFINITION('design','',#6,#9);
#6 = PRODUCT_DEFINITION_FORMATION('','',#7);
#7 = PRODUCT('Box','Box','',(#8));
#8 = PRODUCT_CONTEXT('',#2,'mechanical');
#9 = PRODUCT_DEFINITION_CONTEXT('part definition',#2,'design');
#10 = ADVANCED_BREP_SHAPE_REPRESENTATION('',(#11,#15),#1095);
#11 = AXIS2_PLACEMENT_3D('',#12,#13,#14);
#12 = CARTESIAN_POINT('',(0.,0.,0.));
#13 = DIRECTION('',(0.,0.,1.));
#14 = DIRECTION('',(1.,0.,-0.));
#15 = MANIFOLD_SOLID_BREP('',#16);
#16 = CLOSED_SHELL('',(#17,#57,#88,#119,#136,#185,#220,#244,#268,#317,
    #348,#404,#460,#606,#630,#654,#800,#817,#834,#846,#863,#880,#897,
    #914,#931,#948,#965,#982,#999,#1016,#1033,#1050,#1067,#1079));
#17 = ADVANCED_FACE('',(#18),#52,.F.);
#18 = FACE_BOUND('',#19,.F.);
#19 = EDGE_LOOP('',(#20,#30,#38,#46));
#20 = ORIENTED_EDGE('',*,*,#21,.T.);
#21 = EDGE_CURVE('',#22,#24,#26,.T.);
#22 = VERTEX_POINT('',#23);
#23 = CARTESIAN_POINT('',(-110.,220.,0.));
#24 = VERTEX_POINT('',#25);
#25 = CARTESIAN_POINT('',(-110.,220.,140.));
#26 = LINE('',#27,#28);
#27 = CARTESIAN_POINT('',(-110.,220.,0.));
#28 = VECTOR('',#29,1.);
#29 = DIRECTION('',(0.,0.,1.));
#30 = ORIENTED_EDGE('',*,*,#31,.T.);
#31 = EDGE_CURVE('',#24,#32,#34,.T.);
#32 = VERTEX_POINT('',#33);
#33 = CARTESIAN_POINT('',(-110.,0.,140.));
#34 = LINE('',#35,#36);
#35 = CARTESIAN_POINT('',(-110.,220.,140.));
#36 = VECTOR('',#37,1.);
#37 = DIRECTION('',(0.,-1.,0.));
#38 = ORIENTED_EDGE('',*,*,#39,.F.);
#39 = EDGE_CURVE('',#40,#32,#42,.T.);
#40 = VERTEX_POINT('',#41);
#41 = CARTESIAN_POINT('',(-110.,0.,0.));
#42 = LINE('',#43,#44);
#43 = CARTESIAN_POINT('',(-110.,0.,0.));
#44 = VECTOR('',#45,1.);
#45 = DIRECTION('',(0.,0.,1.));
#46 = ORIENTED_EDGE('',*,*,#47,.F.);
#47 = EDGE_CURVE('',#22,#40,#48,.T.);
#48 = LINE('',#49,#50);
#49 = CARTESIAN_POINT('',(-110.,220.,0.));
#50 = VECTOR('',#51,1.);
#51 = DIRECTION('',(0.,-1.,0.));
#52 = PLANE('',#53);
#53 = AXIS2_PLACEMENT_3D('',#54,#55,#56);
#54 = CARTESIAN_POINT('',(-110.,220.,0.));
#55 = DIRECTION('',(1.,0.,0.));
#56 = DIRECTION('',(0.,-1.,0.));
#57 = ADVANCED_FACE('',(#58),#83,.F.);
#58 = FACE_BOUND('',#59,.F.);
#59 = EDGE_LOOP('',(#60,#70,#76,#77));
#60 = ORIENTED_EDGE('',*,*,#61,.T.);
#61 = EDGE_CURVE('',#62,#64,#66,.T.);
#62 = VERTEX_POINT('',#63);
#63 = CARTESIAN_POINT('',(110.,220.,0.));
#64 = VERTEX_POINT('',#65);
#65 = CARTESIAN_POINT('',(110.,220.,140.));
#66 = LINE('',#67,#68);
#67 = CARTESIAN_POINT('',(110.,220.,0.));
#68 = VECTOR('',#69,1.);
#69 = DIRECTION('',(0.,0.,1.));
#70 = ORIENTED_EDGE('',*,*,#71,.T.);
#71 = EDGE_CURVE('',#64,#24,#72,.T.);
#72 = LINE('',#73,#74);
#73 = CARTESIAN_POINT('',(110.,220.,140.));
#74 = VECTOR('',#75,1.);
#75 = DIRECTION('',(-1.,0.,0.));
#76 = ORIENTED_EDGE('',*,*,#21,.F.);
#77 = ORIENTED_EDGE('',*,*,#78,.F.);
#78 = EDGE_CURVE('',#62,#22,#79,.T.);
#79 = LINE('',#80,#81);
#80 = CARTESIAN_POINT('',(110.,220.,0.));
#81 = VECTOR('',#82,1.);
#82 = DIRECTION('',(-1.,0.,0.));
#83 = PLANE('',#84);
#84 = AXIS2_PLACEMENT_3D('',#85,#86,#87);
#85 = CARTESIAN_POINT('',(110.,220.,0.));
#86 = DIRECTION('',(0.,-1.,0.));
#87 = DIRECTION('',(-1.,0.,0.));
#88 = ADVANCED_FACE('',(#89),#114,.F.);
#89 = FACE_BOUND('',#90,.F.);
#90 = EDGE_LOOP('',(#91,#92,#100,#108));
#91 = ORIENTED_EDGE('',*,*,#39,.T.);
#92 = ORIENTED_EDGE('',*,*,#93,.T.);
#93 = EDGE_CURVE('',#32,#94,#96,.T.);
#94 = VERTEX_POINT('',#95);
#95 = CARTESIAN_POINT('',(110.,0.,140.));
#96 = LINE('',#97,#98);
#97 = CARTESIAN_POINT('',(-110.,0.,140.));
#98 = VECTOR('',#99,1.);
#99 = DIRECTION('',(1.,0.,0.));
#100 = ORIENTED_EDGE('',*,*,#101,.F.);
#101 = EDGE_CURVE('',#102,#94,#104,.T.);
#102 = VERTEX_POINT('',#103);
#103 = CARTESIAN_POINT('',(110.,0.,0.));
#104 = LINE('',#105,#106);
#105 = CARTESIAN_POINT('',(110.,0.,0.));
#106 = VECTOR('',#107,1.);
#107 = DIRECTION('',(0.,0.,1.));
#108 = ORIENTED_EDGE('',*,*,#109,.F.);
#109 = EDGE_CURVE('',#40,#102,#110,.T.);
#110 = LINE('',#111,#112);
#111 = CARTESIAN_POINT('',(-110.,0.,0.));
#112 = VECTOR('',#113,1.);
#113 = DIRECTION('',(1.,0.,0.));
#114 = PLANE('',#115);
#115 = AXIS2_PLACEMENT_3D('',#116,#117,#118);
#116 = CARTESIAN_POINT('',(-110.,0.,0.));
#117 = DIRECTION('',(0.,1.,0.));
#118 = DIRECTION('',(1.,0.,0.));
#119 = ADVANCED_FACE('',(#120),#131,.F.);
#120 = FACE_BOUND('',#121,.F.);
#121 = EDGE_LOOP('',(#122,#123,#124,#130));
#122 = ORIENTED_EDGE('',*,*,#47,.T.);
#123 = ORIENTED_EDGE('',*,*,#109,.T.);
#124 = ORIENTED_EDGE('',*,*,#125,.T.);
#125 = EDGE_CURVE('',#102,#62,#126,.T.);
#126 = LINE('',#127,#128);
#127 = CARTESIAN_POINT('',(110.,0.,0.));
#128 = VECTOR('',#129,1.);
#129 = DIRECTION('',(0.,1.,0.));
#130 = ORIENTED_EDGE('',*,*,#78,.T.);
#131 = PLANE('',#132);
#132 = AXIS2_PLACEMENT_3D('',#133,#134,#135);
#133 = CARTESIAN_POINT('',(0.,110.,0.));
#134 = DIRECTION('',(0.,0.,1.));
#135 = DIRECTION('',(1.,0.,0.));
#136 = ADVANCED_FACE('',(#137),#180,.T.);
#137 = FACE_BOUND('',#138,.T.);
#138 = EDGE_LOOP('',(#139,#140,#141,#142,#150,#158,#166,#174));
#139 = ORIENTED_EDGE('',*,*,#71,.T.);
#140 = ORIENTED_EDGE('',*,*,#31,.T.);
#141 = ORIENTED_EDGE('',*,*,#93,.T.);
#142 = ORIENTED_EDGE('',*,*,#143,.T.);
#143 = EDGE_CURVE('',#94,#144,#146,.T.);
#144 = VERTEX_POINT('',#145);
#145 = CARTESIAN_POINT('',(110.,8.,140.));
#146 = LINE('',#147,#148);
#147 = CARTESIAN_POINT('',(110.,0.,140.));
#148 = VECTOR('',#149,1.);
#149 = DIRECTION('',(0.,1.,0.));
#150 = ORIENTED_EDGE('',*,*,#151,.T.);
#151 = EDGE_CURVE('',#144,#152,#154,.T.);
#152 = VERTEX_POINT('',#153);
#153 = CARTESIAN_POINT('',(-102.,8.,140.));
#154 = LINE('',#155,#156);
#155 = CARTESIAN_POINT('',(110.,8.,140.));
#156 = VECTOR('',#157,1.);
#157 = DIRECTION('',(-1.,-0.,-0.));
#158 = ORIENTED_EDGE('',*,*,#159,.F.);
#159 = EDGE_CURVE('',#160,#152,#162,.T.);
#160 = VERTEX_POINT('',#161);
#161 = CARTESIAN_POINT('',(-102.,212.,140.));
#162 = LINE('',#163,#164);
#163 = CARTESIAN_POINT('',(-102.,212.,140.));
#164 = VECTOR('',#165,1.);
#165 = DIRECTION('',(0.,-1.,0.));
#166 = ORIENTED_EDGE('',*,*,#167,.F.);
#167 = EDGE_CURVE('',#168,#160,#170,.T.);
#168 = VERTEX_POINT('',#169);
#169 = CARTESIAN_POINT('',(110.,212.,140.));
#170 = LINE('',#171,#172);
#171 = CARTESIAN_POINT('',(102.,212.,140.));
#172 = VECTOR('',#173,1.);
#173 = DIRECTION('',(-1.,0.,0.));
#174 = ORIENTED_EDGE('',*,*,#175,.T.);
#175 = EDGE_CURVE('',#168,#64,#176,.T.);
#176 = LINE('',#177,#178);
#177 = CARTESIAN_POINT('',(110.,0.,140.));
#178 = VECTOR('',#179,1.);
#179 = DIRECTION('',(0.,1.,0.));
#180 = PLANE('',#181);
#181 = AXIS2_PLACEMENT_3D('',#182,#183,#184);
#182 = CARTESIAN_POINT('',(0.,110.,140.));
#183 = DIRECTION('',(0.,0.,1.));
#184 = DIRECTION('',(1.,0.,0.));
#185 = ADVANCED_FACE('',(#186),#215,.F.);
#186 = FACE_BOUND('',#187,.F.);
#187 = EDGE_LOOP('',(#188,#189,#190,#191,#199,#207,#213,#214));
#188 = ORIENTED_EDGE('',*,*,#125,.F.);
#189 = ORIENTED_EDGE('',*,*,#101,.T.);
#190 = ORIENTED_EDGE('',*,*,#143,.T.);
#191 = ORIENTED_EDGE('',*,*,#192,.F.);
#192 = EDGE_CURVE('',#193,#144,#195,.T.);
#193 = VERTEX_POINT('',#194);
#194 = CARTESIAN_POINT('',(110.,4.818019484661,136.81801948466));
#195 = LINE('',#196,#197);
#196 = CARTESIAN_POINT('',(110.,4.818019484661,136.81801948466));
#197 = VECTOR('',#198,1.);
#198 = DIRECTION('',(0.,0.707106781187,0.707106781187));
#199 = ORIENTED_EDGE('',*,*,#200,.T.);
#200 = EDGE_CURVE('',#193,#201,#203,.T.);
#201 = VERTEX_POINT('',#202);
#202 = CARTESIAN_POINT('',(110.,215.18198051533,136.81801948466));
#203 = LINE('',#204,#205);
#204 = CARTESIAN_POINT('',(110.,4.818019484661,136.81801948466));
#205 = VECTOR('',#206,1.);
#206 = DIRECTION('',(0.,1.,0.));
#207 = ORIENTED_EDGE('',*,*,#208,.T.);
#208 = EDGE_CURVE('',#201,#168,#209,.T.);
#209 = LINE('',#210,#211);
#210 = CARTESIAN_POINT('',(110.,215.18198051533,136.81801948466));
#211 = VECTOR('',#212,1.);
#212 = DIRECTION('',(0.,-0.707106781187,0.707106781187));
#213 = ORIENTED_EDGE('',*,*,#175,.T.);
#214 = ORIENTED_EDGE('',*,*,#61,.F.);
#215 = PLANE('',#216);
#216 = AXIS2_PLACEMENT_3D('',#217,#218,#219);
#217 = CARTESIAN_POINT('',(110.,0.,0.));
#218 = DIRECTION('',(-1.,0.,0.));
#219 = DIRECTION('',(0.,1.,0.));
#220 = ADVANCED_FACE('',(#221),#239,.F.);
#221 = FACE_BOUND('',#222,.F.);
#222 = EDGE_LOOP('',(#223,#224,#232,#238));
#223 = ORIENTED_EDGE('',*,*,#208,.F.);
#224 = ORIENTED_EDGE('',*,*,#225,.T.);
#225 = EDGE_CURVE('',#201,#226,#228,.T.);
#226 = VERTEX_POINT('',#227);
#227 = CARTESIAN_POINT('',(-102.,215.18198051533,136.81801948466));
#228 = LINE('',#229,#230);
#229 = CARTESIAN_POINT('',(110.,215.18198051533,136.81801948466));
#230 = VECTOR('',#231,1.);
#231 = DIRECTION('',(-1.,-0.,-0.));
#232 = ORIENTED_EDGE('',*,*,#233,.T.);
#233 = EDGE_CURVE('',#226,#160,#234,.T.);
#234 = LINE('',#235,#236);
#235 = CARTESIAN_POINT('',(-102.,213.59099025767,138.40900974233));
#236 = VECTOR('',#237,1.);
#237 = DIRECTION('',(0.,-0.707106781187,0.707106781187));
#238 = ORIENTED_EDGE('',*,*,#167,.F.);
#239 = PLANE('',#240);
#240 = AXIS2_PLACEMENT_3D('',#241,#242,#243);
#241 = CARTESIAN_POINT('',(110.,215.18198051533,136.81801948466));
#242 = DIRECTION('',(0.,0.707106781187,0.707106781187));
#243 = DIRECTION('',(0.,-0.707106781187,0.707106781187));
#244 = ADVANCED_FACE('',(#245),#263,.T.);
#245 = FACE_BOUND('',#246,.T.);
#246 = EDGE_LOOP('',(#247,#248,#256,#262));
#247 = ORIENTED_EDGE('',*,*,#192,.F.);
#248 = ORIENTED_EDGE('',*,*,#249,.T.);
#249 = EDGE_CURVE('',#193,#250,#252,.T.);
#250 = VERTEX_POINT('',#251);
#251 = CARTESIAN_POINT('',(-102.,4.818019484661,136.81801948466));
#252 = LINE('',#253,#254);
#253 = CARTESIAN_POINT('',(110.,4.818019484661,136.81801948466));
#254 = VECTOR('',#255,1.);
#255 = DIRECTION('',(-1.,-0.,-0.));
#256 = ORIENTED_EDGE('',*,*,#257,.T.);
#257 = EDGE_CURVE('',#250,#152,#258,.T.);
#258 = LINE('',#259,#260);
#259 = CARTESIAN_POINT('',(-102.,57.40900974233,189.40900974233));
#260 = VECTOR('',#261,1.);
#261 = DIRECTION('',(0.,0.707106781187,0.707106781187));
#262 = ORIENTED_EDGE('',*,*,#151,.F.);
#263 = PLANE('',#264);
#264 = AXIS2_PLACEMENT_3D('',#265,#266,#267);
#265 = CARTESIAN_POINT('',(110.,4.818019484661,136.81801948466));
#266 = DIRECTION('',(0.,0.707106781187,-0.707106781187));
#267 = DIRECTION('',(0.,0.707106781187,0.707106781187));
#268 = ADVANCED_FACE('',(#269),#312,.F.);
#269 = FACE_BOUND('',#270,.F.);
#270 = EDGE_LOOP('',(#271,#272,#273,#281,#289,#297,#305,#311));
#271 = ORIENTED_EDGE('',*,*,#200,.F.);
#272 = ORIENTED_EDGE('',*,*,#249,.T.);
#273 = ORIENTED_EDGE('',*,*,#274,.T.);
#274 = EDGE_CURVE('',#250,#275,#277,.T.);
#275 = VERTEX_POINT('',#276);
#276 = CARTESIAN_POINT('',(-102.,8.,136.81801948466));
#277 = LINE('',#278,#279);
#278 = CARTESIAN_POINT('',(-102.,108.40900974233,136.81801948466));
#279 = VECTOR('',#280,1.);
#280 = DIRECTION('',(0.,1.,0.));
#281 = ORIENTED_EDGE('',*,*,#282,.F.);
#282 = EDGE_CURVE('',#283,#275,#285,.T.);
#283 = VERTEX_POINT('',#284);
#284 = CARTESIAN_POINT('',(102.,8.,136.81801948466));
#285 = LINE('',#286,#287);
#286 = CARTESIAN_POINT('',(50.180975609756,8.,136.81801948466));
#287 = VECTOR('',#288,1.);
#288 = DIRECTION('',(-1.,0.,0.));
#289 = ORIENTED_EDGE('',*,*,#290,.F.);
#290 = EDGE_CURVE('',#291,#283,#293,.T.);
#291 = VERTEX_POINT('',#292);
#292 = CARTESIAN_POINT('',(102.,212.,136.81801948466));
#293 = LINE('',#294,#295);
#294 = CARTESIAN_POINT('',(102.,54.376814620379,136.81801948466));
#295 = VECTOR('',#296,1.);
#296 = DIRECTION('',(0.,-1.,0.));
#297 = ORIENTED_EDGE('',*,*,#298,.T.);
#298 = EDGE_CURVE('',#291,#299,#301,.T.);
#299 = VERTEX_POINT('',#300);
#300 = CARTESIAN_POINT('',(-102.,212.,136.81801948466));
#301 = LINE('',#302,#303);
#302 = CARTESIAN_POINT('',(106.,212.,136.81801948466));
#303 = VECTOR('',#304,1.);
#304 = DIRECTION('',(-1.,0.,0.));
#305 = ORIENTED_EDGE('',*,*,#306,.T.);
#306 = EDGE_CURVE('',#299,#226,#307,.T.);
#307 = LINE('',#308,#309);
#308 = CARTESIAN_POINT('',(-102.,108.40900974233,136.81801948466));
#309 = VECTOR('',#310,1.);
#310 = DIRECTION('',(0.,1.,0.));
#311 = ORIENTED_EDGE('',*,*,#225,.F.);
#312 = PLANE('',#313);
#313 = AXIS2_PLACEMENT_3D('',#314,#315,#316);
#314 = CARTESIAN_POINT('',(110.,4.818019484661,136.81801948466));
#315 = DIRECTION('',(0.,0.,-1.));
#316 = DIRECTION('',(0.,1.,0.));
#317 = ADVANCED_FACE('',(#318),#343,.F.);
#318 = FACE_BOUND('',#319,.F.);
#319 = EDGE_LOOP('',(#320,#321,#329,#337));
#320 = ORIENTED_EDGE('',*,*,#298,.F.);
#321 = ORIENTED_EDGE('',*,*,#322,.T.);
#322 = EDGE_CURVE('',#291,#323,#325,.T.);
#323 = VERTEX_POINT('',#324);
#324 = CARTESIAN_POINT('',(102.,212.,8.));
#325 = LINE('',#326,#327);
#326 = CARTESIAN_POINT('',(102.,212.,140.));
#327 = VECTOR('',#328,1.);
#328 = DIRECTION('',(-0.,-0.,-1.));
#329 = ORIENTED_EDGE('',*,*,#330,.T.);
#330 = EDGE_CURVE('',#323,#331,#333,.T.);
#331 = VERTEX_POINT('',#332);
#332 = CARTESIAN_POINT('',(-102.,212.,8.));
#333 = LINE('',#334,#335);
#334 = CARTESIAN_POINT('',(102.,212.,8.));
#335 = VECTOR('',#336,1.);
#336 = DIRECTION('',(-1.,0.,0.));
#337 = ORIENTED_EDGE('',*,*,#338,.F.);
#338 = EDGE_CURVE('',#299,#331,#339,.T.);
#339 = LINE('',#340,#341);
#340 = CARTESIAN_POINT('',(-102.,212.,140.));
#341 = VECTOR('',#342,1.);
#342 = DIRECTION('',(-0.,-0.,-1.));
#343 = PLANE('',#344);
#344 = AXIS2_PLACEMENT_3D('',#345,#346,#347);
#345 = CARTESIAN_POINT('',(102.,212.,140.));
#346 = DIRECTION('',(0.,1.,0.));
#347 = DIRECTION('',(-1.,0.,0.));
#348 = ADVANCED_FACE('',(#349),#399,.T.);
#349 = FACE_BOUND('',#350,.T.);
#350 = EDGE_LOOP('',(#351,#359,#360,#361,#369,#377,#385,#393));
#351 = ORIENTED_EDGE('',*,*,#352,.F.);
#352 = EDGE_CURVE('',#283,#353,#355,.T.);
#353 = VERTEX_POINT('',#354);
#354 = CARTESIAN_POINT('',(102.,8.,8.));
#355 = LINE('',#356,#357);
#356 = CARTESIAN_POINT('',(102.,8.,140.));
#357 = VECTOR('',#358,1.);
#358 = DIRECTION('',(-0.,-0.,-1.));
#359 = ORIENTED_EDGE('',*,*,#290,.F.);
#360 = ORIENTED_EDGE('',*,*,#322,.T.);
#361 = ORIENTED_EDGE('',*,*,#362,.F.);
#362 = EDGE_CURVE('',#363,#323,#365,.T.);
#363 = VERTEX_POINT('',#364);
#364 = CARTESIAN_POINT('',(102.,80.4,8.));
#365 = LINE('',#366,#367);
#366 = CARTESIAN_POINT('',(102.,8.,8.));
#367 = VECTOR('',#368,1.);
#368 = DIRECTION('',(0.,1.,0.));
#369 = ORIENTED_EDGE('',*,*,#370,.T.);
#370 = EDGE_CURVE('',#363,#371,#373,.T.);
#371 = VERTEX_POINT('',#372);
#372 = CARTESIAN_POINT('',(102.,80.4,82.));
#373 = LINE('',#374,#375);
#374 = CARTESIAN_POINT('',(102.,80.4,8.));
#375 = VECTOR('',#376,1.);
#376 = DIRECTION('',(0.,0.,1.));
#377 = ORIENTED_EDGE('',*,*,#378,.F.);
#378 = EDGE_CURVE('',#379,#371,#381,.T.);
#379 = VERTEX_POINT('',#380);
#380 = CARTESIAN_POINT('',(102.,72.4,82.));
#381 = LINE('',#382,#383);
#382 = CARTESIAN_POINT('',(102.,8.,82.));
#383 = VECTOR('',#384,1.);
#384 = DIRECTION('',(0.,1.,0.));
#385 = ORIENTED_EDGE('',*,*,#386,.T.);
#386 = EDGE_CURVE('',#379,#387,#389,.T.);
#387 = VERTEX_POINT('',#388);
#388 = CARTESIAN_POINT('',(102.,72.4,8.));
#389 = LINE('',#390,#391);
#390 = CARTESIAN_POINT('',(102.,72.4,82.));
#391 = VECTOR('',#392,1.);
#392 = DIRECTION('',(-0.,-0.,-1.));
#393 = ORIENTED_EDGE('',*,*,#394,.F.);
#394 = EDGE_CURVE('',#353,#387,#395,.T.);
#395 = LINE('',#396,#397);
#396 = CARTESIAN_POINT('',(102.,8.,8.));
#397 = VECTOR('',#398,1.);
#398 = DIRECTION('',(0.,1.,0.));
#399 = PLANE('',#400);
#400 = AXIS2_PLACEMENT_3D('',#401,#402,#403);
#401 = CARTESIAN_POINT('',(102.,103.93560975609,69.487804878049));
#402 = DIRECTION('',(-1.,-0.,-0.));
#403 = DIRECTION('',(0.,0.,-1.));
#404 = ADVANCED_FACE('',(#405),#455,.T.);
#405 = FACE_BOUND('',#406,.T.);
#406 = EDGE_LOOP('',(#407,#415,#416,#417,#425,#433,#441,#449));
#407 = ORIENTED_EDGE('',*,*,#408,.F.);
#408 = EDGE_CURVE('',#275,#409,#411,.T.);
#409 = VERTEX_POINT('',#410);
#410 = CARTESIAN_POINT('',(-102.,8.,8.));
#411 = LINE('',#412,#413);
#412 = CARTESIAN_POINT('',(-102.,8.,140.));
#413 = VECTOR('',#414,1.);
#414 = DIRECTION('',(-0.,-0.,-1.));
#415 = ORIENTED_EDGE('',*,*,#282,.F.);
#416 = ORIENTED_EDGE('',*,*,#352,.T.);
#417 = ORIENTED_EDGE('',*,*,#418,.F.);
#418 = EDGE_CURVE('',#419,#353,#421,.T.);
#419 = VERTEX_POINT('',#420);
#420 = CARTESIAN_POINT('',(-49.4,8.,8.));
#421 = LINE('',#422,#423);
#422 = CARTESIAN_POINT('',(-49.4,8.,8.));
#423 = VECTOR('',#424,1.);
#424 = DIRECTION('',(1.,0.,0.));
#425 = ORIENTED_EDGE('',*,*,#426,.F.);
#426 = EDGE_CURVE('',#427,#419,#429,.T.);
#427 = VERTEX_POINT('',#428);
#428 = CARTESIAN_POINT('',(-49.4,8.,82.));
#429 = LINE('',#430,#431);
#430 = CARTESIAN_POINT('',(-49.4,8.,82.));
#431 = VECTOR('',#432,1.);
#432 = DIRECTION('',(-0.,-0.,-1.));
#433 = ORIENTED_EDGE('',*,*,#434,.F.);
#434 = EDGE_CURVE('',#435,#427,#437,.T.);
#435 = VERTEX_POINT('',#436);
#436 = CARTESIAN_POINT('',(-57.4,8.,82.));
#437 = LINE('',#438,#439);
#438 = CARTESIAN_POINT('',(-57.4,8.,82.));
#439 = VECTOR('',#440,1.);
#440 = DIRECTION('',(1.,0.,0.));
#441 = ORIENTED_EDGE('',*,*,#442,.F.);
#442 = EDGE_CURVE('',#443,#435,#445,.T.);
#443 = VERTEX_POINT('',#444);
#444 = CARTESIAN_POINT('',(-57.4,8.,8.));
#445 = LINE('',#446,#447);
#446 = CARTESIAN_POINT('',(-57.4,8.,8.));
#447 = VECTOR('',#448,1.);
#448 = DIRECTION('',(0.,0.,1.));
#449 = ORIENTED_EDGE('',*,*,#450,.F.);
#450 = EDGE_CURVE('',#409,#443,#451,.T.);
#451 = LINE('',#452,#453);
#452 = CARTESIAN_POINT('',(-102.,8.,8.));
#453 = VECTOR('',#454,1.);
#454 = DIRECTION('',(1.,0.,0.));
#455 = PLANE('',#456);
#456 = AXIS2_PLACEMENT_3D('',#457,#458,#459);
#457 = CARTESIAN_POINT('',(-9.638048780488,8.,69.487804878049));
#458 = DIRECTION('',(0.,1.,0.));
#459 = DIRECTION('',(0.,0.,1.));
#460 = ADVANCED_FACE('',(#461),#601,.T.);
#461 = FACE_BOUND('',#462,.T.);
#462 = EDGE_LOOP('',(#463,#471,#472,#473,#479,#480,#488,#496,#504,#512,
    #521,#529,#537,#545,#554,#562,#570,#578,#587,#595));
#463 = ORIENTED_EDGE('',*,*,#464,.F.);
#464 = EDGE_CURVE('',#363,#465,#467,.T.);
#465 = VERTEX_POINT('',#466);
#466 = CARTESIAN_POINT('',(-22.6,80.4,8.));
#467 = LINE('',#468,#469);
#468 = CARTESIAN_POINT('',(102.,80.4,8.));
#469 = VECTOR('',#470,1.);
#470 = DIRECTION('',(-1.,0.,0.));
#471 = ORIENTED_EDGE('',*,*,#362,.T.);
#472 = ORIENTED_EDGE('',*,*,#330,.T.);
#473 = ORIENTED_EDGE('',*,*,#474,.T.);
#474 = EDGE_CURVE('',#331,#409,#475,.T.);
#475 = LINE('',#476,#477);
#476 = CARTESIAN_POINT('',(-102.,212.,8.));
#477 = VECTOR('',#478,1.);
#478 = DIRECTION('',(0.,-1.,0.));
#479 = ORIENTED_EDGE('',*,*,#450,.T.);
#480 = ORIENTED_EDGE('',*,*,#481,.F.);
#481 = EDGE_CURVE('',#482,#443,#484,.T.);
#482 = VERTEX_POINT('',#483);
#483 = CARTESIAN_POINT('',(-57.4,180.5,8.));
#484 = LINE('',#485,#486);
#485 = CARTESIAN_POINT('',(-57.4,80.4,8.));
#486 = VECTOR('',#487,1.);
#487 = DIRECTION('',(0.,-1.,0.));
#488 = ORIENTED_EDGE('',*,*,#489,.F.);
#489 = EDGE_CURVE('',#490,#482,#492,.T.);
#490 = VERTEX_POINT('',#491);
#491 = CARTESIAN_POINT('',(-22.6,180.5,8.));
#492 = LINE('',#493,#494);
#493 = CARTESIAN_POINT('',(-22.6,180.5,8.));
#494 = VECTOR('',#495,1.);
#495 = DIRECTION('',(-1.,0.,0.));
#496 = ORIENTED_EDGE('',*,*,#497,.F.);
#497 = EDGE_CURVE('',#498,#490,#500,.T.);
#498 = VERTEX_POINT('',#499);
#499 = CARTESIAN_POINT('',(-22.6,168.50190116635,8.));
#500 = LINE('',#501,#502);
#501 = CARTESIAN_POINT('',(-22.6,115.2,8.));
#502 = VECTOR('',#503,1.);
#503 = DIRECTION('',(0.,1.,0.));
#504 = ORIENTED_EDGE('',*,*,#505,.T.);
#505 = EDGE_CURVE('',#498,#506,#508,.T.);
#506 = VERTEX_POINT('',#507);
#507 = CARTESIAN_POINT('',(-25.80235120756,168.50190116635,8.));
#508 = LINE('',#509,#510);
#509 = CARTESIAN_POINT('',(-23.86548229086,168.50190116635,8.));
#510 = VECTOR('',#511,1.);
#511 = DIRECTION('',(-1.,0.,0.));
#512 = ORIENTED_EDGE('',*,*,#513,.T.);
#513 = EDGE_CURVE('',#506,#514,#516,.T.);
#514 = VERTEX_POINT('',#515);
#515 = CARTESIAN_POINT('',(-25.80235120756,159.04809883364,8.));
#516 = CIRCLE('',#517,14.325);
#517 = AXIS2_PLACEMENT_3D('',#518,#519,#520);
#518 = CARTESIAN_POINT('',(-39.325,163.775,8.));
#519 = DIRECTION('',(0.,0.,1.));
#520 = DIRECTION('',(1.,0.,0.));
#521 = ORIENTED_EDGE('',*,*,#522,.F.);
#522 = EDGE_CURVE('',#523,#514,#525,.T.);
#523 = VERTEX_POINT('',#524);
#524 = CARTESIAN_POINT('',(-22.6,159.04809883364,8.));
#525 = LINE('',#526,#527);
#526 = CARTESIAN_POINT('',(-23.86548229086,159.04809883364,8.));
#527 = VECTOR('',#528,1.);
#528 = DIRECTION('',(-1.,0.,0.));
#529 = ORIENTED_EDGE('',*,*,#530,.F.);
#530 = EDGE_CURVE('',#531,#523,#533,.T.);
#531 = VERTEX_POINT('',#532);
#532 = CARTESIAN_POINT('',(-22.6,137.59619766729,8.));
#533 = LINE('',#534,#535);
#534 = CARTESIAN_POINT('',(-22.6,115.2,8.));
#535 = VECTOR('',#536,1.);
#536 = DIRECTION('',(0.,1.,0.));
#537 = ORIENTED_EDGE('',*,*,#538,.T.);
#538 = EDGE_CURVE('',#531,#539,#541,.T.);
#539 = VERTEX_POINT('',#540);
#540 = CARTESIAN_POINT('',(-26.0050863309,137.59619766729,8.));
#541 = LINE('',#542,#543);
#542 = CARTESIAN_POINT('',(-22.05445997145,137.59619766729,8.));
#543 = VECTOR('',#544,1.);
#544 = DIRECTION('',(-1.,0.,0.));
#545 = ORIENTED_EDGE('',*,*,#546,.T.);
#546 = EDGE_CURVE('',#539,#547,#549,.T.);
#547 = VERTEX_POINT('',#548);
#548 = CARTESIAN_POINT('',(-26.0050863309,127.0538023327,8.));
#549 = CIRCLE('',#550,14.325);
#550 = AXIS2_PLACEMENT_3D('',#551,#552,#553);
#551 = CARTESIAN_POINT('',(-39.325,132.325,8.));
#552 = DIRECTION('',(0.,0.,1.));
#553 = DIRECTION('',(1.,0.,0.));
#554 = ORIENTED_EDGE('',*,*,#555,.F.);
#555 = EDGE_CURVE('',#556,#547,#558,.T.);
#556 = VERTEX_POINT('',#557);
#557 = CARTESIAN_POINT('',(-22.6,127.0538023327,8.));
#558 = LINE('',#559,#560);
#559 = CARTESIAN_POINT('',(-22.05445997145,127.0538023327,8.));
#560 = VECTOR('',#561,1.);
#561 = DIRECTION('',(-1.,0.,0.));
#562 = ORIENTED_EDGE('',*,*,#563,.F.);
#563 = EDGE_CURVE('',#564,#556,#566,.T.);
#564 = VERTEX_POINT('',#565);
#565 = CARTESIAN_POINT('',(-22.6,103.48577892967,8.));
#566 = LINE('',#567,#568);
#567 = CARTESIAN_POINT('',(-22.6,115.2,8.));
#568 = VECTOR('',#569,1.);
#569 = DIRECTION('',(0.,1.,0.));
#570 = ORIENTED_EDGE('',*,*,#571,.T.);
#571 = EDGE_CURVE('',#564,#572,#574,.T.);
#572 = VERTEX_POINT('',#573);
#573 = CARTESIAN_POINT('',(-25.19636245537,103.48577892967,8.));
#574 = LINE('',#575,#576);
#575 = CARTESIAN_POINT('',(-12.59818122768,103.48577892967,8.));
#576 = VECTOR('',#577,1.);
#577 = DIRECTION('',(-1.,0.,0.));
#578 = ORIENTED_EDGE('',*,*,#579,.T.);
#579 = EDGE_CURVE('',#572,#580,#582,.T.);
#580 = VERTEX_POINT('',#581);
#581 = CARTESIAN_POINT('',(-25.19636245537,92.514221070327,8.));
#582 = CIRCLE('',#583,15.6);
#583 = AXIS2_PLACEMENT_3D('',#584,#585,#586);
#584 = CARTESIAN_POINT('',(-39.8,98.,8.));
#585 = DIRECTION('',(0.,0.,1.));
#586 = DIRECTION('',(1.,0.,0.));
#587 = ORIENTED_EDGE('',*,*,#588,.F.);
#588 = EDGE_CURVE('',#589,#580,#591,.T.);
#589 = VERTEX_POINT('',#590);
#590 = CARTESIAN_POINT('',(-22.6,92.514221070327,8.));
#591 = LINE('',#592,#593);
#592 = CARTESIAN_POINT('',(-12.59818122768,92.514221070327,8.));
#593 = VECTOR('',#594,1.);
#594 = DIRECTION('',(-1.,0.,0.));
#595 = ORIENTED_EDGE('',*,*,#596,.F.);
#596 = EDGE_CURVE('',#465,#589,#597,.T.);
#597 = LINE('',#598,#599);
#598 = CARTESIAN_POINT('',(-22.6,80.4,8.));
#599 = VECTOR('',#600,1.);
#600 = DIRECTION('',(0.,1.,0.));
#601 = PLANE('',#602);
#602 = AXIS2_PLACEMENT_3D('',#603,#604,#605);
#603 = CARTESIAN_POINT('',(-22.99078332137,129.14985181021,8.));
#604 = DIRECTION('',(0.,0.,1.));
#605 = DIRECTION('',(1.,0.,0.));
#606 = ADVANCED_FACE('',(#607),#625,.T.);
#607 = FACE_BOUND('',#608,.T.);
#608 = EDGE_LOOP('',(#609,#610,#618,#624));
#609 = ORIENTED_EDGE('',*,*,#394,.T.);
#610 = ORIENTED_EDGE('',*,*,#611,.T.);
#611 = EDGE_CURVE('',#387,#612,#614,.T.);
#612 = VERTEX_POINT('',#613);
#613 = CARTESIAN_POINT('',(-49.4,72.4,8.));
#614 = LINE('',#615,#616);
#615 = CARTESIAN_POINT('',(102.,72.4,8.));
#616 = VECTOR('',#617,1.);
#617 = DIRECTION('',(-1.,0.,0.));
#618 = ORIENTED_EDGE('',*,*,#619,.T.);
#619 = EDGE_CURVE('',#612,#419,#620,.T.);
#620 = LINE('',#621,#622);
#621 = CARTESIAN_POINT('',(-49.4,72.4,8.));
#622 = VECTOR('',#623,1.);
#623 = DIRECTION('',(0.,-1.,0.));
#624 = ORIENTED_EDGE('',*,*,#418,.T.);
#625 = PLANE('',#626);
#626 = AXIS2_PLACEMENT_3D('',#627,#628,#629);
#627 = CARTESIAN_POINT('',(26.3,40.2,8.));
#628 = DIRECTION('',(0.,0.,1.));
#629 = DIRECTION('',(1.,0.,0.));
#630 = ADVANCED_FACE('',(#631),#649,.F.);
#631 = FACE_BOUND('',#632,.F.);
#632 = EDGE_LOOP('',(#633,#634,#635,#643));
#633 = ORIENTED_EDGE('',*,*,#386,.T.);
#634 = ORIENTED_EDGE('',*,*,#611,.T.);
#635 = ORIENTED_EDGE('',*,*,#636,.F.);
#636 = EDGE_CURVE('',#637,#612,#639,.T.);
#637 = VERTEX_POINT('',#638);
#638 = CARTESIAN_POINT('',(-49.4,72.4,82.));
#639 = LINE('',#640,#641);
#640 = CARTESIAN_POINT('',(-49.4,72.4,82.));
#641 = VECTOR('',#642,1.);
#642 = DIRECTION('',(-0.,-0.,-1.));
#643 = ORIENTED_EDGE('',*,*,#644,.F.);
#644 = EDGE_CURVE('',#379,#637,#645,.T.);
#645 = LINE('',#646,#647);
#646 = CARTESIAN_POINT('',(102.,72.4,82.));
#647 = VECTOR('',#648,1.);
#648 = DIRECTION('',(-1.,0.,0.));
#649 = PLANE('',#650);
#650 = AXIS2_PLACEMENT_3D('',#651,#652,#653);
#651 = CARTESIAN_POINT('',(102.,72.4,82.));
#652 = DIRECTION('',(0.,1.,0.));
#653 = DIRECTION('',(-1.,0.,0.));
#654 = ADVANCED_FACE('',(#655),#795,.T.);
#655 = FACE_BOUND('',#656,.T.);
#656 = EDGE_LOOP('',(#657,#658,#659,#667,#675,#683,#692,#700,#708,#716,
    #725,#733,#741,#749,#758,#766,#774,#782,#788,#789));
#657 = ORIENTED_EDGE('',*,*,#644,.F.);
#658 = ORIENTED_EDGE('',*,*,#378,.T.);
#659 = ORIENTED_EDGE('',*,*,#660,.T.);
#660 = EDGE_CURVE('',#371,#661,#663,.T.);
#661 = VERTEX_POINT('',#662);
#662 = CARTESIAN_POINT('',(-22.6,80.4,82.));
#663 = LINE('',#664,#665);
#664 = CARTESIAN_POINT('',(102.,80.4,82.));
#665 = VECTOR('',#666,1.);
#666 = DIRECTION('',(-1.,0.,0.));
#667 = ORIENTED_EDGE('',*,*,#668,.T.);
#668 = EDGE_CURVE('',#661,#669,#671,.T.);
#669 = VERTEX_POINT('',#670);
#670 = CARTESIAN_POINT('',(-22.6,92.514221070327,82.));
#671 = LINE('',#672,#673);
#672 = CARTESIAN_POINT('',(-22.6,62.3,82.));
#673 = VECTOR('',#674,1.);
#674 = DIRECTION('',(0.,1.,0.));
#675 = ORIENTED_EDGE('',*,*,#676,.F.);
#676 = EDGE_CURVE('',#677,#669,#679,.T.);
#677 = VERTEX_POINT('',#678);
#678 = CARTESIAN_POINT('',(-25.19636245537,92.514221070327,82.));
#679 = LINE('',#680,#681);
#680 = CARTESIAN_POINT('',(-25.19636245537,92.514221070327,82.));
#681 = VECTOR('',#682,1.);
#682 = DIRECTION('',(1.,0.,0.));
#683 = ORIENTED_EDGE('',*,*,#684,.F.);
#684 = EDGE_CURVE('',#685,#677,#687,.T.);
#685 = VERTEX_POINT('',#686);
#686 = CARTESIAN_POINT('',(-25.19636245537,103.48577892967,82.));
#687 = CIRCLE('',#688,15.6);
#688 = AXIS2_PLACEMENT_3D('',#689,#690,#691);
#689 = CARTESIAN_POINT('',(-39.8,98.,82.));
#690 = DIRECTION('',(0.,0.,1.));
#691 = DIRECTION('',(1.,0.,0.));
#692 = ORIENTED_EDGE('',*,*,#693,.T.);
#693 = EDGE_CURVE('',#685,#694,#696,.T.);
#694 = VERTEX_POINT('',#695);
#695 = CARTESIAN_POINT('',(-22.6,103.48577892967,82.));
#696 = LINE('',#697,#698);
#697 = CARTESIAN_POINT('',(-25.19636245537,103.48577892967,82.));
#698 = VECTOR('',#699,1.);
#699 = DIRECTION('',(1.,0.,0.));
#700 = ORIENTED_EDGE('',*,*,#701,.T.);
#701 = EDGE_CURVE('',#694,#702,#704,.T.);
#702 = VERTEX_POINT('',#703);
#703 = CARTESIAN_POINT('',(-22.6,127.0538023327,82.));
#704 = LINE('',#705,#706);
#705 = CARTESIAN_POINT('',(-22.6,62.3,82.));
#706 = VECTOR('',#707,1.);
#707 = DIRECTION('',(0.,1.,0.));
#708 = ORIENTED_EDGE('',*,*,#709,.F.);
#709 = EDGE_CURVE('',#710,#702,#712,.T.);
#710 = VERTEX_POINT('',#711);
#711 = CARTESIAN_POINT('',(-26.0050863309,127.0538023327,82.));
#712 = LINE('',#713,#714);
#713 = CARTESIAN_POINT('',(-26.0050863309,127.0538023327,82.));
#714 = VECTOR('',#715,1.);
#715 = DIRECTION('',(1.,0.,0.));
#716 = ORIENTED_EDGE('',*,*,#717,.F.);
#717 = EDGE_CURVE('',#718,#710,#720,.T.);
#718 = VERTEX_POINT('',#719);
#719 = CARTESIAN_POINT('',(-26.0050863309,137.59619766729,82.));
#720 = CIRCLE('',#721,14.325);
#721 = AXIS2_PLACEMENT_3D('',#722,#723,#724);
#722 = CARTESIAN_POINT('',(-39.325,132.325,82.));
#723 = DIRECTION('',(0.,0.,1.));
#724 = DIRECTION('',(1.,0.,0.));
#725 = ORIENTED_EDGE('',*,*,#726,.T.);
#726 = EDGE_CURVE('',#718,#727,#729,.T.);
#727 = VERTEX_POINT('',#728);
#728 = CARTESIAN_POINT('',(-22.6,137.59619766729,82.));
#729 = LINE('',#730,#731);
#730 = CARTESIAN_POINT('',(-26.0050863309,137.59619766729,82.));
#731 = VECTOR('',#732,1.);
#732 = DIRECTION('',(1.,0.,0.));
#733 = ORIENTED_EDGE('',*,*,#734,.T.);
#734 = EDGE_CURVE('',#727,#735,#737,.T.);
#735 = VERTEX_POINT('',#736);
#736 = CARTESIAN_POINT('',(-22.6,159.04809883364,82.));
#737 = LINE('',#738,#739);
#738 = CARTESIAN_POINT('',(-22.6,62.3,82.));
#739 = VECTOR('',#740,1.);
#740 = DIRECTION('',(0.,1.,0.));
#741 = ORIENTED_EDGE('',*,*,#742,.F.);
#742 = EDGE_CURVE('',#743,#735,#745,.T.);
#743 = VERTEX_POINT('',#744);
#744 = CARTESIAN_POINT('',(-25.80235120756,159.04809883364,82.));
#745 = LINE('',#746,#747);
#746 = CARTESIAN_POINT('',(-25.80235120756,159.04809883364,82.));
#747 = VECTOR('',#748,1.);
#748 = DIRECTION('',(1.,0.,0.));
#749 = ORIENTED_EDGE('',*,*,#750,.F.);
#750 = EDGE_CURVE('',#751,#743,#753,.T.);
#751 = VERTEX_POINT('',#752);
#752 = CARTESIAN_POINT('',(-25.80235120756,168.50190116635,82.));
#753 = CIRCLE('',#754,14.325);
#754 = AXIS2_PLACEMENT_3D('',#755,#756,#757);
#755 = CARTESIAN_POINT('',(-39.325,163.775,82.));
#756 = DIRECTION('',(0.,0.,1.));
#757 = DIRECTION('',(1.,0.,0.));
#758 = ORIENTED_EDGE('',*,*,#759,.T.);
#759 = EDGE_CURVE('',#751,#760,#762,.T.);
#760 = VERTEX_POINT('',#761);
#761 = CARTESIAN_POINT('',(-22.6,168.50190116635,82.));
#762 = LINE('',#763,#764);
#763 = CARTESIAN_POINT('',(-25.80235120756,168.50190116635,82.));
#764 = VECTOR('',#765,1.);
#765 = DIRECTION('',(1.,0.,0.));
#766 = ORIENTED_EDGE('',*,*,#767,.T.);
#767 = EDGE_CURVE('',#760,#768,#770,.T.);
#768 = VERTEX_POINT('',#769);
#769 = CARTESIAN_POINT('',(-22.6,180.5,82.));
#770 = LINE('',#771,#772);
#771 = CARTESIAN_POINT('',(-22.6,62.3,82.));
#772 = VECTOR('',#773,1.);
#773 = DIRECTION('',(0.,1.,0.));
#774 = ORIENTED_EDGE('',*,*,#775,.T.);
#775 = EDGE_CURVE('',#768,#776,#778,.T.);
#776 = VERTEX_POINT('',#777);
#777 = CARTESIAN_POINT('',(-57.4,180.5,82.));
#778 = LINE('',#779,#780);
#779 = CARTESIAN_POINT('',(-13.35915228807,180.5,82.));
#780 = VECTOR('',#781,1.);
#781 = DIRECTION('',(-1.,0.,0.));
#782 = ORIENTED_EDGE('',*,*,#783,.T.);
#783 = EDGE_CURVE('',#776,#435,#784,.T.);
#784 = LINE('',#785,#786);
#785 = CARTESIAN_POINT('',(-57.4,126.12696924231,82.));
#786 = VECTOR('',#787,1.);
#787 = DIRECTION('',(0.,-1.,0.));
#788 = ORIENTED_EDGE('',*,*,#434,.T.);
#789 = ORIENTED_EDGE('',*,*,#790,.F.);
#790 = EDGE_CURVE('',#637,#427,#791,.T.);
#791 = LINE('',#792,#793);
#792 = CARTESIAN_POINT('',(-49.4,72.4,82.));
#793 = VECTOR('',#794,1.);
#794 = DIRECTION('',(0.,-1.,0.));
#795 = PLANE('',#796);
#796 = AXIS2_PLACEMENT_3D('',#797,#798,#799);
#797 = CARTESIAN_POINT('',(-14.16166181522,90.889217781008,82.));
#798 = DIRECTION('',(0.,0.,1.));
#799 = DIRECTION('',(1.,0.,0.));
#800 = ADVANCED_FACE('',(#801),#812,.F.);
#801 = FACE_BOUND('',#802,.F.);
#802 = EDGE_LOOP('',(#803,#804,#805,#806));
#803 = ORIENTED_EDGE('',*,*,#464,.F.);
#804 = ORIENTED_EDGE('',*,*,#370,.T.);
#805 = ORIENTED_EDGE('',*,*,#660,.T.);
#806 = ORIENTED_EDGE('',*,*,#807,.F.);
#807 = EDGE_CURVE('',#465,#661,#808,.T.);
#808 = LINE('',#809,#810);
#809 = CARTESIAN_POINT('',(-22.6,80.4,8.));
#810 = VECTOR('',#811,1.);
#811 = DIRECTION('',(0.,0.,1.));
#812 = PLANE('',#813);
#813 = AXIS2_PLACEMENT_3D('',#814,#815,#816);
#814 = CARTESIAN_POINT('',(102.,80.4,8.));
#815 = DIRECTION('',(0.,-1.,0.));
#816 = DIRECTION('',(-1.,0.,0.));
#817 = ADVANCED_FACE('',(#818),#829,.T.);
#818 = FACE_BOUND('',#819,.T.);
#819 = EDGE_LOOP('',(#820,#821,#822,#828));
#820 = ORIENTED_EDGE('',*,*,#442,.T.);
#821 = ORIENTED_EDGE('',*,*,#783,.F.);
#822 = ORIENTED_EDGE('',*,*,#823,.F.);
#823 = EDGE_CURVE('',#482,#776,#824,.T.);
#824 = LINE('',#825,#826);
#825 = CARTESIAN_POINT('',(-57.4,180.5,8.));
#826 = VECTOR('',#827,1.);
#827 = DIRECTION('',(0.,0.,1.));
#828 = ORIENTED_EDGE('',*,*,#481,.T.);
#829 = PLANE('',#830);
#830 = AXIS2_PLACEMENT_3D('',#831,#832,#833);
#831 = CARTESIAN_POINT('',(-57.4,94.25,45.));
#832 = DIRECTION('',(-1.,-0.,-0.));
#833 = DIRECTION('',(0.,0.,-1.));
#834 = ADVANCED_FACE('',(#835),#841,.F.);
#835 = FACE_BOUND('',#836,.F.);
#836 = EDGE_LOOP('',(#837,#838,#839,#840));
#837 = ORIENTED_EDGE('',*,*,#636,.T.);
#838 = ORIENTED_EDGE('',*,*,#619,.T.);
#839 = ORIENTED_EDGE('',*,*,#426,.F.);
#840 = ORIENTED_EDGE('',*,*,#790,.F.);
#841 = PLANE('',#842);
#842 = AXIS2_PLACEMENT_3D('',#843,#844,#845);
#843 = CARTESIAN_POINT('',(-49.4,72.4,82.));
#844 = DIRECTION('',(-1.,0.,0.));
#845 = DIRECTION('',(0.,-1.,0.));
#846 = ADVANCED_FACE('',(#847),#858,.F.);
#847 = FACE_BOUND('',#848,.F.);
#848 = EDGE_LOOP('',(#849,#850,#856,#857));
#849 = ORIENTED_EDGE('',*,*,#489,.F.);
#850 = ORIENTED_EDGE('',*,*,#851,.T.);
#851 = EDGE_CURVE('',#490,#768,#852,.T.);
#852 = LINE('',#853,#854);
#853 = CARTESIAN_POINT('',(-22.6,180.5,8.));
#854 = VECTOR('',#855,1.);
#855 = DIRECTION('',(0.,0.,1.));
#856 = ORIENTED_EDGE('',*,*,#775,.T.);
#857 = ORIENTED_EDGE('',*,*,#823,.F.);
#858 = PLANE('',#859);
#859 = AXIS2_PLACEMENT_3D('',#860,#861,#862);
#860 = CARTESIAN_POINT('',(-22.6,180.5,8.));
#861 = DIRECTION('',(0.,-1.,0.));
#862 = DIRECTION('',(-1.,0.,0.));
#863 = ADVANCED_FACE('',(#864),#875,.T.);
#864 = FACE_BOUND('',#865,.T.);
#865 = EDGE_LOOP('',(#866,#867,#873,#874));
#866 = ORIENTED_EDGE('',*,*,#767,.F.);
#867 = ORIENTED_EDGE('',*,*,#868,.T.);
#868 = EDGE_CURVE('',#760,#498,#869,.T.);
#869 = LINE('',#870,#871);
#870 = CARTESIAN_POINT('',(-22.6,168.50190116635,82.));
#871 = VECTOR('',#872,1.);
#872 = DIRECTION('',(-0.,-0.,-1.));
#873 = ORIENTED_EDGE('',*,*,#497,.T.);
#874 = ORIENTED_EDGE('',*,*,#851,.T.);
#875 = PLANE('',#876);
#876 = AXIS2_PLACEMENT_3D('',#877,#878,#879);
#877 = CARTESIAN_POINT('',(-22.6,141.99288946483,45.));
#878 = DIRECTION('',(1.,0.,0.));
#879 = DIRECTION('',(0.,0.,1.));
#880 = ADVANCED_FACE('',(#881),#892,.T.);
#881 = FACE_BOUND('',#882,.T.);
#882 = EDGE_LOOP('',(#883,#884,#890,#891));
#883 = ORIENTED_EDGE('',*,*,#759,.F.);
#884 = ORIENTED_EDGE('',*,*,#885,.T.);
#885 = EDGE_CURVE('',#751,#506,#886,.T.);
#886 = LINE('',#887,#888);
#887 = CARTESIAN_POINT('',(-25.80235120756,168.50190116635,82.));
#888 = VECTOR('',#889,1.);
#889 = DIRECTION('',(-0.,-0.,-1.));
#890 = ORIENTED_EDGE('',*,*,#505,.F.);
#891 = ORIENTED_EDGE('',*,*,#868,.F.);
#892 = PLANE('',#893);
#893 = AXIS2_PLACEMENT_3D('',#894,#895,#896);
#894 = CARTESIAN_POINT('',(-25.80235120756,168.50190116635,82.));
#895 = DIRECTION('',(0.,-1.,0.));
#896 = DIRECTION('',(1.,0.,0.));
#897 = ADVANCED_FACE('',(#898),#909,.F.);
#898 = FACE_BOUND('',#899,.F.);
#899 = EDGE_LOOP('',(#900,#901,#902,#903));
#900 = ORIENTED_EDGE('',*,*,#750,.F.);
#901 = ORIENTED_EDGE('',*,*,#885,.T.);
#902 = ORIENTED_EDGE('',*,*,#513,.T.);
#903 = ORIENTED_EDGE('',*,*,#904,.F.);
#904 = EDGE_CURVE('',#743,#514,#905,.T.);
#905 = LINE('',#906,#907);
#906 = CARTESIAN_POINT('',(-25.80235120756,159.04809883364,82.));
#907 = VECTOR('',#908,1.);
#908 = DIRECTION('',(-0.,-0.,-1.));
#909 = CYLINDRICAL_SURFACE('',#910,14.325);
#910 = AXIS2_PLACEMENT_3D('',#911,#912,#913);
#911 = CARTESIAN_POINT('',(-39.325,163.775,82.));
#912 = DIRECTION('',(0.,0.,1.));
#913 = DIRECTION('',(1.,0.,0.));
#914 = ADVANCED_FACE('',(#915),#926,.F.);
#915 = FACE_BOUND('',#916,.F.);
#916 = EDGE_LOOP('',(#917,#918,#919,#920));
#917 = ORIENTED_EDGE('',*,*,#742,.F.);
#918 = ORIENTED_EDGE('',*,*,#904,.T.);
#919 = ORIENTED_EDGE('',*,*,#522,.F.);
#920 = ORIENTED_EDGE('',*,*,#921,.F.);
#921 = EDGE_CURVE('',#735,#523,#922,.T.);
#922 = LINE('',#923,#924);
#923 = CARTESIAN_POINT('',(-22.6,159.04809883364,82.));
#924 = VECTOR('',#925,1.);
#925 = DIRECTION('',(-0.,-0.,-1.));
#926 = PLANE('',#927);
#927 = AXIS2_PLACEMENT_3D('',#928,#929,#930);
#928 = CARTESIAN_POINT('',(-25.80235120756,159.04809883364,82.));
#929 = DIRECTION('',(0.,-1.,0.));
#930 = DIRECTION('',(1.,0.,0.));
#931 = ADVANCED_FACE('',(#932),#943,.T.);
#932 = FACE_BOUND('',#933,.T.);
#933 = EDGE_LOOP('',(#934,#935,#941,#942));
#934 = ORIENTED_EDGE('',*,*,#734,.F.);
#935 = ORIENTED_EDGE('',*,*,#936,.T.);
#936 = EDGE_CURVE('',#727,#531,#937,.T.);
#937 = LINE('',#938,#939);
#938 = CARTESIAN_POINT('',(-22.6,137.59619766729,82.));
#939 = VECTOR('',#940,1.);
#940 = DIRECTION('',(-0.,-0.,-1.));
#941 = ORIENTED_EDGE('',*,*,#530,.T.);
#942 = ORIENTED_EDGE('',*,*,#921,.F.);
#943 = PLANE('',#944);
#944 = AXIS2_PLACEMENT_3D('',#945,#946,#947);
#945 = CARTESIAN_POINT('',(-22.6,141.99288946483,45.));
#946 = DIRECTION('',(1.,0.,0.));
#947 = DIRECTION('',(0.,0.,1.));
#948 = ADVANCED_FACE('',(#949),#960,.T.);
#949 = FACE_BOUND('',#950,.T.);
#950 = EDGE_LOOP('',(#951,#952,#958,#959));
#951 = ORIENTED_EDGE('',*,*,#726,.F.);
#952 = ORIENTED_EDGE('',*,*,#953,.T.);
#953 = EDGE_CURVE('',#718,#539,#954,.T.);
#954 = LINE('',#955,#956);
#955 = CARTESIAN_POINT('',(-26.0050863309,137.59619766729,82.));
#956 = VECTOR('',#957,1.);
#957 = DIRECTION('',(-0.,-0.,-1.));
#958 = ORIENTED_EDGE('',*,*,#538,.F.);
#959 = ORIENTED_EDGE('',*,*,#936,.F.);
#960 = PLANE('',#961);
#961 = AXIS2_PLACEMENT_3D('',#962,#963,#964);
#962 = CARTESIAN_POINT('',(-26.0050863309,137.59619766729,82.));
#963 = DIRECTION('',(0.,-1.,0.));
#964 = DIRECTION('',(1.,0.,0.));
#965 = ADVANCED_FACE('',(#966),#977,.F.);
#966 = FACE_BOUND('',#967,.F.);
#967 = EDGE_LOOP('',(#968,#969,#970,#971));
#968 = ORIENTED_EDGE('',*,*,#717,.F.);
#969 = ORIENTED_EDGE('',*,*,#953,.T.);
#970 = ORIENTED_EDGE('',*,*,#546,.T.);
#971 = ORIENTED_EDGE('',*,*,#972,.F.);
#972 = EDGE_CURVE('',#710,#547,#973,.T.);
#973 = LINE('',#974,#975);
#974 = CARTESIAN_POINT('',(-26.0050863309,127.0538023327,82.));
#975 = VECTOR('',#976,1.);
#976 = DIRECTION('',(-0.,-0.,-1.));
#977 = CYLINDRICAL_SURFACE('',#978,14.325);
#978 = AXIS2_PLACEMENT_3D('',#979,#980,#981);
#979 = CARTESIAN_POINT('',(-39.325,132.325,82.));
#980 = DIRECTION('',(0.,0.,1.));
#981 = DIRECTION('',(1.,0.,0.));
#982 = ADVANCED_FACE('',(#983),#994,.F.);
#983 = FACE_BOUND('',#984,.F.);
#984 = EDGE_LOOP('',(#985,#986,#987,#988));
#985 = ORIENTED_EDGE('',*,*,#709,.F.);
#986 = ORIENTED_EDGE('',*,*,#972,.T.);
#987 = ORIENTED_EDGE('',*,*,#555,.F.);
#988 = ORIENTED_EDGE('',*,*,#989,.F.);
#989 = EDGE_CURVE('',#702,#556,#990,.T.);
#990 = LINE('',#991,#992);
#991 = CARTESIAN_POINT('',(-22.6,127.0538023327,82.));
#992 = VECTOR('',#993,1.);
#993 = DIRECTION('',(-0.,-0.,-1.));
#994 = PLANE('',#995);
#995 = AXIS2_PLACEMENT_3D('',#996,#997,#998);
#996 = CARTESIAN_POINT('',(-26.0050863309,127.0538023327,82.));
#997 = DIRECTION('',(0.,-1.,0.));
#998 = DIRECTION('',(1.,0.,0.));
#999 = ADVANCED_FACE('',(#1000),#1011,.T.);
#1000 = FACE_BOUND('',#1001,.T.);
#1001 = EDGE_LOOP('',(#1002,#1008,#1009,#1010));
#1002 = ORIENTED_EDGE('',*,*,#1003,.T.);
#1003 = EDGE_CURVE('',#694,#564,#1004,.T.);
#1004 = LINE('',#1005,#1006);
#1005 = CARTESIAN_POINT('',(-22.6,103.48577892967,82.));
#1006 = VECTOR('',#1007,1.);
#1007 = DIRECTION('',(-0.,-0.,-1.));
#1008 = ORIENTED_EDGE('',*,*,#563,.T.);
#1009 = ORIENTED_EDGE('',*,*,#989,.F.);
#1010 = ORIENTED_EDGE('',*,*,#701,.F.);
#1011 = PLANE('',#1012);
#1012 = AXIS2_PLACEMENT_3D('',#1013,#1014,#1015);
#1013 = CARTESIAN_POINT('',(-22.6,141.99288946483,45.));
#1014 = DIRECTION('',(1.,0.,0.));
#1015 = DIRECTION('',(0.,0.,1.));
#1016 = ADVANCED_FACE('',(#1017),#1028,.T.);
#1017 = FACE_BOUND('',#1018,.T.);
#1018 = EDGE_LOOP('',(#1019,#1020,#1026,#1027));
#1019 = ORIENTED_EDGE('',*,*,#693,.F.);
#1020 = ORIENTED_EDGE('',*,*,#1021,.T.);
#1021 = EDGE_CURVE('',#685,#572,#1022,.T.);
#1022 = LINE('',#1023,#1024);
#1023 = CARTESIAN_POINT('',(-25.19636245537,103.48577892967,82.));
#1024 = VECTOR('',#1025,1.);
#1025 = DIRECTION('',(-0.,-0.,-1.));
#1026 = ORIENTED_EDGE('',*,*,#571,.F.);
#1027 = ORIENTED_EDGE('',*,*,#1003,.F.);
#1028 = PLANE('',#1029);
#1029 = AXIS2_PLACEMENT_3D('',#1030,#1031,#1032);
#1030 = CARTESIAN_POINT('',(-25.19636245537,103.48577892967,82.));
#1031 = DIRECTION('',(0.,-1.,0.));
#1032 = DIRECTION('',(1.,0.,0.));
#1033 = ADVANCED_FACE('',(#1034),#1045,.F.);
#1034 = FACE_BOUND('',#1035,.F.);
#1035 = EDGE_LOOP('',(#1036,#1037,#1038,#1039));
#1036 = ORIENTED_EDGE('',*,*,#684,.F.);
#1037 = ORIENTED_EDGE('',*,*,#1021,.T.);
#1038 = ORIENTED_EDGE('',*,*,#579,.T.);
#1039 = ORIENTED_EDGE('',*,*,#1040,.F.);
#1040 = EDGE_CURVE('',#677,#580,#1041,.T.);
#1041 = LINE('',#1042,#1043);
#1042 = CARTESIAN_POINT('',(-25.19636245537,92.514221070327,82.));
#1043 = VECTOR('',#1044,1.);
#1044 = DIRECTION('',(-0.,-0.,-1.));
#1045 = CYLINDRICAL_SURFACE('',#1046,15.6);
#1046 = AXIS2_PLACEMENT_3D('',#1047,#1048,#1049);
#1047 = CARTESIAN_POINT('',(-39.8,98.,82.));
#1048 = DIRECTION('',(0.,0.,1.));
#1049 = DIRECTION('',(1.,0.,0.));
#1050 = ADVANCED_FACE('',(#1051),#1062,.F.);
#1051 = FACE_BOUND('',#1052,.F.);
#1052 = EDGE_LOOP('',(#1053,#1054,#1055,#1056));
#1053 = ORIENTED_EDGE('',*,*,#676,.F.);
#1054 = ORIENTED_EDGE('',*,*,#1040,.T.);
#1055 = ORIENTED_EDGE('',*,*,#588,.F.);
#1056 = ORIENTED_EDGE('',*,*,#1057,.F.);
#1057 = EDGE_CURVE('',#669,#589,#1058,.T.);
#1058 = LINE('',#1059,#1060);
#1059 = CARTESIAN_POINT('',(-22.6,92.514221070327,82.));
#1060 = VECTOR('',#1061,1.);
#1061 = DIRECTION('',(-0.,-0.,-1.));
#1062 = PLANE('',#1063);
#1063 = AXIS2_PLACEMENT_3D('',#1064,#1065,#1066);
#1064 = CARTESIAN_POINT('',(-25.19636245537,92.514221070327,82.));
#1065 = DIRECTION('',(0.,-1.,0.));
#1066 = DIRECTION('',(1.,0.,0.));
#1067 = ADVANCED_FACE('',(#1068),#1074,.F.);
#1068 = FACE_BOUND('',#1069,.F.);
#1069 = EDGE_LOOP('',(#1070,#1071,#1072,#1073));
#1070 = ORIENTED_EDGE('',*,*,#596,.F.);
#1071 = ORIENTED_EDGE('',*,*,#807,.T.);
#1072 = ORIENTED_EDGE('',*,*,#668,.T.);
#1073 = ORIENTED_EDGE('',*,*,#1057,.T.);
#1074 = PLANE('',#1075);
#1075 = AXIS2_PLACEMENT_3D('',#1076,#1077,#1078);
#1076 = CARTESIAN_POINT('',(-22.6,80.4,8.));
#1077 = DIRECTION('',(-1.,0.,0.));
#1078 = DIRECTION('',(0.,1.,0.));
#1079 = ADVANCED_FACE('',(#1080),#1090,.T.);
#1080 = FACE_BOUND('',#1081,.T.);
#1081 = EDGE_LOOP('',(#1082,#1083,#1084,#1085,#1086,#1087,#1088,#1089));
#1082 = ORIENTED_EDGE('',*,*,#159,.T.);
#1083 = ORIENTED_EDGE('',*,*,#257,.F.);
#1084 = ORIENTED_EDGE('',*,*,#274,.T.);
#1085 = ORIENTED_EDGE('',*,*,#408,.T.);
#1086 = ORIENTED_EDGE('',*,*,#474,.F.);
#1087 = ORIENTED_EDGE('',*,*,#338,.F.);
#1088 = ORIENTED_EDGE('',*,*,#306,.T.);
#1089 = ORIENTED_EDGE('',*,*,#233,.T.);
#1090 = PLANE('',#1091);
#1091 = AXIS2_PLACEMENT_3D('',#1092,#1093,#1094);
#1092 = CARTESIAN_POINT('',(-102.,110.,74.836352551661));
#1093 = DIRECTION('',(1.,0.,0.));
#1094 = DIRECTION('',(0.,0.,1.));
#1095 = ( GEOMETRIC_REPRESENTATION_CONTEXT(3) 
GLOBAL_UNCERTAINTY_ASSIGNED_CONTEXT((#1099)) 
GLOBAL_UNIT_ASSIGNED_CONTEXT((#1096,#1097,#1098)) REPRESENTATION_CONTEXT
('Context #1','3D Context with UNIT and UNCERTAINTY') );
#1096 = ( LENGTH_UNIT() NAMED_UNIT(*) SI_UNIT(.MILLI.,.METRE.) );
#1097 = ( NAMED_UNIT(*) PLANE_ANGLE_UNIT() SI_UNIT($,.RADIAN.) );
#1098 = ( NAMED_UNIT(*) SI_UNIT($,.STERADIAN.) SOLID_ANGLE_UNIT() );
#1099 = UNCERTAINTY_MEASURE_WITH_UNIT(LENGTH_MEASURE(1.E-05),#1096,
  'distance_accuracy_value','confusion accuracy');
#1100 = PRODUCT_RELATED_PRODUCT_CATEGORY('part',$,(#7));
#1101 = MECHANICAL_DESIGN_GEOMETRIC_PRESENTATION_REPRESENTATION('',(
    #1102),#1095);
#1102 = STYLED_ITEM('color',(#1103),#15);
#1103 = PRESENTATION_STYLE_ASSIGNMENT((#1104,#1110));
#1104 = SURFACE_STYLE_USAGE(.BOTH.,#1105);
#1105 = SURFACE_SIDE_STYLE('',(#1106));
#1106 = SURFACE_STYLE_FILL_AREA(#1107);
#1107 = FILL_AREA_STYLE('',(#1108));
#1108 = FILL_AREA_STYLE_COLOUR('',#1109);
#1109 = COLOUR_RGB('',0.447058818107,0.474509808674,0.501960817233);
#1110 = CURVE_STYLE('',#1111,POSITIVE_LENGTH_MEASURE(0.1),#1112);
#1111 = DRAUGHTING_PRE_DEFINED_CURVE_FONT('continuous');
#1112 = COLOUR_RGB('',9.803921802644E-02,9.803921802644E-02,
  9.803921802644E-02);
ENDSEC;
END-ISO-10303-21;
