ISO-10303-21;
HEADER;
FILE_DESCRIPTION(('FreeCAD Model'),'2;1');
FILE_NAME('Open CASCADE Shape Model','2025-04-18T17:25:33',(''),(''),
  'Open CASCADE STEP processor 7.8','FreeCAD','Unknown');
FILE_SCHEMA(('AUTOMOTIVE_DESIGN { 1 0 10303 214 1 1 1 1 }'));
ENDSEC;
DATA;
#1 = APPLICATION_PROTOCOL_DEFINITION('international standard',
  'automotive_design',2000,#2);
#2 = APPLICATION_CONTEXT(
  'core data for automotive mechanical design processes');
#3 = SHAPE_DEFINITION_REPRESENTATION(#4,#10);
#4 = PRODUCT_DEFINITION_SHAPE('','',#5);
#5 = PRODUCT_DEFINITION('design','',#6,#9);
#6 = PRODUCT_DEFINITION_FORMATION('','',#7);
#7 = PRODUCT('Lid','Lid','',(#8));
#8 = PRODUCT_CONTEXT('',#2,'mechanical');
#9 = PRODUCT_DEFINITION_CONTEXT('part definition',#2,'design');
#10 = ADVANCED_BREP_SHAPE_REPRESENTATION('',(#11,#15),#301);
#11 = AXIS2_PLACEMENT_3D('',#12,#13,#14);
#12 = CARTESIAN_POINT('',(0.,0.,0.));
#13 = DIRECTION('',(0.,0.,1.));
#14 = DIRECTION('',(1.,0.,-0.));
#15 = MANIFOLD_SOLID_BREP('',#16);
#16 = CLOSED_SHELL('',(#17,#57,#88,#146,#170,#221,#233,#255,#272,#289));
#17 = ADVANCED_FACE('',(#18),#52,.T.);
#18 = FACE_BOUND('',#19,.T.);
#19 = EDGE_LOOP('',(#20,#30,#38,#46));
#20 = ORIENTED_EDGE('',*,*,#21,.F.);
#21 = EDGE_CURVE('',#22,#24,#26,.T.);
#22 = VERTEX_POINT('',#23);
#23 = CARTESIAN_POINT('',(110.,8.565685424949,140.));
#24 = VERTEX_POINT('',#25);
#25 = CARTESIAN_POINT('',(110.,4.98370490961,136.41801948466));
#26 = LINE('',#27,#28);
#27 = CARTESIAN_POINT('',(110.,8.565685424949,140.));
#28 = VECTOR('',#29,1.);
#29 = DIRECTION('',(0.,-0.707106781187,-0.707106781187));
#30 = ORIENTED_EDGE('',*,*,#31,.T.);
#31 = EDGE_CURVE('',#22,#32,#34,.T.);
#32 = VERTEX_POINT('',#33);
#33 = CARTESIAN_POINT('',(-101.6,8.565685424949,140.));
#34 = LINE('',#35,#36);
#35 = CARTESIAN_POINT('',(110.,8.565685424949,140.));
#36 = VECTOR('',#37,1.);
#37 = DIRECTION('',(-1.,-0.,-0.));
#38 = ORIENTED_EDGE('',*,*,#39,.F.);
#39 = EDGE_CURVE('',#40,#32,#42,.T.);
#40 = VERTEX_POINT('',#41);
#41 = CARTESIAN_POINT('',(-101.6,4.98370490961,136.41801948466));
#42 = LINE('',#43,#44);
#43 = CARTESIAN_POINT('',(-101.6,17.633352206627,149.06766678167));
#44 = VECTOR('',#45,1.);
#45 = DIRECTION('',(0.,0.707106781187,0.707106781187));
#46 = ORIENTED_EDGE('',*,*,#47,.F.);
#47 = EDGE_CURVE('',#24,#40,#48,.T.);
#48 = LINE('',#49,#50);
#49 = CARTESIAN_POINT('',(110.,4.98370490961,136.41801948466));
#50 = VECTOR('',#51,1.);
#51 = DIRECTION('',(-1.,-0.,-0.));
#52 = PLANE('',#53);
#53 = AXIS2_PLACEMENT_3D('',#54,#55,#56);
#54 = CARTESIAN_POINT('',(110.,8.565685424949,140.));
#55 = DIRECTION('',(0.,-0.707106781187,0.707106781187));
#56 = DIRECTION('',(0.,-0.707106781187,-0.707106781187));
#57 = ADVANCED_FACE('',(#58),#83,.T.);
#58 = FACE_BOUND('',#59,.T.);
#59 = EDGE_LOOP('',(#60,#61,#69,#77));
#60 = ORIENTED_EDGE('',*,*,#21,.T.);
#61 = ORIENTED_EDGE('',*,*,#62,.F.);
#62 = EDGE_CURVE('',#63,#24,#65,.T.);
#63 = VERTEX_POINT('',#64);
#64 = CARTESIAN_POINT('',(110.,215.01629509039,136.41801948466));
#65 = LINE('',#66,#67);
#66 = CARTESIAN_POINT('',(110.,215.01629509039,136.41801948466));
#67 = VECTOR('',#68,1.);
#68 = DIRECTION('',(0.,-1.,0.));
#69 = ORIENTED_EDGE('',*,*,#70,.F.);
#70 = EDGE_CURVE('',#71,#63,#73,.T.);
#71 = VERTEX_POINT('',#72);
#72 = CARTESIAN_POINT('',(110.,211.43431457505,140.));
#73 = LINE('',#74,#75);
#74 = CARTESIAN_POINT('',(110.,211.43431457505,140.));
#75 = VECTOR('',#76,1.);
#76 = DIRECTION('',(0.,0.707106781187,-0.707106781187));
#77 = ORIENTED_EDGE('',*,*,#78,.F.);
#78 = EDGE_CURVE('',#22,#71,#79,.T.);
#79 = LINE('',#80,#81);
#80 = CARTESIAN_POINT('',(110.,8.565685424949,140.));
#81 = VECTOR('',#82,1.);
#82 = DIRECTION('',(0.,1.,0.));
#83 = PLANE('',#84);
#84 = AXIS2_PLACEMENT_3D('',#85,#86,#87);
#85 = CARTESIAN_POINT('',(110.,110.,138.17867972826));
#86 = DIRECTION('',(1.,0.,0.));
#87 = DIRECTION('',(0.,0.,1.));
#88 = ADVANCED_FACE('',(#89,#107),#141,.F.);
#89 = FACE_BOUND('',#90,.F.);
#90 = EDGE_LOOP('',(#91,#92,#100,#106));
#91 = ORIENTED_EDGE('',*,*,#62,.F.);
#92 = ORIENTED_EDGE('',*,*,#93,.T.);
#93 = EDGE_CURVE('',#63,#94,#96,.T.);
#94 = VERTEX_POINT('',#95);
#95 = CARTESIAN_POINT('',(-101.6,215.01629509039,136.41801948466));
#96 = LINE('',#97,#98);
#97 = CARTESIAN_POINT('',(110.,215.01629509039,136.41801948466));
#98 = VECTOR('',#99,1.);
#99 = DIRECTION('',(-1.,-0.,-0.));
#100 = ORIENTED_EDGE('',*,*,#101,.F.);
#101 = EDGE_CURVE('',#40,#94,#102,.T.);
#102 = LINE('',#103,#104);
#103 = CARTESIAN_POINT('',(-101.6,162.50814754519,136.41801948466));
#104 = VECTOR('',#105,1.);
#105 = DIRECTION('',(0.,1.,0.));
#106 = ORIENTED_EDGE('',*,*,#47,.F.);
#107 = FACE_BOUND('',#108,.F.);
#108 = EDGE_LOOP('',(#109,#119,#127,#135));
#109 = ORIENTED_EDGE('',*,*,#110,.T.);
#110 = EDGE_CURVE('',#111,#113,#115,.T.);
#111 = VERTEX_POINT('',#112);
#112 = CARTESIAN_POINT('',(86.,122.5,136.41801948466));
#113 = VERTEX_POINT('',#114);
#114 = CARTESIAN_POINT('',(86.,97.5,136.41801948466));
#115 = LINE('',#116,#117);
#116 = CARTESIAN_POINT('',(86.,156.25814754519,136.41801948466));
#117 = VECTOR('',#118,1.);
#118 = DIRECTION('',(0.,-1.,0.));
#119 = ORIENTED_EDGE('',*,*,#120,.T.);
#120 = EDGE_CURVE('',#113,#121,#123,.T.);
#121 = VERTEX_POINT('',#122);
#122 = CARTESIAN_POINT('',(77.,97.5,136.41801948466));
#123 = LINE('',#124,#125);
#124 = CARTESIAN_POINT('',(93.5,97.5,136.41801948466));
#125 = VECTOR('',#126,1.);
#126 = DIRECTION('',(-1.,0.,0.));
#127 = ORIENTED_EDGE('',*,*,#128,.T.);
#128 = EDGE_CURVE('',#121,#129,#131,.T.);
#129 = VERTEX_POINT('',#130);
#130 = CARTESIAN_POINT('',(77.,122.5,136.41801948466));
#131 = LINE('',#132,#133);
#132 = CARTESIAN_POINT('',(77.,168.75814754519,136.41801948466));
#133 = VECTOR('',#134,1.);
#134 = DIRECTION('',(0.,1.,0.));
#135 = ORIENTED_EDGE('',*,*,#136,.T.);
#136 = EDGE_CURVE('',#129,#111,#137,.T.);
#137 = LINE('',#138,#139);
#138 = CARTESIAN_POINT('',(98.,122.5,136.41801948466));
#139 = VECTOR('',#140,1.);
#140 = DIRECTION('',(1.,0.,0.));
#141 = PLANE('',#142);
#142 = AXIS2_PLACEMENT_3D('',#143,#144,#145);
#143 = CARTESIAN_POINT('',(110.,215.01629509039,136.41801948466));
#144 = DIRECTION('',(0.,0.,1.));
#145 = DIRECTION('',(0.,-1.,0.));
#146 = ADVANCED_FACE('',(#147),#165,.F.);
#147 = FACE_BOUND('',#148,.F.);
#148 = EDGE_LOOP('',(#149,#150,#151,#159));
#149 = ORIENTED_EDGE('',*,*,#39,.F.);
#150 = ORIENTED_EDGE('',*,*,#101,.T.);
#151 = ORIENTED_EDGE('',*,*,#152,.T.);
#152 = EDGE_CURVE('',#94,#153,#155,.T.);
#153 = VERTEX_POINT('',#154);
#154 = CARTESIAN_POINT('',(-101.6,211.43431457505,140.));
#155 = LINE('',#156,#157);
#156 = CARTESIAN_POINT('',(-101.6,202.36664779337,149.06766678167));
#157 = VECTOR('',#158,1.);
#158 = DIRECTION('',(0.,-0.707106781187,0.707106781187));
#159 = ORIENTED_EDGE('',*,*,#160,.T.);
#160 = EDGE_CURVE('',#153,#32,#161,.T.);
#161 = LINE('',#162,#163);
#162 = CARTESIAN_POINT('',(-101.6,59.282842712475,140.));
#163 = VECTOR('',#164,1.);
#164 = DIRECTION('',(0.,-1.,0.));
#165 = PLANE('',#166);
#166 = AXIS2_PLACEMENT_3D('',#167,#168,#169);
#167 = CARTESIAN_POINT('',(-101.6,110.,74.836352551661));
#168 = DIRECTION('',(1.,0.,0.));
#169 = DIRECTION('',(0.,0.,1.));
#170 = ADVANCED_FACE('',(#171,#182),#216,.F.);
#171 = FACE_BOUND('',#172,.F.);
#172 = EDGE_LOOP('',(#173,#174,#175,#176));
#173 = ORIENTED_EDGE('',*,*,#78,.F.);
#174 = ORIENTED_EDGE('',*,*,#31,.T.);
#175 = ORIENTED_EDGE('',*,*,#160,.F.);
#176 = ORIENTED_EDGE('',*,*,#177,.F.);
#177 = EDGE_CURVE('',#71,#153,#178,.T.);
#178 = LINE('',#179,#180);
#179 = CARTESIAN_POINT('',(110.,211.43431457505,140.));
#180 = VECTOR('',#181,1.);
#181 = DIRECTION('',(-1.,-0.,-0.));
#182 = FACE_BOUND('',#183,.F.);
#183 = EDGE_LOOP('',(#184,#194,#202,#210));
#184 = ORIENTED_EDGE('',*,*,#185,.T.);
#185 = EDGE_CURVE('',#186,#188,#190,.T.);
#186 = VERTEX_POINT('',#187);
#187 = CARTESIAN_POINT('',(77.,122.5,140.));
#188 = VERTEX_POINT('',#189);
#189 = CARTESIAN_POINT('',(77.,97.5,140.));
#190 = LINE('',#191,#192);
#191 = CARTESIAN_POINT('',(77.,122.5,140.));
#192 = VECTOR('',#193,1.);
#193 = DIRECTION('',(0.,-1.,0.));
#194 = ORIENTED_EDGE('',*,*,#195,.T.);
#195 = EDGE_CURVE('',#188,#196,#198,.T.);
#196 = VERTEX_POINT('',#197);
#197 = CARTESIAN_POINT('',(86.,97.5,140.));
#198 = LINE('',#199,#200);
#199 = CARTESIAN_POINT('',(77.,97.5,140.));
#200 = VECTOR('',#201,1.);
#201 = DIRECTION('',(1.,0.,0.));
#202 = ORIENTED_EDGE('',*,*,#203,.T.);
#203 = EDGE_CURVE('',#196,#204,#206,.T.);
#204 = VERTEX_POINT('',#205);
#205 = CARTESIAN_POINT('',(86.,122.5,140.));
#206 = LINE('',#207,#208);
#207 = CARTESIAN_POINT('',(86.,97.5,140.));
#208 = VECTOR('',#209,1.);
#209 = DIRECTION('',(0.,1.,0.));
#210 = ORIENTED_EDGE('',*,*,#211,.T.);
#211 = EDGE_CURVE('',#204,#186,#212,.T.);
#212 = LINE('',#213,#214);
#213 = CARTESIAN_POINT('',(86.,122.5,140.));
#214 = VECTOR('',#215,1.);
#215 = DIRECTION('',(-1.,0.,0.));
#216 = PLANE('',#217);
#217 = AXIS2_PLACEMENT_3D('',#218,#219,#220);
#218 = CARTESIAN_POINT('',(110.,8.565685424949,140.));
#219 = DIRECTION('',(0.,0.,-1.));
#220 = DIRECTION('',(0.,1.,0.));
#221 = ADVANCED_FACE('',(#222),#228,.F.);
#222 = FACE_BOUND('',#223,.F.);
#223 = EDGE_LOOP('',(#224,#225,#226,#227));
#224 = ORIENTED_EDGE('',*,*,#70,.F.);
#225 = ORIENTED_EDGE('',*,*,#177,.T.);
#226 = ORIENTED_EDGE('',*,*,#152,.F.);
#227 = ORIENTED_EDGE('',*,*,#93,.F.);
#228 = PLANE('',#229);
#229 = AXIS2_PLACEMENT_3D('',#230,#231,#232);
#230 = CARTESIAN_POINT('',(110.,211.43431457505,140.));
#231 = DIRECTION('',(0.,-0.707106781187,-0.707106781187));
#232 = DIRECTION('',(0.,0.707106781187,-0.707106781187));
#233 = ADVANCED_FACE('',(#234),#250,.F.);
#234 = FACE_BOUND('',#235,.F.);
#235 = EDGE_LOOP('',(#236,#237,#243,#244));
#236 = ORIENTED_EDGE('',*,*,#203,.F.);
#237 = ORIENTED_EDGE('',*,*,#238,.T.);
#238 = EDGE_CURVE('',#196,#113,#239,.T.);
#239 = LINE('',#240,#241);
#240 = CARTESIAN_POINT('',(86.,97.5,140.));
#241 = VECTOR('',#242,1.);
#242 = DIRECTION('',(-0.,-0.,-1.));
#243 = ORIENTED_EDGE('',*,*,#110,.F.);
#244 = ORIENTED_EDGE('',*,*,#245,.F.);
#245 = EDGE_CURVE('',#204,#111,#246,.T.);
#246 = LINE('',#247,#248);
#247 = CARTESIAN_POINT('',(86.,122.5,140.));
#248 = VECTOR('',#249,1.);
#249 = DIRECTION('',(-0.,-0.,-1.));
#250 = PLANE('',#251);
#251 = AXIS2_PLACEMENT_3D('',#252,#253,#254);
#252 = CARTESIAN_POINT('',(86.,97.5,140.));
#253 = DIRECTION('',(1.,0.,0.));
#254 = DIRECTION('',(0.,1.,0.));
#255 = ADVANCED_FACE('',(#256),#267,.F.);
#256 = FACE_BOUND('',#257,.F.);
#257 = EDGE_LOOP('',(#258,#259,#260,#261));
#258 = ORIENTED_EDGE('',*,*,#211,.F.);
#259 = ORIENTED_EDGE('',*,*,#245,.T.);
#260 = ORIENTED_EDGE('',*,*,#136,.F.);
#261 = ORIENTED_EDGE('',*,*,#262,.F.);
#262 = EDGE_CURVE('',#186,#129,#263,.T.);
#263 = LINE('',#264,#265);
#264 = CARTESIAN_POINT('',(77.,122.5,140.));
#265 = VECTOR('',#266,1.);
#266 = DIRECTION('',(-0.,-0.,-1.));
#267 = PLANE('',#268);
#268 = AXIS2_PLACEMENT_3D('',#269,#270,#271);
#269 = CARTESIAN_POINT('',(86.,122.5,140.));
#270 = DIRECTION('',(0.,1.,0.));
#271 = DIRECTION('',(-1.,0.,0.));
#272 = ADVANCED_FACE('',(#273),#284,.F.);
#273 = FACE_BOUND('',#274,.F.);
#274 = EDGE_LOOP('',(#275,#276,#277,#278));
#275 = ORIENTED_EDGE('',*,*,#185,.F.);
#276 = ORIENTED_EDGE('',*,*,#262,.T.);
#277 = ORIENTED_EDGE('',*,*,#128,.F.);
#278 = ORIENTED_EDGE('',*,*,#279,.F.);
#279 = EDGE_CURVE('',#188,#121,#280,.T.);
#280 = LINE('',#281,#282);
#281 = CARTESIAN_POINT('',(77.,97.5,140.));
#282 = VECTOR('',#283,1.);
#283 = DIRECTION('',(-0.,-0.,-1.));
#284 = PLANE('',#285);
#285 = AXIS2_PLACEMENT_3D('',#286,#287,#288);
#286 = CARTESIAN_POINT('',(77.,122.5,140.));
#287 = DIRECTION('',(-1.,0.,0.));
#288 = DIRECTION('',(0.,-1.,0.));
#289 = ADVANCED_FACE('',(#290),#296,.F.);
#290 = FACE_BOUND('',#291,.F.);
#291 = EDGE_LOOP('',(#292,#293,#294,#295));
#292 = ORIENTED_EDGE('',*,*,#195,.F.);
#293 = ORIENTED_EDGE('',*,*,#279,.T.);
#294 = ORIENTED_EDGE('',*,*,#120,.F.);
#295 = ORIENTED_EDGE('',*,*,#238,.F.);
#296 = PLANE('',#297);
#297 = AXIS2_PLACEMENT_3D('',#298,#299,#300);
#298 = CARTESIAN_POINT('',(77.,97.5,140.));
#299 = DIRECTION('',(0.,-1.,0.));
#300 = DIRECTION('',(1.,0.,0.));
#301 = ( GEOMETRIC_REPRESENTATION_CONTEXT(3) 
GLOBAL_UNCERTAINTY_ASSIGNED_CONTEXT((#305)) GLOBAL_UNIT_ASSIGNED_CONTEXT
((#302,#303,#304)) REPRESENTATION_CONTEXT('Context #1',
  '3D Context with UNIT and UNCERTAINTY') );
#302 = ( LENGTH_UNIT() NAMED_UNIT(*) SI_UNIT(.MILLI.,.METRE.) );
#303 = ( NAMED_UNIT(*) PLANE_ANGLE_UNIT() SI_UNIT($,.RADIAN.) );
#304 = ( NAMED_UNIT(*) SI_UNIT($,.STERADIAN.) SOLID_ANGLE_UNIT() );
#305 = UNCERTAINTY_MEASURE_WITH_UNIT(LENGTH_MEASURE(1.E-07),#302,
  'distance_accuracy_value','confusion accuracy');
#306 = PRODUCT_RELATED_PRODUCT_CATEGORY('part',$,(#7));
#307 = MECHANICAL_DESIGN_GEOMETRIC_PRESENTATION_REPRESENTATION('',(#308)
  ,#301);
#308 = STYLED_ITEM('color',(#309),#15);
#309 = PRESENTATION_STYLE_ASSIGNMENT((#310,#316));
#310 = SURFACE_STYLE_USAGE(.BOTH.,#311);
#311 = SURFACE_SIDE_STYLE('',(#312));
#312 = SURFACE_STYLE_FILL_AREA(#313);
#313 = FILL_AREA_STYLE('',(#314));
#314 = FILL_AREA_STYLE_COLOUR('',#315);
#315 = COLOUR_RGB('',0.83137256512,0.976470577825,0.596078458879);
#316 = CURVE_STYLE('',#317,POSITIVE_LENGTH_MEASURE(0.1),#318);
#317 = DRAUGHTING_PRE_DEFINED_CURVE_FONT('continuous');
#318 = COLOUR_RGB('',9.803921802644E-02,9.803921802644E-02,
  9.803921802644E-02);
ENDSEC;
END-ISO-10303-21;
